<?xml version="1.0" standalone="no"?>
<!DOCTYPE svg PUBLIC "-//W3C//DTD SVG 1.1//EN" "http://www.w3.org/Graphics/SVG/1.1/DTD/svg11.dtd" >
<svg>
<metadata>
Created by FontForge 20120731 at Mon Aug 25 13:59:14 2014
 By World Wide Web Server
NewGreek is a trademark of The Walt Disney Company
</metadata>
<defs>
<font id="DisneyHeroic" horiz-adv-x="850" >
  <font-face 
    font-family="Disney Heroic"
    font-weight="400"
    font-stretch="normal"
    units-per-em="1000"
    panose-1="0 0 4 0 0 0 0 0 0 0"
    ascent="800"
    descent="-200"
    x-height="800"
    cap-height="800"
    bbox="-76 -234 1059 1012"
    underline-thickness="20"
    underline-position="-123"
    unicode-range="U+0020-F002"
  />
<missing-glyph horiz-adv-x="500" 
d="M63 0v800h375v-800h-375zM125 63h250v675h-250v-675z" />
    <glyph glyph-name=".notdef" horiz-adv-x="500" 
d="M63 0v800h375v-800h-375zM125 63h250v675h-250v-675z" />
    <glyph glyph-name="glyph1" horiz-adv-x="0" 
 />
    <glyph glyph-name="nonmarkingreturn" horiz-adv-x="300" 
 />
    <glyph glyph-name="space" unicode=" " horiz-adv-x="300" 
 />
    <glyph glyph-name="exclam" unicode="!" horiz-adv-x="297" 
d="M141 880q11 -2 11 -28q0 -9 -2 -30.5t-1 -29.5q-3 -39 -14 -64q-3 -14 -9 -31q-9 -42 5 -54q7 -8 7 -22q0 -8 -3 -23q-4 -18 -5 -23q0 -27 -5 -82l-1 -34q-1 -39 -12 -142q-10 -88 -8 -141l-62 32q-2 57 -11 161q-2 44 0 127q-2 13 0 18l1 32q-6 4 -16 41q2 42 4 97
q3 8 3 25q0 43 -2 58l-2.5 13.5t-4.5 14.5q3 15 10 15q11 -1 14 4q2 1 25 18q10 16 31.5 24t31.5 18q10 5 15 6zM125 95q4 -5 2 -13q-2 -6 -3 -12v-40q-1 -23 -15 -33q-17 -2 -30 -2q-43 0 -48 18q-7 28 -17 75q-6 12 11 14l8 -4q29 0 63 9q19 -4 29 -12z" />
    <glyph glyph-name="quotedbl" unicode="&#x22;" horiz-adv-x="660" 
d="M79 806h-21q-2 -1 -37 -7q-6 -2 -21 -2q0 -21 2 -57l9 -33q2 -74 1 -101q-1 -4 10 -13q8 -7 17 -14q1 -3 7 -7l10 -9q7 -8 21 -20q17 -20 25 -25q7 0 20 -17q4 0 12 -7t13 -5l49 84q-21 18 -64 54l-5 3q-1 12 -5 25q-12 107 -9 145q-11 9 -18 10q-13 -1 -16 -4zM305 816
h-21q-2 -2 -37 -7q-6 -2 -21 -2q1 -21 2 -57l9 -33q1 -36 1 -101q0 -4 9.5 -12t17.5 -15q1 -3 7 -7l10 -9q8 -8 21 -20q17 -20 25 -25q7 0 20 -17q4 -1 12.5 -7.5t12.5 -4.5l49 84q-21 18 -64 54l-5 3q-1 12 -5 25q-11 107 -9 145q-11 8 -18 10q-13 -1 -16 -4z" />
    <glyph glyph-name="numbersign" unicode="#" horiz-adv-x="940" 
d="M512 67q-5 17 -5 44q0 22 5 68t5 63q0 16 -3 26l-224 -6q-2 -11 -2 -23q0 -21 9.5 -66t9.5 -67q0 -21 -7 -38q-5 -5 -33 -5q-57 0 -57 16q0 3 1 5l-13 184q-51 -6 -85 -6q-39 0 -40 9q-5 4 -13.5 38t-6.5 40q11 0 49 -6.5t55 -6.5q9 0 15 1q10 41 17 163q-29 0 -95 10
l-61 10q-24 27 -24 44q0 19 24 40q16 0 75.5 -1.5t74.5 -1.5q0 25 9 91q7 60 6 91q-5 20 33 20q49 0 49 -19q-5 -67 -13 -180q74 0 248 12l22 164q5 0 36.5 9t44.5 9q9 0 12 -3l-10 -164l175 1q17 0 17 -17q0 -14 -11.5 -39t-11.5 -24q-24 -8 -88 -14q-58 -6 -87 -5
q-3 -18 -4 -84.5t-4 -83.5q19 -1 71.5 2.5t76.5 3.5q21 0 35 -2q-8 -26 -15 -66q-1 -19 -3 -38q-15 -2 -65 -5q-66 -3 -100 2q-10 -36 -10 -80q0 -37 12 -119q3 -1 3 -2q0 -6 -36 -6q-59 0 -63 12zM285 349q7 -10 52 -10q89 0 173 19q13 76 13 121q0 37 -8.5 43t-42.5 6
q-66 0 -205 -17q0 -41 2 -72q5 -75 16 -90z" />
    <glyph glyph-name="dollar" unicode="$" horiz-adv-x="476" 
d="M79 171q-9 -4 -19 -4q-23 0 -41.5 20t-18.5 45q0 5 1 11q26 67 56 67q26 0 65 -70q26 -19 70 -63q32 -31 43 -31q8 0 14 11l49 158q-65 50 -129 101q-87 70 -113 113q-6 31 -4 73q2 46 13 68q13 18 21 43q2 10 28 17q13 8 49 23q-1 100 2 98q15 0 31 1q29 -1 30 -15
q0 -26 3 -78q55 -23 102 -56q37 -27 45 -27q-4 -29 -14 -54q-13 -33 -28 -33q-18 0 -36 43q-31 31 -63 61l-93 -55q-19 -28 -19 -42q0 -8 15 -29.5t19 -52.5q12 -35 114 -99t108 -85q2 -6 2 -15q0 -50 -48 -155q-1 -39 -84 -90l-6 -64h-72l-3 84q2 12 -36 47t-51 35
q-2 0 -2 -1z" />
    <glyph glyph-name="percent" unicode="%" horiz-adv-x="742" 
d="M274 580q0 -69 -30 -131q-38 -79 -106 -79q-19 0 -46 18t-34 18q-17 1 -33 57t-16 107q0 79 31 144q36 75 95 75q7 0 14 -1q125 -28 125 -208zM134 446q33 -6 62 42t29 105q0 101 -91 112q-81 -64 -81 -138q0 -47 32 -88q27 -36 45 -36q3 0 4 3zM472 428q11 0 29 -11
t36 -11q25 -1 42.5 -57.5t17.5 -127.5q0 -70 -30 -132q-39 -79 -107 -79q-136 64 -136 191q0 82 53 157q50 70 95 70zM158 44q8 41 16 81q14 70 51 134t44 113q10 64 16 80q11 28 77 210q37 102 56 137q16 7 25 7q13 0 19 -14l8 -60q1 3 1 -30q0 -23 -16 -34.5t-53 -112.5
q-28 -80 -56 -161q-32 -97 -65 -194q-44 -128 -67 -165q-32 -38 -45 -38q-9 0 -11 19v28zM485 354q-39 24 -68 -28q-27 -47 -27 -116q0 -51 17 -83q20 -35 56 -33q83 6 83 110q0 46 -18 90.5t-43 59.5z" />
    <glyph glyph-name="ampersand" unicode="&#x26;" horiz-adv-x="476" 
d="M265 844q1 -38 -7 -110q12 -6 36 -25t41 -24q25 -18 40 -25q8 3 14 -9q-6 -13 -24 -30q-21 -20 -27 -29l-8 1q-22 19 -45 39q-27 22 -48 33q-14 -12 -40 -47.5t-47 -48.5q47 -37 100 -87q7 -1 27.5 -18t21.5 -27q-4 -12 -17 -31q-4 1 -8 3q-5 2 -8 -3q-7 -8 -20.5 -13
t-19 -11t-19 -11.5t-18.5 -11.5q-49 -31 -94 -84q7 -16 30 -27q27 -26 39 -36q24 -19 45 -25q4 6 58 30t64 24l7 3q4 0 8 2q5 -1 10 -2.5t5 -7.5q2 -24 17 -77q0 -10 -6 -12l-6 -2q-20 -5 -46 -12q-13 0 -37.5 -10.5t-36.5 -10.5l-7 -6q-5 -42 -2 -65q4 -2 2 -14
q2 -11 5 -23q1 -13 -5 -20q-10 -6 -33.5 -6t-32.5 -3q-9 4 -9 8q6 32 2 58q4 13 2 44l-1 18q-13 11 -32 17q-59 55 -66 58q-15 17 -47 51q-1 0 -6.5 1.5t-8 4t-3.5 7.5l-1 15t7 25q3 21 29 44q33 29 40 40q32 36 81 80q-13 15 -41 44.5t-41 44.5q-3 1 -15 13
q-9 9 -16.5 10.5t-7.5 5.5q0 3 5.5 10.5t5.5 11.5q20 22 74 69q48 43 70 72q-3 4 -2 27v24q0 21 1 50q-3 15 1 18q25 16 45 11q8 3 17 2q11 -2 11 -9q0 -3 -2 -6z" />
    <glyph glyph-name="quotesingle" unicode="'" horiz-adv-x="334" 
d="M182 800l-11 -94q1 -14 0 -51q-1 -36 -1 -51q0 -3 -27 -27q-2 -6 -7 -6l-10 -10q-7 -8 -21 -19q-8 -10 -25 -26q-7 1 -20 -16q-4 -1 -12.5 -8t-12.5 -5l-49 85q21 18 64 53l5 3q1 8 5 25q12 107 9 146q13 15 58 15q56 0 55 -14z" />
    <glyph glyph-name="parenleft" unicode="(" horiz-adv-x="392" 
d="M194 678q12 7 78 122h-47q-35 -24 -148 -176q-82 -111 -82 -231q0 -65 25 -131q17 -46 47 -91q15 -22 30 -43q12 -19 36 -45q7 -6 39 -51q25 -35 70 -64q21 -2 21 31q0 14 -4.5 40.5t-4.5 31.5q-49 25 -98 100q-64 98 -65 211q-2 147 103 296zM194 678z" />
    <glyph glyph-name="parenright" unicode=")" horiz-adv-x="349" 
d="M148 710q-7 45 -31 72.5t-51 23.5l-48 -3l-14 -43q176 -205 176 -398q0 -139 -85 -239q-13 -6 -80 -120l47 -1q198 189 198 390q0 153 -112 318z" />
    <glyph glyph-name="asterisk" unicode="*" horiz-adv-x="363" 
d="M99 563q-50 -5 -85 3q-13 14 -13 23q0 8 16 23q-6 1 34 1q33 0 61 -15q-17 16 -38 51q-19 32 -23 35q-3 13 13.5 28.5t30.5 14.5q47 -94 48 -95l8 26q8 21 21 23q9 1 22 17t22 16q13 0 31 -24q2 -6 2 -11q0 -20 -36 -48q-26 -20 -52 -39q5 1 44 16q35 14 56 14
q16 0 28 -7q1 -8 1 -14q0 -47 -51 -47q-15 0 -37 5l-18 4q28 -38 65 -87l-33 -34q-17 19 -29 35q-30 41 -40 75q-13 -41 -29 -102q-10 2 -39 3q-22 0 -19 32z" />
    <glyph glyph-name="plus" unicode="+" horiz-adv-x="499" 
d="M367 446q12 -37 12 -52q0 -20 -15 -20q-6 0 -18.5 2t-19.5 2q-22 0 -65 -4.5t-51 -4.5q0 3 1 -48q1 -30 -2 -30t-4 -36q-1 -41 -1 -45h-52q3 15 -8 53q-11 43 -11 69q0 19 4 37l-49 6q-18 -4 -57 -9q-8 -3 -23 9.5t-15 30.5q0 19 18 38q8 10 23 10q14 0 28 -7
q7 -3 36.5 7.5t38.5 10.5q5 34 6 97q-1 6 5.5 16.5t6.5 15.5l54 11q0 -6 3.5 -48.5t3.5 -61.5q0 -25 -5 -28q-10 -8 156 -21z" />
    <glyph glyph-name="comma" unicode="," horiz-adv-x="263" 
d="M36 -34l-36 34q-4 -2 -10.5 6.5t-6.5 22.5q0 28 35 61l-10 -12v0q32 26 57 26q11 0 21 -5q-3 -2 22.5 -48t21.5 -51q-2 -24 -31 -75q-21 -35 -42 -71q-17 -7 -26 -7t-16 9.5t-15 19.5q0 35 11 62.5t25 27.5z" />
    <glyph glyph-name="hyphen" unicode="-" horiz-adv-x="593" 
d="M442 449q5 -6 30 0q20 5 20 -23q6 -48 -25 -48q-7 0 -21.5 2.5t-21.5 2.5q-12 0 -19 -7q-28 -10 -64 -10q-25 0 -74 7t-73 7q-65 0 -109 -39q-9 5 -18 5q-5 0 -15 -1.5t-16 -1.5q-13 0 -28 6q-5 13 -5 31q0 6 2 31q1 19 0 30q38 -1 116 4q20 -12 67 -4q35 7 83 8
q30 1 87 1q59 -1 84 -1z" />
    <glyph glyph-name="hyphen" unicode="&#x2010;" horiz-adv-x="593" 
d="M442 449q5 -6 30 0q20 5 20 -23q6 -48 -25 -48q-7 0 -21.5 2.5t-21.5 2.5q-12 0 -19 -7q-28 -10 -64 -10q-25 0 -74 7t-73 7q-65 0 -109 -39q-9 5 -18 5q-5 0 -15 -1.5t-16 -1.5q-13 0 -28 6q-5 13 -5 31q0 6 2 31q1 19 0 30q38 -1 116 4q20 -12 67 -4q35 7 83 8
q30 1 87 1q59 -1 84 -1z" />
    <glyph glyph-name="period" unicode="." horiz-adv-x="279" 
d="M110 85q2 2 8 -19q1 -19 2 -37q-1 -40 -14 -38q-4 4 -19 2q-11 6 -31 5q-23 -1 -31 1q-6 7 -5 22q1 20 1 23h-1q-1 11 4 28q-7 22 2 31q4 3 10 3q2 0 33 -14z" />
    <glyph glyph-name="slash" unicode="/" horiz-adv-x="327" 
d="M204 581q-4 -24 -40 -131q-32 -93 -32 -160q0 -38 9 -76l-59 -200q3 2 5 2q10 0 -7 -22t-44 -22q-17 0 -36 11q-6 7 -6 20q0 15 11 46.5t11 40.5q7 53 68 309q54 233 63 360q-5 14 28 59t46 42q8 -38 8 -83q0 -56 -14 -124.5l-14 -68.5q0 -4 3 -3z" />
    <glyph glyph-name="zero" unicode="0" horiz-adv-x="875" 
d="M621 127q-77 -86 -237 -127q-101 -3 -195 64q-75 53 -135 141q-54 114 -54 221q0 103 55 168q38 41 119 120q19 7 75 50q46 36 77 36q25 0 50 -20l96 15q91 -40 94 -41q51 -26 81 -61q1 -1 32 -13q19 -7 20 -22q-4 -14 8 -35q9 -17 19 -35q-7 -25 -7 -55q0 -29 9 -87.5
t9 -86.5q0 -68 -38 -115q-44 -41 -78 -117zM582 220q61 107 61 228q0 85 -34 151q-12 20 -25 40q-17 22 -43 20q-32 21 -64 43q-41 23 -76 23q-20 0 -40 -7l1 -9l-151 -95q-34 -44 -47 -65q-24 -36 -35 -69q-32 -27 -32 -71q0 -16 5 -48t5 -48q67 -184 230 -212q14 -4 28 -4
q30 0 67 22q30 18 61 37z" />
    <glyph glyph-name="one" unicode="1" horiz-adv-x="326" 
d="M161 91q-9 -8 -2 -49q6 -32 -27 -32q-11 -1 -19 -1q-40 0 -40 42q0 10 3 34.5t3 35.5q0 21 -8 32q-15 54 -15 128q0 31 3.5 93.5t3.5 93.5q0 132 -54 213q3 9 3 20t-4 31.5t-4 29.5q0 30 34 38q15 9 36 9q11 0 32 -3t30 -3q8 0 15 1q-2 -61 5 -189q-16 -32 -5 -110
q10 -77 11 -204q-1 -105 -1 -210z" />
    <glyph glyph-name="two" unicode="2" horiz-adv-x="600" 
d="M499 13q-18 0 -52 -4.5t-51 -4.5q-33 0 -60 13q-21 2 -43 2q-41 0 -105 -8q-76 -9 -102 -11q-15 36 -15 66q0 17 5 31q75 121 234 358q10 30 19 59q12 39 12 63q0 47 -40 72q-10 6 -34 30q-18 18 -37 23q-76 -74 -139 -159q-13 -11 -25 -23q-15 -14 -31 -12
q-26 18 -35 84q20 29 79 76q55 44 74 79q2 1 38 33q22 20 43 20q45 1 84 -53q49 -67 74 -80l32 -62q19 -39 19 -65q0 -34 -31 -59q-32 -69 -111 -184q-89 -127 -118 -182l10 -9q28 -8 59 -8t88.5 11.5t86.5 11.5q39 0 72 -15v-93z" />
    <glyph glyph-name="three" unicode="3" horiz-adv-x="486" 
d="M364 218q-41 -21 -89 -66q-68 -63 -84 -75q-10 -8 -38 -43q-22 -26 -46 -34q-55 10 -62 42q18 36 50 67q37 34 74 44q36 15 68.5 65.5t64.5 68.5q-19 41 -75 74l-98 52q-27 -6 -27 22q0 12 5 24q14 10 87 43q54 25 77 60l-13 27q-76 76 -243 173q4 9 9 19q6 15 17 19
q132 -41 225 -138q71 -18 103 -69q-2 -39 -43 -76q-36 -31 -73 -62l9 -30q0 -1 95 -69q63 -46 63 -78q0 -33 -56 -60z" />
    <glyph glyph-name="four" unicode="4" horiz-adv-x="674" 
d="M434 194q-5 -28 -4 -83.5t-4 -83.5q-7 -10 -27 -27q-57 6 -57 44q0 11 4 25l5 125q-28 0 -84 4t-84 4q-54 0 -96 -11q-67 0 -88 38q0 33 32 71q48 57 51 62q27 47 149 212q95 130 129 219q14 11 26 11q7 0 14 -4q24 -33 24 -73q0 -13 -3 -37q-3 -28 -4 -42q-1 -29 -1 -59
q0 -66 7 -166q10 -125 11 -160l10 -7q8 -3 20 -3q11 0 36 4t36 4q36 0 40 -36q-7 -35 -58 -30q-68 7 -84 -1zM334 617q-53 -66 -117 -168l-108 -174q19 5 42 5q20 0 60.5 -5t61.5 -5q25 0 47 5q0 22 12 62t12 61q0 17 -6 33q-23 22 -23 50q0 17 13 52.5t13 53.5q0 16 -7 30z
" />
    <glyph glyph-name="five" unicode="5" horiz-adv-x="545" 
d="M347 221q-6 -12 -21.5 -19.5t-30.5 -14.5l-133 -118q-12 -25 -71 -65q-8 -4 -18 -4t-71 24q16 42 89 86q55 53 111 105q60 66 69 124q-104 109 -198 102q-37 17 -37 49q0 9 3 26.5t3 26.5q0 23 -16 37q4 23 8.5 46.5t15.5 39.5q-1 4 -12 39q-8 25 -8 41q0 35 34 54
q54 2 321 -8q19 0 32 -16q10 -14 20 -29q4 -18 -17 -28q-35 -16 -35 -17q-44 21 -117 24q-65 1 -129 1q-18 -20 -22 -57q-1 -30 -2 -61q-2 -8 -2 -16q0 -27 29 -53q44 -38 49 -46l125 -48q71 -29 120 -59q9 -10 9 -20q0 -18 -39 -48t-45 -50z" />
    <glyph glyph-name="six" unicode="6" horiz-adv-x="639" 
d="M322 9q-13 -9 -27 -9q-19 0 -50 22q-34 25 -49 29q-102 90 -137 153q-35 35 -37 38q-19 23 -20 45q26 83 127 216q110 143 139 212q12 11 34 45q19 30 37 40q21 -2 43.5 -5t35.5 -14q-16 -41 -78 -107.5t-78 -106.5q-13 -32 -90 -138q-61 -83 -61 -142q0 -11 2 -22
q23 -14 47.5 -55.5t51.5 -54.5q25 -50 85 -70q71 93 71 155q0 28 -12 53q-11 36 -72 62q-66 27 -83 59q1 12 13 26q16 19 18 22q8 9 19 9q7 0 20.5 -4t20.5 -4q44 -20 66 -74q34 -28 68 -57q36 -35 36 -69q0 -17 -8 -36q-33 -73 -132 -218z" />
    <glyph glyph-name="seven" unicode="7" horiz-adv-x="519" 
d="M380 662q-153 -301 -213 -617q-8 -13 -18 -27t-26 -17q-45 -7 -82 42q-2 11 -2 22q0 38 31 92q36 63 42 88q26 34 50 116q23 79 55 114q52 120 85 254l-16 9q-15 3 -31 3q-31 0 -88.5 -17t-86.5 -17q-35 0 -66 17q-6 12 -6 23q0 22 30 43q25 10 60 10q18 0 57 -4
q36 -3 54 -3q21 -4 45 -4q20 0 56.5 3.5t54.5 3.5q43 0 77 -16q-1 -27 -24 -61q-37 -54 -38 -57z" />
    <glyph glyph-name="eight" unicode="8" horiz-adv-x="559" 
d="M272 31q-7 -2 -27 -15q-16 -11 -28 -11q-8 0 -17 5q-120 84 -121 85q-69 56 -84 112q-1 35 36 75q31 32 61 64q32 45 35 48q21 28 44 40q-51 34 -102 67q-57 41 -57 81q0 13 5 26q57 78 88 111q54 59 112 86q41 1 71 -19q19 -12 49 -46.5t50 -49.5q44 -42 48 -70
q-26 -25 -71 -87q-41 -57 -75 -85q-2 -1 -4 -1q-3 0 -7 2.5t-6 2.5q-3 0 -5 -4q154 -112 200 -209q-24 -51 -87 -110zM358 214q-2 19 -21 41q-28 33 -31 37q-28 -1 -49 24q-18 21 -35 41l-13 -5q-71 -63 -74 -66q-42 -41 -59 -77l66 -60q42 -34 78 -52q7 11 27 15
q24 5 31 10zM335 641q-9 7 -39 55q-22 36 -54 36q-8 0 -18 -3q-40 -22 -68 -64q-22 -38 -43 -76q33 -61 112 -104q79 91 110 156z" />
    <glyph glyph-name="nine" unicode="9" horiz-adv-x="553" 
d="M304 243l5 -4q-17 -40 -34 -81q-21 -47 -49 -75q-3 -35 -21 -58q-21 -26 -53 -26q-45 0 -70 40q33 75 148 245q103 153 135 248l-5 4q11 10 11 23q0 10 -7 19q-18 13 -45 45.5t-43 43.5q-27 19 -60 17q-97 -58 -117 -144q16 -43 65 -80q46 -35 97 -47q7 -10 7 -20
q0 -12 -12 -30q-14 -21 -17 -29q-8 -5 -23.5 -5.5t-29.5 -0.5q-15 6 -24 26q-12 27 -16 32q-18 21 -61 51.5t-57 46.5q-26 28 -26 60q0 14 5 31q3 3 80 105q48 63 88 103q31 16 52 16q11 0 20 -3q13 -5 16 -19q4 -17 9 -22l106 -84q60 -51 77 -100q5 -54 -28 -115
q-9 -18 -68 -104q-43 -64 -55 -109z" />
    <glyph glyph-name="colon" unicode=":" horiz-adv-x="287" 
d="M129 470q1 -4 1 -9q0 -9 -5.5 -27.5t-5.5 -27.5q0 -16 15 -26q2 -9 -3 -19.5t-14 -10.5q-29 1 -42 -1q-3 -3 -5 -3q-3 0 -8 3t-7 2q-3 0 -10.5 -1t-10.5 -1q-5 1 -8 6q-8 11 -7 32q1 31 0 35q3 4 3 9q0 4 -2.5 12.5t-2.5 11.5q0 8 11 11q26 3 52 3q21 7 34 3h5
q3 0 5 -1.5t5 -0.5zM120 94q2 2 8 -19q0 -3 1.5 -20t1.5 -26q0 -31 -15 -29q-3 5 -19 2q-11 6 -31 5q-23 -1 -31 1q-5 8 -5 22q1 21 1 23h-1q-1 11 4 28q-7 22 2 31q4 4 10 4q2 0 33 -15z" />
    <glyph glyph-name="semicolon" unicode=";" horiz-adv-x="334" 
d="M-3 -67q6 3 63 44l5 2q2 10 6 20q11 100 9 119q10 7 18 7q11 -1 16 -2q8 -1 20 0q-9 6 -13 6h-1q0 -7 51 -12q7 -2 21 -2q0 -17 -2 -47l-9 -26q-1 -29 0 -83q0 -3 -11 -10q-14 -10 -16 -12q-2 -5 -8 -5l-10 -8q-7 -7 -21 -16q-17 -16 -24 -20q-8 0 -20 -14q-4 0 -12.5 -6
t-12.5 -4zM190 472q1 -4 1 -9q0 -9 -5.5 -28t-5.5 -27q0 -17 15 -27q2 -9 -3 -19.5t-14 -10.5q-29 1 -43 -1q-3 -3 -5 -3t-7 3t-8 2q-3 0 -10.5 -1t-10.5 -1q-5 1 -8 6q-8 11 -7 33q1 30 0 35q3 4 3 9q0 4 -2.5 12t-2.5 11q0 9 11 12q26 3 52 3q21 7 35 3h5q3 0 5 -1.5
t5 -0.5z" />
    <glyph glyph-name="less" unicode="&#x3c;" horiz-adv-x="630" 
d="M177 479l126 56q112 46 213 61q21 3 33.5 -9.5t10.5 -24.5q-33 -32 -105 -52q-93 -25 -132 -45q-14 -12 -86 -30q-77 -19 -109 -39q70 -18 223 -63q76 -26 224 -71q6 -23 -46 -52q-50 -3 -64 17q-256 61 -468 166q68 72 180 86z" />
    <glyph glyph-name="equal" unicode="=" horiz-adv-x="616" 
d="M445 570q5 -7 16 -7h6h5q21 0 21 -28q1 -58 -31 -58q-8 0 -27.5 4.5t-28.5 3.5q-31 -9 -74 -9q-18 0 -55.5 2t-58.5 2q-68 0 -124 -18q-4 2 -9 2q-9 0 -28 -8.5t-27 -8.5q-15 0 -19 23q-6 12 -6 30q0 7 3 32q1 19 0 30q38 -1 116 4q19 -13 67 -4q35 6 83 8q30 1 86 0
q60 -1 85 0zM324 286q-37 -6 -90 -6q-29 0 -87 3q-62 2 -87 2q-8 -1 -21.5 -4.5t-18.5 -3.5q-16 0 -16 36q-1 10 -1 18q0 37 27 37q8 0 26 -4t26 -4q12 0 18 6q53 18 157 10q112 -8 165 5q18 -15 29 -15q3 0 7.5 1.5t6.5 1.5q9 0 24 -17q3 -9 3 -17q0 -41 -77 -48
q-46 0 -91 -1z" />
    <glyph glyph-name="greater" unicode="&#x3e;" horiz-adv-x="658" 
d="M403 476l-126 56q-112 46 -213 61q-22 3 -34 -9.5t-10 -25.5q33 -31 105 -51q93 -25 132 -45q14 -12 86 -30q76 -19 109 -39q-70 -18 -224 -63q-76 -26 -224 -72q-6 -22 47 -51q50 -3 63 17q257 61 469 166q-69 72 -180 86z" />
    <glyph glyph-name="question" unicode="?" horiz-adv-x="529" 
d="M130 864q7 2 10.5 -6t6.5 -8q8 -5 17 -22q61 -54 128 -116q19 -10 44 -35q21 -19 53 -47q3 4 7 1q2 -2 5 -4q4 -6 4 -18q-1 -16 0 -20q-8 -13 -26 -32q2 -2 -14.5 -19.5t-28.5 -18.5l-8 -9q-27 -31 -81 -82q-3 -3 -28 -24q-18 -15 -26 -31q-5 0 -13 -13q0 -70 -4 -103
l-19 -10q-3 -4 -6.5 -18.5t-11.5 -16.5q-4 1 -39 -10q-8 4 -8 33q-1 12 2 40q3 24 -1 40q0 65 -9 100q3 6 14 30q7 7 26.5 25.5t28.5 27.5q7 2 17 14t15 15q2 1 59 44q2 1 6 6l20 17q-28 33 -56 67q-34 38 -61 60q-6 8 -13 17.5t-15 9.5h-4t-13 -2q-10 -2 -15 6
q-2 -2 -41 -47q-30 -35 -35 -30l-35 49l1 10q13 12 36 40q16 10 26 39q14 44 16 48q24 22 42 22q12 0 20 -8q5 -5 7 -11zM157 97q2 2 8 -19v-43q-2 -33 -12 -32q-3 5 -19 2q-11 6 -31 5q-23 -1 -31 1q-5 8 -5 22q1 21 1 23h-1q-1 11 4 28q-7 22 2 31q4 3 10 3q2 0 33 -14z
" />
    <glyph glyph-name="at" unicode="@" horiz-adv-x="1070" 
d="M792 305q44 103 44 188q0 80 -39 147q-32 37 -50 50q-32 24 -65 23q-57 49 -153 49q-61 0 -125 -21q-66 -26 -209 -175q-33 -34 -46 -67q-39 -30 -39 -86q0 -13 2 -29q-6 -14 -6 -32q0 -48 38 -122q28 -55 61 -99q64 -82 175 -99q29 -8 62 -8q30 0 81 8q55 9 76 10
q236 107 280 107q13 0 13 -9q0 -11 -26 -42t-51.5 -61.5t-97.5 -53.5q-54 -17 -218 -55q-122 -2 -250 83q-102 67 -179 167q-66 123 -66 239q0 111 66 180q26 19 74 64.5t73 65.5q102 112 266 112q68 0 149 -19q41 -11 83 -21q78 -5 110 -37q13 -8 24 -39q10 -27 13 -51
q32 -44 53 -108q19 -57 19 -97q0 -9 -1 -16q-12 -46 -40 -170q-29 -46 -105.5 -86.5t-129.5 -40.5q-11 0 -43 -11q-24 -9 -29 -7q-13 6 -26 11q-18 10 -18 25q0 10 7 22q-29 -17 -77 -39q-62 -28 -78 -28q-42 0 -81 24q-22 13 -44 25q-24 19 -20 51q-30 44 -30 104
q0 75 44 161q32 64 84 105q58 48 123 48q41 0 78 -21.5t73 -79.5l19 87q17 29 36 29q21 0 38 -29q2 -26 -40 -161q-44 -140 -44 -204q0 -37 12 -60q68 -6 110 34q28 27 40 65zM302 312q0 -42 26 -71q35 -37 109 -37q19 0 39 2q73 40 106 134q18 51 18 102q0 60 -29 100
q-33 46 -90 46q-33 0 -63 -17q-117 -121 -117 -181q0 -9 2.5 -22t2.5 -20q0 -6 -2 -17.5t-2 -18.5z" />
    <glyph glyph-name="A" unicode="A" horiz-adv-x="729" 
d="M631 5q-8 -5 -17 -5q-21 0 -38 20q-41 114 -122 341q-10 12 -31 12q-14 0 -29 -5q-21 -7 -48 -7q-10 0 -29.5 1t-29.5 1q-31 0 -53 -10q-38 -81 -110 -245q4 -10 4 -21q0 -15 -8 -36q-7 -17 -14 -35q-28 -4 -53 -4q-24 0 -53 4q-4 47 32 110q50 88 56 104q44 126 63 177
q38 98 78 171q24 58 69 174q-3 24 15.5 41.5t39.5 6.5q25 -17 33 -58q12 -67 13 -69q18 -28 46 -104q25 -68 54 -102q23 -75 64 -184q34 -92 69 -184q18 -37 18 -57q0 -24 -19 -37zM325 614q-10 -21 -27 -87q-15 -57 -37 -87q11 2 23 2q18 0 56 -6t57 -6q13 0 24 2
q-19 49 -39 98q-25 57 -57 84z" />
    <glyph glyph-name="B" unicode="B" horiz-adv-x="612" 
d="M463 239q-150 -78 -450 -239h-13l5 185q12 5 12 16q0 6 -4.5 19t-4.5 19q3 46 3 97q0 52 -4.5 149.5t-4.5 146.5q0 90 11 167q5 1 11 1q13 0 35 -7q26 -9 35 -10q10 -5 50 -41q30 -27 57 -29q14 -12 105 -70q65 -41 86 -80q-1 -28 -46 -60q-57 -42 -65 -52
q45 -14 95 -74.5t92 -76.5q21 -14 21 -29q0 -18 -26 -32zM374 276v11q-28 23 -120 62q-16 23 -52 43l-60 30q-4 16 13 26q14 9 28 17q29 39 102 92q-32 17 -94 68q-59 48 -93 63q-14 -70 -14 -162q0 -53 6 -160.5t6 -160.5q0 -43 -2 -80z" />
    <glyph glyph-name="C" unicode="C" horiz-adv-x="581" 
d="M444 3q-50 8 -57 37q-233 140 -407 327l60 60q35 34 44 66q38 38 78 58q6 5 133 132q77 77 150 115q8 4 17 4q14 0 25.5 -11t13.5 -23q-19 -47 -86 -99q-84 -66 -106 -93q-10 -19 -48.5 -53t-46.5 -56q-26 -19 -53 -38q-28 -22 -40 -45q14 -50 74 -100q57 -40 114 -81
q59 -57 197 -146q-1 -30 -62 -54z" />
    <glyph glyph-name="D" unicode="D" horiz-adv-x="733" 
d="M615 331q-59 -41 -118 -83q-70 -49 -124 -68q-25 -22 -82 -62.5t-83 -63.5q-40 -9 -81 -18q-48 -11 -69 -36h-58q4 128 8 257q5 150 17 254q2 15 2 32q0 31 -9 92.5t-9 93.5q0 31 6 58q40 13 49 13q13 0 23 -8q17 -26 58 -41q49 -19 63 -31q153 -46 199 -126
q106 -67 242 -205q3 -6 3 -12q0 -13 -13 -24.5t-24 -21.5zM528 377q-33 28 -113 110q-67 68 -119 107q-92 27 -175 84q-10 -46 -10 -101q0 -89 24 -167q-1 -12 -10.5 -40.5t-9.5 -44.5q0 -15 6 -28q-23 -48 -23 -107q0 -44 13 -82l64 18l232 158q33 22 67 43q38 26 54 50z
" />
    <glyph glyph-name="E" unicode="E" horiz-adv-x="568" 
d="M457 12q-142 -1 -440 -12q-12 76 -12 172q0 54 5.5 164t5.5 164q0 109 -16 193l18 86q9 7 23 7q4 0 13 -1t13 -1q11 0 20 5q66 6 171 8q83 2 165 3q10 -10 10 -21q0 -4 -2.5 -14t-2.5 -16t2 -13l-218 -4q-11 -17 -51 -21q-44 -4 -57 -16q8 -132 0 -222q15 -2 31 -2
q46 0 118 25q81 29 117 33q17 -8 17 -30q-1 -32 0 -34q-41 -29 -131 -46q-99 -19 -134 -36q-10 -21 -10 -46q0 -17 6.5 -52t6.5 -52q0 -29 -14 -52q-4 -16 -4 -28q0 -43 73 -43h18h18q45 0 65 -11q55 1 170 -10q5 -15 6 -38v-39z" />
    <glyph glyph-name="F" unicode="F" horiz-adv-x="610" 
d="M470 715q-10 -3 -20 -3q-29 0 -86 35q-24 -2 -100 -16q-59 -10 -98 -10q-27 0 -54 4l-10 -8q3 -27 3 -58q0 -82 -20 -199q59 6 139 28q68 19 136 39q52 -5 58 -27q-12 -36 -49 -50q-19 -8 -74 -15q-51 -6 -76 -18q-21 -2 -85 -22l-38 -8q6 -104 25 -252q11 -9 10 -22
q-1 -19 0 -24q6 -10 7 -32t5 -30q-62 -23 -133 -27q-10 63 -1 154q12 122 12 149q0 64 -17 119q-6 18 -6 39q0 32 17 86q20 65 23 86q-27 18 -27 61q0 6 1 17v18q0 22 -6 36q58 20 147 23q76 2 152 3q20 -1 62 4q46 5 65 5q63 0 85 -38q1 -15 -15.5 -26z" />
    <glyph glyph-name="G" unicode="G" horiz-adv-x="660" 
d="M481 686q-226 -140 -342 -248q-7 -11 -41 -60q128 -148 388 -278q7 30 7 63q0 29 -9 96q-10 64 -8 104q-4 20 -8.5 41.5t-2.5 39.5q62 12 94 -2q-19 -23 -19 -50q0 -20 14.5 -60t14.5 -60q0 -27 -18 -50q1 -35 32 -77q-15 -60 -18 -139q-17 -5 -32 -5q-32 0 -76 34
q-47 37 -76 41q-30 22 -135 89q-83 53 -127 93l-70 60q-40 35 -60 66q40 54 131 123q112 86 159 131q25 26 78 78q22 18 61 50q14 8 31 18q13 16 48 43q27 2 45 -27q26 -26 38 -47q-7 -25 -41 -41z" />
    <glyph glyph-name="H" unicode="H" horiz-adv-x="678" 
d="M485 672q5 -56 5 -130q0 -28 -1 -82t-1 -82q0 -154 24 -254q-2 -8 -2 -16q0 -13 7 -38t7 -38t-5 -24l-50 6q-29 5 -44 23q6 52 6 106q0 58 -7 138q-7 69 -13 138q-48 2 -107 -21q-87 -34 -98 -37q-17 -11 -47 -22q-41 -14 -49 -18q-7 -47 -7 -100q0 -23 3 -92
q2 -60 1 -102q-4 -6 -8 -27q-52 -9 -76 2q-19 14 -19 47q0 13 3 27q26 118 26 260q0 91 -11 217q-11 107 -22 215q25 14 79 32q22 -4 28 -20q3 -9 1 -33q-3 -25 0 -35l-8 -4q7 -4 7 -11t-9.5 -20.5t-10.5 -19.5q7 -77 20 -224q38 -3 106.5 22t106.5 25q12 7 44.5 12.5
t43.5 12.5q20 11 17 35q4 32 4 51q0 66 -42 91q3 25 5 49q3 30 1 48q31 14 103 5q4 -8 4.5 -30.5t5.5 -34.5z" />
    <glyph glyph-name="I" unicode="I" horiz-adv-x="253" 
d="M105 683q17 -161 17 -285q0 -97 -10 -190l5 -174q-26 -34 -53 -34q-7 0 -15 2q-15 11 -15 28q-1 32 -1 34q-1 65 2 180q3 128 3 180q0 210 -35 348q-3 4 -3 8q0 18 33 20q9 -4 24 -4q6 0 18 1t18 1q27 0 37 -16q7 -67 -25 -99z" />
    <glyph glyph-name="J" unicode="J" horiz-adv-x="566" 
d="M398 361l-8 -110q-4 -63 -2 -105q24 -33 24 -45q0 -9 -6.5 -18t-8 -35t-8.5 -35q-10 -15 -42 -13q-5 11 -24 14q-27 4 -31 6q-46 22 -124 98q-69 67 -132 85q-21 17 -36 59q2 3 11 21q6 13 17 18l60 -18q33 -14 36 -41q28 -18 83 -70q49 -47 85 -65l10 8q0 101 -9 293
q-10 187 -9 289q-19 22 -19 51q0 14 5 28q13 24 54 24q16 0 42 -4q40 -18 40 -52q0 -8 -4 -16q-25 -21 -25 -70q0 -8 2 -33q1 -20 0 -31l10 -115q27 -38 27 -73q0 -27 -18 -45z" />
    <glyph glyph-name="K" unicode="K" horiz-adv-x="655" 
d="M508 2q-9 -2 -16 -2q-22 0 -35 27q-15 33 -29 40q-45 34 -110 115t-108 113q-3 6 -6.5 12.5t-11.5 6.5q-29 0 -58 26q-22 22 -45 44q-15 -19 -15 -50q0 -9 1.5 -27t1.5 -27q0 -10 -1 -19q17 -76 17 -134q0 -29 -4 -56q-2 -7 6 -20t8 -17q0 -8 -14 -12q-19 -2 -67 15
q-7 31 -10.5 99t-11.5 101q8 91 3 269q-5 175 2 261q12 0 21 16.5t20 16.5q6 0 13 -3l22 -22v-287l8 -7q43 31 142 123q85 79 149 116q10 6 44 43q25 28 50 28q12 0 26 -4t23 -24q7 -38 -50 -62q-26 2 -35 -12q5 -2 5 -8q0 -5 -5 -7q-1 -1 -143 -119q-87 -71 -152 -113
q46 -30 113 -114q65 -80 119 -110q21 -30 76 -85t76 -85q-1 -13 -3 -25q-2 -15 -16 -21z" />
    <glyph glyph-name="L" unicode="L" horiz-adv-x="566" 
d="M417 4q-128 2 -381 -4q5 27 5 59q0 38 -10 121t-10 126q0 55 11 100l-23 330q-1 2 11 26q10 4 42 24q23 15 40 15q11 0 23 -5q-5 -12 -5 -28q0 -8 1.5 -23.5t1.5 -23.5q0 -31 -22 -49q-1 -74 9.5 -219t10.5 -216q6 -23 7 -72q1 -55 6 -80l72 -6q43 -3 67 -15q22 -1 62 4
q45 5 63 5q43 0 71 -20q1 -5 1 -9q0 -16 -19 -25q-33 -14 -34 -15z" />
    <glyph glyph-name="M" unicode="M" horiz-adv-x="1003" 
d="M893 8q-27 -1 -45 18q-14 18 -28 37q-25 120 -51 240q-30 140 -72 233q-44 -86 -87 -172q-48 -101 -60 -177q-22 -20 -39.5 -66.5t-34.5 -64.5q-25 -3 -29 20q-3 17 -6 35q-67 118 -152 352l-64 82q-17 -43 -31 -116q-23 -121 -23 -122q-20 -53 -36 -152
q-16 -103 -33 -151q-9 -4 -23 -4q-11 0 -35 4t-35 5q0 26 18 69q22 51 26 71l53 233q31 141 41 239q8 13 8 35q0 15 -5.5 47t-5.5 45q0 51 67 48q1 -2 16 -27q10 -16 9 -29q42 -34 59 -115q19 -91 43 -119q20 -25 48 -100q24 -65 60 -95l20 -43q13 18 37.5 65t41.5 71
q14 86 67 202q46 97 91 194q13 0 36 -9.5t37 -8.5q6 -11 6 -23q0 -15 -26 -62q40 -160 81 -319q49 -192 90 -319q1 -7 1 -13q0 -38 -35 -38z" />
    <glyph glyph-name="N" unicode="N" horiz-adv-x="685" 
d="M519 484q0 -74 -17 -226q-15 -145 -14 -218q-29 15 -50 55l-34 66q-24 36 -92 118q-62 73 -88 120q-27 10 -47 33t-24 48l-46 39l-9 -8l-4 -423q20 -12 20 -36q0 -10 -4 -19q-10 -21 -41 -27l-54 -6l-10 11q-1 21 3 63q3 46 3 66q0 45 -11 77q25 94 15 268q-10 189 4 270
q69 5 87 -26q4 -38 38 -77q13 -15 67 -64q24 -60 92 -143q88 -110 106 -138q17 17 17 50q0 6 -1 19v19q0 26 8 43q0 11 2.5 34.5t2.5 35.5q0 40 -26 60q3 18 24 66q18 42 18 68q0 15 -5 29q-15 8 -15 29v34q32 13 95 6q8 -66 8 -87q0 -47 -17 -80z" />
    <glyph glyph-name="O" unicode="O" horiz-adv-x="833" 
d="M443 6q-34 -7 -70 -7q-131 0 -268 98q-101 111 -101 273q0 134 67 276q10 23 67 49.5t70 58.5q85 42 190 42q107 0 203 -43q83 -38 119 -115q25 -57 31 -156q9 -152 11 -161q-27 -106 -110 -193q-91 -96 -209 -122zM664 493q8 15 8 31q0 25 -26 59l-42 55q-77 62 -167 62
q-38 0 -72 -13q-12 3 -24 3q-23 0 -67.5 -13.5t-68.5 -14.5q-68 -82 -105 -175q-2 -17 0 -47q3 -36 3 -48q0 -41 -14 -69q25 -25 43 -80q20 -65 34 -84q28 -42 89 -54q55 -10 102 -10q83 0 140 32q-4 19 17 19h8q6 -1 9 -1q19 0 28 9q100 93 100 183q0 39 -19 75
q7 20 15 41.5t9 39.5z" />
    <glyph glyph-name="P" unicode="P" horiz-adv-x="491" 
d="M429 522q-95 -106 -303 -177q6 -19 6 -40q0 -26 -13.5 -75.5t-13.5 -73.5q0 -29 13 -54q17 -2 17 -14q0 -5 -3.5 -16t-3.5 -16q-4 -5 -4 -21v-23q-1 -7 -4 -12q-13 3 -35 4q-15 0 -41 -1q-29 -1 -37 -1q-7 12 -7 25q0 9 5.5 30.5t4.5 35.5q7 15 10 40q3 20 6 41q2 0 14 9
q-1 134 -1 268q-3 152 -26 267l2 82q28 0 75 -29t76 -30q17 -3 19 -25t12 -22q6 0 16 4q105 -54 216 -176zM325 520q-76 68 -90 80q-54 45 -99 69l-27 4q-1 -12 -1 -25q0 -29 10 -83t10 -81q0 -30 -9 -57q109 20 206 93z" />
    <glyph glyph-name="Q" unicode="Q" horiz-adv-x="756" 
d="M595 291l-4 -1q-6 -19 -49 -69q-38 -44 -38 -69q0 -28 34 -52q27 -39 22 -66q-8 -2 -22.5 -18t-23.5 -16q-7 0 -15 7q-13 13 -26.5 47t-30.5 48q-12 14 -29 14q-13 0 -42 -10t-44 -10q-58 9 -116 19q-67 12 -104 51q-6 4 -39 9q-25 4 -31 20q-37 98 -37 229q0 46 4 100
q73 151 151 225q30 4 98 29q61 22 99 22q13 0 25 -2l126 -92q70 -59 70 -119q0 -17 -5 -34q14 -55 28 -109q16 -67 19 -116q-7 -8 -14.5 -17.5t-5.5 -19.5zM523 341q-1 7 3.5 23.5t4.5 23.5q0 17 -21 24q4 14 4 28q0 15 -5 41t-6 38l8 7q-2 6 -19 59q-12 36 -29 55
q-81 93 -204 85q-129 -55 -184 -226q-2 -91 -2 -82q0 -144 71 -205q76 -54 181 -54q23 0 46 3q-21 13 -40 42q-30 46 -32 49l56 56q17 -13 46 -46t47 -48q51 57 75 127z" />
    <glyph glyph-name="R" unicode="R" horiz-adv-x="638" 
d="M546 39q-10 1 -25.5 -6t-22.5 -7q-8 0 -15 5q-16 24 -60 58q-52 40 -67 56q-9 14 -17 27q-11 17 -28 19q-25 20 -60 68.5t-55 66.5q-36 32 -83 37q-1 -25 -1 -55q0 -37 3 -117t3 -121q0 -32 -1 -59q-27 -15 -64 -15q-18 0 -35 4l-18 20q5 13 5 32q0 5 -1 16v16
q0 41 33 57q2 29 -10 84q-13 59 -13 85q0 44 23 76q-25 48 -15 149q11 110 -4 156q0 32 1 63q3 37 36 46q145 -39 220 -79q116 -63 145 -159q-27 -38 -85 -77l-100 -64v-23q84 -120 333 -324q-3 -9 -7.5 -19t-14.5 -16zM343 562q-35 85 -212 132q-26 -41 -21 -123
q6 -99 -2 -130q63 24 185 78z" />
    <glyph glyph-name="S" unicode="S" horiz-adv-x="476" 
d="M280 684h-12q-28 -40 -80 -98q-79 -87 -86 -96q114 -78 187 -202q-1 -31 -45 -64q-51 -37 -59 -58q-23 -10 -38 -39q-18 -35 -29 -44q-32 -27 -63 -54q-39 -29 -76 -29q-14 0 -28 4q-6 58 76 115q114 52 170 165l-8 48q-52 39 -103 77q-63 47 -88 89q-4 22 21 46
q33 31 37 40q35 49 104 111q59 53 117 105q25 -8 70 -18q-10 -80 -67 -98z" />
    <glyph glyph-name="T" unicode="T" horiz-adv-x="677" 
d="M584 709q-29 -8 -95 -1q-62 5 -95 -6l-71 -5q-19 -28 -19 -67q0 -21 8.5 -66t8.5 -68q0 -32 -12 -58q-4 -19 -4 -41q0 -25 9.5 -76t9.5 -78q0 -33 -11 -63q-3 -45 -6 -89q-5 -56 -27 -87q-4 1 -10 1t-19 -2.5t-20 -2.5q-13 0 -22 8q-8 44 -2.5 148t-2.5 152q1 26 9 95
q6 62 6 98q0 73 -24 126q3 11 8 31.5t7 30.5q-34 13 -82 13q1 0 -89 -5v5q-27 14 -43 -5v5q-17 -2 -47 3q-5 11 -5 26q0 26 19 69q43 -5 191 -10q117 -3 174 -19q35 -2 99 6q71 9 98 9q33 0 59 -7q10 -9 10 -22q0 -7 -5 -23.5t-5 -24.5z" />
    <glyph glyph-name="U" unicode="U" horiz-adv-x="722" 
d="M531 396q3 -50 -14 -124q-21 -88 -23 -120q-17 -17 -37.5 -56.5t-35.5 -54.5q-25 -25 -66 -29q-39 -12 -88 -12q-67 0 -129 21q-72 39 -101 104q-22 51 -22 132q0 26 2.5 78t2.5 78q0 79 -20 130q-1 64 18 220l79 17q4 -11 4 -25q0 -15 -8 -51q-7 -32 -5 -48
q6 -53 17 -254q8 -161 28 -254q31 -52 125 -56q33 3 67 6.5t49 25.5q19 21 69 108q9 59 9 137q0 38 -3 115t-3 115q0 37 2 68q3 7 3 14q0 14 -18.5 34t-18.5 32q0 8 6 16q-4 8 -4 13q0 13 19 18q2 1 36 6q58 2 106 -13q0 -64 -26 -200q-24 -125 -20 -191z" />
    <glyph glyph-name="V" unicode="V" horiz-adv-x="736" 
d="M556 668q-63 -167 -126 -335q-74 -195 -132 -333q-27 3 -37 23q-6 11 -9 40.5t-9 41.5q-71 319 -173 551q-39 1 -52 25q-8 15 -9 52.5t-9 52.5q12 14 36 14q12 0 34 -4q27 -6 33 -7q4 -50 51 -144q44 -92 47 -147q14 -57 46 -139l52 -136q37 33 47 90q4 50 9 101
q8 58 42 92q32 23 46 76q15 61 34 82q4 96 79 125q37 3 56 -36q-3 -18 -27 -45t-29 -40z" />
    <glyph glyph-name="W" unicode="W" horiz-adv-x="1007" 
d="M857 715q2 -9 2 -18q0 -48 -55 -94q-38 -127 -109 -204q-3 -39 -34 -111q-36 -81 -43 -117q-16 -27 -36.5 -85t-37.5 -86q-36 0 -46 25q-5 13 -5 55q-1 38 -11 53q-15 7 -16 27q1 14 1 28q-3 11 -32 91q-20 53 -18 91q-58 -118 -174 -356q-29 68 -77 262q-42 170 -92 259
q-22 53 -44 107q-24 62 -30 112q12 15 36 21q20 5 41 9q29 -12 37 -39q4 -12 6 -51q1 -32 11 -48q33 -52 50 -133q13 -72 26 -143q15 -26 33 -78q23 -63 30 -79q8 11 43 91q5 27 37 90q28 57 28 91q0 28 -15 55q-4 6 -72 109q-44 65 -58 114q45 28 96 37q28 -34 51 -104
q26 -79 45 -108q15 25 45 91q26 59 47 89q15 3 44 -1q40 -5 43 -5q-10 -14 -38 -71q-22 -44 -45 -66q-13 -15 -24.5 -54.5t-28.5 -56.5q11 -62 34 -155q33 -135 37 -153q33 30 50.5 95t46.5 93q15 30 36 115q19 74 45 112q4 6 39 81q23 49 59 71l73 -10z" />
    <glyph glyph-name="X" unicode="X" horiz-adv-x="667" 
d="M323 407q84 -168 145 -324q28 -9 37 -29q4 -9 10 -42l-8 -11l-79 -1q-27 25 -49.5 86t-45.5 84q13 9 13 24q0 6 -6 27q-14 19 -31 60.5t-30 60.5q-24 -44 -47 -89q-27 -53 -36 -92q-40 -47 -47 -55q-24 -32 -33 -62q-11 -22 -33 -22q-12 0 -40.5 10t-42.5 10q8 44 60 102
q35 6 52 43q23 50 32 59q8 22 56 80q40 48 40 81q0 17 -9 34q-32 29 -59 83q-41 84 -44 88q1 20 -19.5 35t-40.5 28q0 19 -9.5 53.5t-9.5 49.5q10 0 32.5 3.5t33.5 3.5q32 0 42 -26q-2 -10 12.5 -25.5t14.5 -22.5q0 -8 -9 -16l104 -188q38 52 91 146q63 108 88 147
q82 0 87 -1q-157 -211 -222 -392z" />
    <glyph glyph-name="Y" unicode="Y" horiz-adv-x="673" 
d="M511 710q-39 -31 -64 -93q-33 -81 -45 -99q-62 -129 -125 -258q-70 -148 -117 -260l-96 2q-5 17 -5 32q0 50 72 117q76 69 81 119q3 23 28 75q23 48 23 74q0 36 -33.5 65.5t-72.5 87.5q-49 75 -63 93q-41 50 -94 75q8 33 3 56q10 4 23 4q6 0 35 -3q23 -3 37 0
q51 -41 97 -119q60 -103 79 -126q7 -25 8 -25q5 -14 16 -22q33 55 76 138q36 71 72 141q16 14 57 14q3 0 57 -4l-6 -56q-7 -32 -43 -28z" />
    <glyph glyph-name="Z" unicode="Z" horiz-adv-x="745" 
d="M621 19q-22 1 -60 -4.5t-54 -5.5q-30 0 -54 11q-35 -1 -130 -7q-89 -6 -139 -6q-60 0 -108 7q-10 -10 -33 -11q-30 -1 -36 -3l-35 25q36 55 126 217q78 138 134 217q34 25 74 91q43 71 73 99l19 51q-15 5 -39 5q-10 0 -31 -1t-31 -1q-22 0 -37 3q-14 12 -39 12
q-18 0 -34 -5q-32 -24 -90 -33q-49 -4 -97 -9l-9 9q3 7 3 17q0 11 -6.5 35t-6.5 36q0 8 2 14q9 6 38 9.5t41 8.5q53 -11 150 -13q147 -2 159 -3l24 10q14 1 29 1q54 0 144 -19l-38 -74q-23 -43 -57 -60q-194 -278 -275 -422q-6 -25 -32 -61q-31 -43 -38 -59q226 -13 247 -13
q117 0 209 25l54 -3q-4 -30 -17 -90z" />
    <glyph glyph-name="bracketleft" unicode="[" horiz-adv-x="350" 
d="M281 -59q-41 -8 -86 -8q-27 0 -152 16q12 64 12 148q0 42 -4 133q-4 86 -4 132q0 10 -3 15q-10 15 -23 45q26 271 22 397l233 22l1 -51l-34 -38l-108 12q-8 -221 -4 -255l18 -149q2 -16 2 -32q0 -38 -12.5 -94t-11.5 -74q28 -60 28 -96q0 -30 -18 -37q102 -8 152 16z" />
    <glyph glyph-name="backslash" unicode="\" horiz-adv-x="327" 
d="M204 581q-4 -24 -40 -131q-32 -93 -32 -160q0 -38 9 -76l-59 -200q3 2 5 2q10 0 -7 -22t-44 -22q-17 0 -36 11q-6 7 -6 20q0 15 11 46.5t11 40.5q7 53 68 309q54 233 63 360q-5 14 28 59t46 42q8 -38 8 -83q0 -56 -14 -124.5l-14 -68.5q0 -4 3 -3z" />
    <glyph glyph-name="bracketright" unicode="]" horiz-adv-x="371" 
d="M286 -52q10 47 10 222q0 108 -5 335q-5 237 -5 312l-233 23l-1 -52l34 -37h129q1 -40 -9 -114q-10 -78 -10 -103q0 -15 2 -27l23 -153q4 -26 4 -88q0 20 -7 -236q-69 13 -105 13q-43 0 -72 -13q-16 -29 -16 -51q0 -26 23 -40q27 -4 68 -4q70 0 170 13z" />
    <glyph glyph-name="asciicircum" unicode="^" horiz-adv-x="514" 
d="M334 350q-24 65 -48 131q-57 142 -93 186q-13 -29 -23 -75q-22 -34 -25 -50l-4 -48q-5 -10 -32 -73q-19 -43 -51 -80l-33 -6q-20 0 -20 15q0 4 1 8q48 183 72 214q-1 26 20 62q15 23 29 47q8 5 20 40q9 29 40 38q64 -44 133 -195q48 -109 95 -217q-2 5 -16 -3
q-18 -10 -31 -10q-17 0 -34 16z" />
    <glyph glyph-name="underscore" unicode="_" horiz-adv-x="620" 
d="M9 19q-13 9 -13 20q0 10 19 38q37 2 115 3q17 0 45 -3q24 -2 31 -2l132 11q15 1 29 1q48 0 69 -15q22 0 50.5 2.5l28.5 2.5q22 -19 22 -39q0 -19 -22 -31q-15 2 -88 3q-79 2 -101 -1l-121 -15q-2 -1 -11 -1q-63 0 -185 26z" />
    <glyph glyph-name="grave" unicode="`" horiz-adv-x="309" 
d="M67 825l120 -112l-24 -35l-105 54q-32 -7 -54 28q-3 6 -3 13q0 39 66 52z" />
    <glyph glyph-name="a" unicode="a" horiz-adv-x="724" 
d="M625 5q-7 -5 -16 -5q-22 0 -39 20q-41 114 -122 341q-10 12 -31 12q-14 0 -29 -5q-20 -7 -47 -7q-11 0 -30.5 1t-28.5 1q-32 0 -54 -10q-38 -81 -110 -245q5 -10 5 -21q0 -15 -8 -36q-7 -17 -15 -35q-28 -4 -52 -4t-54 4q-3 47 33 110q50 88 55 104q44 126 64 177
q38 98 77 171q24 58 69 174q-3 24 14 40q21 19 41 8q25 -17 33 -58q13 -67 13 -69q19 -28 47 -104q24 -68 53 -102q23 -75 64 -184q35 -92 69 -184q19 -37 19 -57q0 -24 -20 -37zM319 614q-10 -21 -27 -87q-15 -57 -37 -87q11 2 24 2q17 0 55 -6t57 -6q13 0 24 2l-38 98
q-25 57 -58 84z" />
    <glyph glyph-name="b" unicode="b" horiz-adv-x="603" 
d="M463 239q-150 -78 -450 -239h-13l5 185q12 5 12 16q0 6 -4.5 19t-4.5 19q3 46 3 97q0 52 -4.5 149.5t-4.5 146.5q0 90 11 167q5 1 11 1q13 0 35 -7q26 -9 35 -10q10 -5 50 -41q30 -27 57 -29q14 -12 105 -70q65 -41 86 -80q-1 -28 -46 -60q-57 -42 -65 -52
q45 -14 95 -74.5t92 -76.5q21 -14 21 -29q0 -18 -26 -32zM374 278v11q-28 22 -120 62q-15 22 -51 43q-31 15 -61 30q-4 15 13 26q14 8 28 17q30 38 102 92q-31 16 -94 68q-58 48 -93 63q-14 -70 -14 -162q0 -53 6.5 -160.5t6.5 -160.5q0 -43 -3 -80z" />
    <glyph glyph-name="c" unicode="c" horiz-adv-x="593" 
d="M405 0q-50 8 -57 37q-233 140 -407 327q30 30 61 60q34 35 43 66q38 38 78 58q6 5 134 133q76 76 149 114q8 4 17 4q15 0 26 -11t13 -23q-19 -46 -86 -99q-84 -66 -106 -93q-9 -19 -48 -53t-47 -56l-52 -38q-29 -22 -41 -45q14 -50 75 -99q56 -41 113 -82
q59 -57 197 -146q-1 -30 -62 -54z" />
    <glyph glyph-name="d" unicode="d" horiz-adv-x="748" 
d="M615 331q-59 -41 -118 -83q-70 -49 -124 -68q-25 -22 -82 -62.5t-83 -63.5q-40 -9 -81 -18q-48 -11 -69 -36h-58q4 128 8 257q5 150 17 254q2 15 2 32q0 31 -9 92.5t-9 93.5q0 31 6 58q40 13 49 13q13 0 23 -8q17 -26 58 -41q49 -19 63 -31q153 -46 199 -126
q106 -67 242 -205q3 -6 3 -12q0 -13 -13 -24.5t-24 -21.5zM528 377q-33 28 -113 110q-67 68 -119 107q-92 27 -175 84q-10 -46 -10 -101q0 -89 24 -167q-1 -12 -10.5 -40.5t-9.5 -44.5q0 -15 6 -28q-23 -48 -23 -107q0 -44 13 -82l64 18l232 158q33 22 67 43q38 26 54 50z
" />
    <glyph glyph-name="e" unicode="e" horiz-adv-x="555" 
d="M450 12q-142 -1 -440 -12q-12 76 -12 172q0 54 5.5 164t5.5 164q0 109 -16 193l18 86q9 7 23 7q4 0 13 -1t13 -1q11 0 20 5q66 6 171 8q83 2 165 3q10 -10 10 -21q0 -4 -2.5 -14t-2.5 -16t2 -13l-218 -4q-11 -17 -51 -21q-44 -4 -57 -16q8 -132 0 -222q15 -2 31 -2
q46 0 118 25q81 29 117 33q17 -8 17 -30q-1 -32 0 -34q-41 -29 -131 -46q-99 -19 -134 -36q-10 -21 -10 -46q0 -17 6.5 -52t6.5 -52q0 -29 -14 -52q-4 -16 -4 -28q0 -43 73 -43h18h18q45 0 65 -11q55 1 170 -10q5 -15 6 -38v-39z" />
    <glyph glyph-name="f" unicode="f" horiz-adv-x="608" 
d="M469 715q-10 -3 -21 -3q-29 0 -85 35q-24 -2 -101 -16q-59 -10 -98 -10q-27 0 -53 4l-10 -8q2 -27 2 -58q0 -82 -19 -199q58 6 138 28q68 19 137 39q51 -5 58 -27q-13 -36 -49 -50q-19 -8 -72.5 -14.5t-77.5 -18.5q-21 -2 -85 -22l-38 -8q6 -104 25 -252q11 -9 10 -22
q-2 -19 0 -24q6 -10 7 -32t5 -30q-62 -23 -133 -27q-10 63 -2 154q12 122 12 149q0 64 -16 119q-6 18 -6 39q0 32 16 86q20 65 24 86q-27 18 -27 61v17q1 12 1 18q0 22 -6 36q57 20 146 23q76 2 153 3q19 -1 61 4q46 5 66 5q62 0 85 -38q1 -15 -15.5 -26z" />
    <glyph glyph-name="g" unicode="g" horiz-adv-x="706" 
d="M451 686q-225 -140 -342 -248q-7 -11 -41 -60q128 -148 388 -278q8 29 8 63q0 28 -10 96q-9 64 -8 104q-4 20 -8 39q-4 24 -3 42q63 11 94 -2q-18 -23 -18 -51q0 -20 14 -59.5t14 -59.5q0 -27 -18 -50q1 -36 32 -77q-15 -60 -18 -139q-17 -6 -32 -6q-31 0 -77 36t-75 40
q-29 22 -134 89q-84 53 -128 93l-70 60q-40 35 -60 66q41 54 131 122q113 86 159 132q25 26 78 78q22 18 61 50q14 8 31 18q13 15 48 43q28 2 45 -27q27 -27 38 -47q-7 -26 -41 -42q-29 -12 -58 -25z" />
    <glyph glyph-name="h" unicode="h" horiz-adv-x="630" 
d="M476 672q5 -56 5 -130q0 -28 -1 -82t-1 -82q0 -154 24 -254q-2 -8 -2 -16q0 -13 7 -38t7 -38t-5 -24l-50 6q-29 5 -44 23q6 52 6 106q0 58 -7 138q-7 69 -13 138q-48 2 -107 -21q-87 -34 -98 -37q-17 -11 -47 -22q-41 -14 -49 -18q-7 -47 -7 -100q0 -23 3 -92
q2 -60 1 -102q-4 -6 -8 -27q-52 -9 -76 2q-19 14 -19 47q0 13 3 27q26 118 26 260q0 91 -11 217q-11 107 -22 215q25 14 79 32q22 -4 28 -20q3 -9 1 -33q-3 -25 0 -35l-8 -4q7 -4 7 -11t-9.5 -20.5t-10.5 -19.5q7 -77 20 -224q38 -3 106.5 22t106.5 25q12 7 44.5 12.5
t43.5 12.5q20 11 17 35q4 32 4 51q0 66 -42 91q3 25 5 49q3 30 1 48q31 14 103 5q4 -8 4.5 -30.5t5.5 -34.5z" />
    <glyph glyph-name="i" unicode="i" horiz-adv-x="276" 
d="M129 683q17 -161 17 -285q0 -97 -10 -190l5 -174q-26 -34 -53 -34q-7 0 -15 2q-15 11 -15 28q-1 32 -1 34q-1 65 2 180q3 128 3 180q0 210 -35 348q-3 4 -3 8q0 18 33 20q9 -4 24 -4q6 0 18 1t18 1q27 0 37 -16q7 -67 -25 -99z" />
    <glyph glyph-name="j" unicode="j" horiz-adv-x="566" 
d="M398 361l-8 -110q-4 -63 -2 -105q24 -33 24 -45q0 -9 -6.5 -18t-8 -35t-8.5 -35q-10 -15 -42 -13q-5 11 -24 14q-27 4 -31 6q-46 22 -124 98q-69 67 -132 85q-21 17 -36 59q2 3 11 21q6 13 17 18l60 -18q33 -14 36 -41q28 -18 83 -70q49 -47 85 -65l10 8q0 101 -9 293
q-10 187 -9 289q-19 22 -19 51q0 14 5 28q13 24 54 24q16 0 42 -4q40 -18 40 -52q0 -8 -4 -16q-25 -21 -25 -70q0 -8 2 -33q1 -20 0 -31l10 -115q27 -38 27 -73q0 -27 -18 -45z" />
    <glyph glyph-name="k" unicode="k" horiz-adv-x="655" 
d="M508 2q-9 -2 -16 -2q-22 0 -35 27q-15 33 -29 40q-45 34 -110 115t-108 113q-3 6 -6.5 12.5t-11.5 6.5q-29 0 -58 26q-22 22 -45 44q-15 -19 -15 -50q0 -9 1.5 -27t1.5 -27q0 -10 -1 -19q17 -76 17 -134q0 -29 -4 -56q-2 -7 6 -20t8 -17q0 -8 -14 -12q-19 -2 -67 15
q-7 31 -10.5 99t-11.5 101q8 91 3 269q-5 175 2 261q12 0 21 16.5t20 16.5q6 0 13 -3l22 -22v-287l8 -7q43 31 142 123q85 79 149 116q10 6 44 43q25 28 50 28q12 0 26 -4t23 -24q7 -38 -50 -62q-26 2 -35 -12q5 -2 5 -8q0 -5 -5 -7q-1 -1 -143 -119q-87 -71 -152 -113
q46 -30 113 -114q65 -80 119 -110q21 -30 76 -85t76 -85q-1 -13 -3 -25q-2 -15 -16 -21z" />
    <glyph glyph-name="l" unicode="l" horiz-adv-x="566" 
d="M417 4q-128 2 -381 -4q5 27 5 59q0 38 -10 121t-10 126q0 55 11 100l-23 330q-4 3 -7.5 7t-1.5 9q6 3 51 29q32 19 53 19q11 0 21 -4q-5 -12 -5 -28q0 -8 1.5 -23.5t1.5 -23.5q0 -31 -22 -49q-1 -74 9.5 -219t10.5 -216q6 -23 7 -72q1 -55 6 -80l72 -6q43 -3 67 -15
q22 -1 62 4q45 5 63 5q43 0 71 -20q1 -5 1 -9q0 -16 -19 -25q-33 -14 -34 -15z" />
    <glyph glyph-name="m" unicode="m" horiz-adv-x="1065" 
d="M880 8q-27 -1 -45 18q-14 19 -28 37q-25 120 -51 240q-30 140 -72 233q-44 -86 -87 -172q-48 -101 -60 -177q-22 -20 -39 -65q-18 -48 -35 -66q-25 -2 -29 20q-3 18 -6 35q-67 118 -152 352l-64 82q-17 -43 -31 -116q-23 -121 -23 -122q-20 -52 -36 -151
q-16 -103 -33 -152q-9 -4 -23 -4q-11 0 -35 4.5t-35 4.5q0 26 18 69q22 51 26 71l53 234q31 140 41 238q8 14 8 36q0 15 -5.5 46.5t-5.5 44.5q0 52 67 48q1 -2 16 -26q10 -16 9 -30q42 -33 59 -115q19 -90 43 -119q20 -25 48 -99q24 -66 60 -96l20 -43q13 19 37.5 66
t41.5 70q14 86 67 202q46 97 91 194q13 0 36 -9.5t37 -8.5q6 -10 6 -22q0 -15 -26 -63q40 -159 81 -319q49 -192 90 -319q1 -6 1 -12q0 -38 -35 -39z" />
    <glyph glyph-name="n" unicode="n" horiz-adv-x="680" 
d="M514 484q0 -74 -17 -226q-15 -145 -14 -218q-29 15 -50 55l-34 66q-24 36 -92 118q-62 73 -88 120q-27 10 -47 33t-24 48l-46 39l-9 -8l-4 -423q20 -12 20 -36q0 -10 -4 -19q-10 -21 -41 -27l-54 -6l-10 11q-1 21 3 63q3 46 3 66q0 45 -11 77q25 94 15 268q-10 189 4 270
q69 5 87 -26q4 -38 38 -77q13 -15 67 -64q24 -60 92 -143q88 -110 106 -138q17 17 17 50q0 6 -1 19v19q0 26 8 43q0 11 2.5 34.5t2.5 35.5q0 40 -26 60q3 18 24 66q18 42 18 68q0 15 -5 29q-15 8 -15 29v34q32 13 95 6q8 -66 8 -87q0 -47 -17 -80z" />
    <glyph glyph-name="o" unicode="o" horiz-adv-x="834" 
d="M425 14q-34 -8 -70 -8q-131 0 -268 99q-101 110 -101 272q0 135 67 277q10 23 67 49t70 59q85 42 190 42q107 0 203 -43q83 -38 119 -116q25 -56 31 -156q9 -152 11 -160q-27 -107 -110 -194q-91 -95 -209 -121zM646 501q8 15 8 30q0 25 -26 59q-42 55 -42 56
q-77 62 -167 62q-38 0 -72 -13q-12 2 -24 2q-23 0 -67.5 -13.5t-68.5 -13.5q-68 -83 -105 -175q-2 -18 0 -48q3 -36 3 -48q0 -41 -14 -68q25 -26 43 -81q20 -64 34 -84q28 -42 89 -53q55 -11 102 -11q83 0 140 33q-4 18 17 18h8.5h8.5q19 0 28 9q100 92 100 182q0 39 -19 76
q7 19 15 40.5t9 40.5z" />
    <glyph glyph-name="p" unicode="p" horiz-adv-x="550" 
d="M435 522q-95 -106 -303 -177q6 -19 6 -40q0 -26 -13.5 -75.5t-13.5 -73.5q0 -29 13 -54q17 -2 17 -14q0 -5 -3.5 -16t-3.5 -16q-4 -5 -4 -21v-23q-1 -7 -4 -12q-13 3 -35 4q-15 0 -41 -1q-29 -1 -37 -1q-7 12 -7 25q0 9 5.5 30.5t4.5 35.5q7 15 10 40q3 20 6 41q2 0 14 9
q-1 134 -1 268q-3 152 -26 267l2 82q28 0 75 -29t76 -30q17 -3 19 -25t12 -22q6 0 16 4q105 -54 216 -176zM331 520q-76 68 -90 80q-54 45 -99 69l-27 4q-1 -12 -1 -25q0 -29 10 -83t10 -81q0 -30 -9 -57q109 20 206 93z" />
    <glyph glyph-name="q" unicode="q" horiz-adv-x="721" 
d="M560 291l-4 -1q-6 -19 -49 -69q-39 -44 -39 -69q0 -28 35 -52q27 -39 22 -66q-8 -2 -23 -18t-24 -16q-7 0 -14 7q-14 13 -27 47t-30 48q-12 14 -30 14q-12 0 -41 -10t-44 -10q-58 9 -116 19q-68 12 -104 51q-6 4 -39 9q-25 4 -31 20q-37 98 -37 229q0 46 4 100
q73 151 151 225q29 4 98 29q61 22 99 22q13 0 25 -2l126 -92q70 -59 70 -119q0 -17 -5 -34q14 -55 27 -109q16 -67 20 -116q-7 -8 -14.5 -17.5t-5.5 -19.5zM488 341q-1 7 3.5 23.5t4.5 23.5q0 17 -21 24q3 14 3 28q0 15 -4.5 41t-5.5 38l8 7q-3 6 -20 59q-11 36 -28 55
q-82 93 -204 85q-129 -55 -184 -226q-2 -91 -2 -82q0 -144 71 -205q76 -54 180 -54q24 0 47 3q-21 13 -40 42q-30 46 -32 49l56 56q16 -13 45.5 -46t47.5 -48q50 57 75 127z" />
    <glyph glyph-name="r" unicode="r" horiz-adv-x="678" 
d="M546 39q-10 1 -25.5 -6t-22.5 -7q-8 0 -15 5q-16 24 -60 58q-52 40 -67 56q-9 14 -17 27q-11 17 -28 19q-25 20 -60 68.5t-55 66.5q-36 32 -83 37q-1 -25 -1 -55q0 -37 3 -117t3 -121q0 -32 -1 -59q-27 -15 -64 -15q-18 0 -35 4l-18 20q5 13 5 32q0 5 -1 16v16
q0 41 33 57q2 29 -10 84q-13 59 -13 85q0 44 23 76q-25 48 -15 149q11 110 -4 156q0 32 1 63q3 37 36 46q145 -39 220 -79q116 -63 145 -159q-27 -38 -85 -77l-100 -64v-23q84 -120 333 -324q-3 -9 -7.5 -19t-14.5 -16zM343 562q-35 85 -212 132q-26 -41 -21 -123
q6 -99 -2 -130q63 24 185 78z" />
    <glyph glyph-name="s" unicode="s" horiz-adv-x="476" 
d="M280 684h-12q-28 -40 -80 -98q-78 -87 -86 -96q114 -78 187 -202q-1 -31 -45 -64q-50 -37 -59 -58q-23 -10 -38 -39q-17 -35 -29 -44q-31 -27 -63 -54q-38 -29 -75 -29q-14 0 -29 4q-6 58 76 115q114 52 170 165l-8 48q-51 39 -103 77q-62 47 -88 89q-4 22 21 46
q33 31 37 40q36 49 105 111q58 53 116 105q25 -8 70 -18q-9 -80 -67 -98z" />
    <glyph glyph-name="t" unicode="t" horiz-adv-x="648" 
d="M575 709q-29 -8 -95 -2q-62 6 -95 -5l-71 -5q-19 -29 -19 -67q0 -21 8.5 -66t8.5 -69q0 -31 -12 -57q-4 -20 -4 -41q0 -26 9.5 -76.5t9.5 -77.5q0 -34 -11 -63l-6 -90q-5 -56 -27 -86q-4 1 -10 1t-19 -2.5t-20 -2.5q-13 0 -22 8q-8 44 -2.5 148t-2.5 152q1 26 9 95
q6 62 6 97q0 74 -24 127q3 10 8 30.5t7 31.5q-34 13 -82 13q1 0 -89 -5v5q-27 13 -43 -5v5q-17 -2 -47 3q-5 11 -5 25q0 27 19 70q43 -6 191 -10q117 -3 174 -19q35 -3 99 6q71 9 98 9q33 0 59 -7q10 -9 10 -22q0 -8 -5 -24t-5 -24z" />
    <glyph glyph-name="u" unicode="u" horiz-adv-x="714" 
d="M526 396q3 -50 -14 -124q-21 -88 -23 -120q-17 -17 -37.5 -56.5t-35.5 -54.5q-25 -25 -66 -29q-39 -12 -88 -12q-67 0 -129 21q-72 39 -101 104q-22 51 -22 132q0 26 2.5 78t2.5 78q0 79 -20 130q-1 64 18 220l79 17q4 -11 4 -25q0 -15 -8 -51q-7 -32 -5 -48
q6 -53 17 -254q8 -161 28 -254q31 -52 125 -56q33 3 67 6.5t49 25.5q19 19 69 108q9 59 9 137q0 38 -3 115t-3 115q0 37 2 68q3 7 3 14q0 14 -18.5 34t-18.5 32q0 8 6 16q-4 8 -4 13q0 13 19 18q2 1 36 6q58 2 106 -13q0 -64 -26 -200q-24 -125 -20 -191z" />
    <glyph glyph-name="v" unicode="v" horiz-adv-x="735" 
d="M556 668q-63 -167 -126 -335q-74 -195 -132 -333q-27 3 -37 23q-6 11 -9 40.5t-9 41.5q-71 319 -173 551q-39 1 -52 25q-8 15 -9 52.5t-9 52.5q12 14 36 14q12 0 34 -4q27 -6 33 -7q4 -50 51 -144q44 -92 47 -147q14 -57 46 -139l52 -136q37 33 47 90q4 50 9 101
q8 58 42 92q32 23 46 76q15 61 34 82q4 96 79 125q37 3 56 -36q-3 -18 -27 -45t-29 -40z" />
    <glyph glyph-name="w" unicode="w" horiz-adv-x="1006" 
d="M857 715q2 -9 2 -18q0 -48 -55 -94q-38 -127 -109 -204q-3 -39 -34 -111q-36 -81 -43 -117q-16 -27 -36.5 -85t-37.5 -86q-36 0 -46 25q-5 13 -5 55q-1 38 -11 53q-15 7 -16 27q1 14 1 28q-3 11 -32 91q-20 53 -18 91q-58 -118 -174 -356q-29 68 -77 262q-42 170 -92 259
q-22 53 -44 107q-24 62 -30 112q12 15 36 21q20 5 41 9q29 -12 37 -39q4 -12 6 -51q1 -32 11 -48q33 -52 50 -133q13 -72 26 -143q15 -26 33 -78q23 -63 30 -79q8 11 43 91q5 27 37 90q28 57 28 91q0 28 -15 55q-4 6 -72 109q-44 65 -58 114q45 28 96 37q28 -34 51 -104
q26 -79 45 -108q15 25 45 91q26 59 47 89q15 3 44 -1q40 -5 43 -5q-10 -14 -38 -71q-22 -44 -45 -66q-13 -15 -24.5 -54.5t-28.5 -56.5q11 -62 34 -155q33 -135 37 -153q33 30 50.5 95t46.5 93q15 30 36 115q19 74 45 112q4 6 39 81q23 49 59 71l73 -10z" />
    <glyph glyph-name="x" unicode="x" horiz-adv-x="663" 
d="M323 407q84 -168 145 -324q28 -9 37 -29q4 -9 10 -42l-8 -11l-79 -1q-27 25 -49.5 86t-45.5 84q13 9 13 24q0 6 -6 27q-14 19 -31 60.5t-30 60.5q-24 -44 -47 -89q-27 -53 -36 -92q-40 -47 -47 -55q-24 -32 -33 -62q-11 -22 -33 -22q-12 0 -40.5 10t-42.5 10q8 44 60 102
q35 6 52 43q23 50 32 59q8 22 56 80q40 48 40 81q0 17 -9 34q-32 29 -59 83q-41 84 -44 88q1 20 -19.5 35t-40.5 28q0 19 -9.5 53.5t-9.5 49.5q10 0 32.5 3.5t33.5 3.5q32 0 42 -26q-2 -10 12.5 -25.5t14.5 -22.5q0 -8 -9 -16l104 -188q38 52 91 146q63 108 88 147
q82 0 87 -1q-157 -211 -222 -392z" />
    <glyph glyph-name="y" unicode="y" horiz-adv-x="672" 
d="M511 710q-39 -31 -64 -93q-33 -81 -45 -99q-62 -129 -125 -258q-70 -148 -117 -260l-96 2q-5 17 -5 32q0 50 72 117q76 69 81 119q3 23 28 75q23 48 23 74q0 36 -33.5 65.5t-72.5 87.5q-49 75 -63 93q-41 50 -94 75q8 33 3 56q10 4 23 4q6 0 35 -3q23 -3 37 0
q51 -41 97 -119q60 -103 79 -126q7 -25 8 -25q5 -14 16 -22q33 55 76 138q36 71 72 141q16 14 57 14q3 0 57 -4l-6 -56q-7 -32 -43 -28z" />
    <glyph glyph-name="z" unicode="z" horiz-adv-x="774" 
d="M649 19q-22 1 -60 -4.5t-54 -5.5q-30 0 -54 11q-35 -1 -130 -7q-89 -6 -139 -6q-60 0 -108 7q-10 -10 -33 -11q-30 -1 -36 -3l-35 25q36 55 126 217q78 138 134 217q34 25 74 91q43 71 73 99l19 51q-15 5 -39 5q-10 0 -31 -1t-31 -1q-22 0 -37 3q-14 12 -39 12
q-18 0 -34 -5q-32 -24 -90 -33q-49 -4 -97 -9l-9 9q3 7 3 17q0 11 -6.5 35t-6.5 36q0 8 2 14q9 6 38 9.5t41 8.5q53 -11 150 -13q147 -2 159 -3l24 10q14 1 29 1q54 0 144 -19l-38 -74q-23 -43 -57 -60q-194 -278 -275 -422q-6 -25 -32 -61q-31 -43 -38 -59q226 -13 247 -13
q117 0 209 25l54 -3q-4 -30 -17 -90z" />
    <glyph glyph-name="braceleft" unicode="{" horiz-adv-x="350" 
d="M284 769q-32 -14 -58 -69q-24 -50 -24 -92q0 -21 8 -30q-28 -96 -35 -115q-21 -56 -47 -69q13 -23 27 -114q15 -103 33 -152q31 -82 92 -109q9 -12 9 -23q0 -30 -50 -37q-72 33 -104 90q-37 67 -34 190q2 81 -26 108q-20 21 -74 22q-17 28 1 57q61 2 90 90l42 182
q28 113 82 153q44 -7 61 -43q11 -26 7 -39z" />
    <glyph glyph-name="bar" unicode="|" horiz-adv-x="256" 
d="M99 678q20 -201 20 -297q0 -75 -7 -151q2 -15 2 -30q0 -14 -3.5 -41t-3.5 -43q0 -46 23 -103q-2 -20 -33 -35t-61 -15q-10 0 -16 2q-13 9 -13 35q0 11 4 43q4 25 2 34q-1 81 10 255q12 181 12 266q0 148 -25 247q-2 2 -2 4q0 10 29 20q25 9 41 10q17 -6 20 -35
q5 -38 12 -49q2 -18 -5.5 -56.5t-5.5 -60.5z" />
    <glyph glyph-name="braceright" unicode="}" horiz-adv-x="350" 
d="M200 401q-65 32 -65 54v7q1 5 1 7q0 16 -14 34q-6 103 -10 138q-10 77 -30 77q-6 0 -13 -8q-65 46 -65 85q0 21 20 38q16 13 36 16q79 -20 105 -113q14 -82 29 -164q22 -89 98 -104q22 -38 22 -62q0 -19 -9 -49q-41 0 -71 -81q-23 -59 -26 -105q-1 0 -19 -57
q-21 -67 -40 -105q-28 -57 -55 -57q-8 0 -15 4q-60 5 -60 16q0 -1 3 6q32 15 56 53q40 62 42 168q2 57 23 118q24 69 57 84z" />
    <glyph glyph-name="asciitilde" unicode="~" horiz-adv-x="599" 
d="M82 328q-4 -2 -22.5 -23t-45.5 -30q-12 31 -12 56t12 44q4 22 48.5 40.5t86.5 18.5q54 0 154 -42q12 -6 24.5 -20.5t17.5 -16.5q17 -4 65 11q64 19 108 62q3 -5 26 -40q9 -15 9 -23q0 -12 -26 -47q-23 -21 -75 -43q-14 -6 -87 -6q-11 0 -22 6q-15 7 -21 8
q-109 68 -177 68q-27 0 -46 -11q-8 -6 -17 -12z" />
    <glyph glyph-name="dagger" unicode="&#x2020;" horiz-adv-x="545" 
d="M232 484q8 -175 -3 -274l11 -192q-14 -19 -42 -19q-14 0 -32 5q-10 8 -10 16q0 4 6 17t3 23q2 144 1 429q-2 1 -11 1q-10 0 -53.5 -3t-67.5 -3q-59 0 -60 17q-4 13 -4 25q-1 8 0 22q1 17 1 25q29 -1 88 -2q18 -12 43 -12t49 10q-1 17 -1 38q-1 40 -1 79q-2 45 -10 78
q-4 6 -4 13q0 22 22 23q9 -4 49 -1q31 2 41 -15q8 -73 8 -62q0 -27 -15 -42q2 -23 -3 -64.5t-3 -61.5q98 -2 125 5.5t57 7.5l2 2q5 -5 10.5 -16t5.5 -23q0 -40 -69 -47q-15 -5 -30 -5q-13 0 -36 5t-38 5q-14 0 -29 -4z" />
    <glyph glyph-name="cent" unicode="&#xa2;" horiz-adv-x="531" 
d="M270 136q-12 -60 -12 -97q0 -27 7 -34q-21 -14 -44 -14q-38 0 -59 32q15 26 15 71q0 44 -13 92q-68 15 -119 90q-56 81 -42 171q18 108 139 190q25 5 25 81q0 35 -5 74h73l-3 -146q38 17 112 32q29 -36 29 -60q0 -17 -18 -22q-272 -73 -272 -195q0 -63 71 -112
q68 -47 146 -47q55 0 91 27q46 -9 46 -28q0 -5 -4.5 -19t-5.5 -23q-41 -38 -58 -50q-32 -23 -60 -23q-19 0 -39 10z" />
    <glyph glyph-name="sterling" unicode="&#xa3;" horiz-adv-x="548" 
d="M420 338q15 -35 9 -41q-104 -2 -192 -7q-23 -128 -49 -220q18 0 82.5 10t109.5 10q59 0 111 -15q17 -26 17 -48q0 -23 -17 -32q-14 0 -189.5 2.5t-208.5 2.5q5 15 14 87q6 51 22 68q24 25 24 60q0 7 -3 35q-2 21 0 34q-34 -3 -104 -7q-28 40 -28 59q0 11 13 11q6 0 14 -2
q58 2 115 6q5 34 10 59q4 19 14 22.5t15 15.5q10 25 19 96q5 43 88 104q89 67 168 68q23 -28 23 -54q0 -12 -5 -29q-18 -2 -45 -19q-31 -21 -41 -24q-61 -22 -90 -54q-41 -45 -60 -142q-2 -13 -8 -39zM248 355q42 6 66 6q43 0 106 -23z" />
    <glyph glyph-name="section" unicode="&#xa7;" horiz-adv-x="556" 
d="M70 -34q-16 -17 -20 -19v0q0 5 23 20q27 18 55 18q16 0 31 -6q5 -27 22 -44q16 -12 31 -26l30 -28q20 -17 41 -17q42 0 72 21q34 23 34 64q0 25 -17 46q-23 27 -68 62q-55 42 -98 57q-51 18 -74 40q-14 15 -27 30q-65 57 -65 131q0 26 16 62.5t43 54.5q15 10 51 21
q-63 60 -63 121q0 70 55 114q51 40 123 40q48 0 143 -28q31 -9 46 -55q7 -24 15 -86l-50 -44l-62 25q1 -5 3.5 3.5t2.5 20.5q0 48 -42 59q-9 3 -20.5 18t-27.5 15q-14 0 -43.5 -12t-51.5 -12q-12 0 -12 -13q0 -6 3.5 -20.5t3.5 -20.5q0 -25 16.5 -45.5t31.5 -39.5
q26 -27 78 -59q63 -32 144 -79q51 -42 67 -73q5 -9 -3 -53q-9 -51 -9 -46v0q1 4 13 44q1 5 2 7v0q-5 -21 -10 -41q-15 -46 -28 -61q-20 -22 -75 -45q78 -59 78 -137q0 -46 -26 -83.5t-69 -56.5q-46 -20 -99 -20q-94 0 -148 46q-94 80 -94 115q0 19 25 19q9 0 10 -2
q-1 -2 -7 -2zM355 119q72 37 72 91q0 29 -25 59q-7 8 -41 30q-39 24 -69 53q-22 21 -56 40q-38 22 -44 27q-73 -42 -73 -95q0 -17 12 -36t30 -21t35 -28q21 -32 47 -48q65 -38 112 -72z" />
    <glyph glyph-name="bullet" unicode="&#x2022;" horiz-adv-x="300" 
d="M195 435q1 -4 -2 -24q-5 -23 -5 -35q0 -23 12 -31q2 -9 -3 -19.5t-14 -10.5q-29 1 -42 -1q-3 -2 -5 -2q-3 0 -8 3t-7 1q-3 0 -11 -1q-7 -1 -10 0q-5 1 -8 5q-8 11 -7 33q1 30 0 34q3 4 3 10q0 4 -2.5 12t-2.5 11q0 8 11 11q25 3 52 3q21 7 34 3h5q3 0 5 -1t5 -1z" />
    <glyph glyph-name="paragraph" unicode="&#xb6;" horiz-adv-x="637" 
d="M386 661q5 -86 6 -293q0 -239 2 -280q0 -67 1 -260q9 -10 40 -10q25 0 45 7t20 19q0 5 -4 11q-9 72 -9 223v102.5v108.5q0 225 -14 370l67 1q9 3 17 5q15 6 15 19q0 21 -32 61q-34 -2 -70 -2q-42 0 -105.5 3t-82.5 3q-33 0 -48 -5q-14 0 -36.5 1t-32.5 1q-72 0 -103 -58
q-20 -35 -39 -70q-20 -40 -20 -80q0 -69 24 -106q44 -68 173 -92q17 -199 17 -315q0 -109 -16.5 -106t-16.5 -20q0 -25 16 -70h106q0 85 -9 361q-9 286 -9 379q0 75 4 92q27 0 45 -5.5t20 -5.5q9 0 29 11z" />
    <glyph glyph-name="germandbls" unicode="&#xdf;" horiz-adv-x="611" 
d="M377 547q-7 67 -37 101q-26 31 -63 31q-46 0 -82 -42q-38 -45 -38 -109q0 -21 4 -42l29 -438q8 -8 8 -18q0 -28 -45 -28q-30 0 -70 17q-12 94 -12 161q0 39 14 81.5t14 81.5q0 66 -13 160q1 101 19 141q7 15 36 36t36 40q11 27 115 27q43 0 95 -33.5t73 -78.5
q15 -19 15 -41q0 -34 -49.5 -99t-49.5 -92q0 -46 92 -73q47 -14 86 -74q34 -52 34 -85q0 -68 -50 -116q-32 -31 -59 -41q-22 -7 -69 -7q-62 0 -108 33q-20 14 -32 35q-3 5 -21 44q0 60 48 60q14 0 23 -7t5 -18q4 -6 16 -36q7 -15 16 -22q24 -17 51 -17q13 0 25.5 14t23.5 17
q41 10 41 54q0 96 -170 173q-2 3 -20.5 40.5t-18.5 35.5q0 4 25 48q31 56 63 86z" />
    <glyph glyph-name="acute" unicode="&#xb4;" horiz-adv-x="346" 
d="M13 803q18 12 33 23q35 27 46 45q5 9 25 24q15 10 29 20l4 6q22 -14 31 -30q9 -20 17 -40q-69 -58 -159 -84q-31 11 -26 36z" />
    <glyph glyph-name="dieresis" unicode="&#xa8;" horiz-adv-x="538" 
d="M5 952q-2 -4 -2 -9q0 -9 5.5 -27.5t5.5 -27.5q0 -16 -14 -26q-2 -10 2.5 -20t14.5 -10q28 1 42 -1q2 -3 5 -3q2 0 7 3t8 2q3 0 10 -1t11 -1q4 1 8 6q7 11 7 32q-1 30 0 35q-4 4 -4 9q0 4 2.5 12t2.5 12q0 8 -10 11q-26 3 -52 3q-22 6 -34 3h-5q-4 0 -5.5 -1.5t-4.5 -0.5z
M361 951q2 -4 2 -9q0 -9 -5.5 -27.5t-5.5 -26.5q0 -17 14 -27q2 -9 -2.5 -19.5t-14.5 -10.5q-28 1 -42 -1q-2 -2 -5 -2q-2 0 -7 3t-8 1q-3 0 -11 -1q-6 -1 -10 0t-8 5q-7 11 -7 33q1 30 0 34q4 4 4 10q0 4 -2.5 12t-2.5 11q0 8 10 11q26 3 52 3q22 7 34 3h5q4 0 5.5 -1
t4.5 -1z" />
    <glyph glyph-name="AE" unicode="&#xc6;" horiz-adv-x="935" 
d="M447 291q-24 6 -44 6q-22 0 -34 -8q-17 -13 -65 -13q-44 0 -99 10q-42 -71 -84 -141q-75 -125 -106 -149q-65 0 -76 58q27 54 122 194q109 161 136 165q31 4 121 135l108 164q10 8 45 8q33 0 122 -10.5t119 -10.5q37 0 40 11q58 -23 58 -36q0 -9 -17 -22q-18 0 -135 -2.5
t-123 -2.5q-10 -56 -10 -93q0 -21 4 -32q11 -33 11 -88q0 -36 -5 -72l61 10.5t101 10.5t63 -9l24 -31q0 -3 -12 -18q-49 0 -120 -29q-29 -12 -56 -12q-20 0 -40.5 7l-20.5 7q-7 -113 0 -135q8 -23 3 -83q15 12 46 12q23 0 63 -8q37 -7 44 -7q42 4 114 11q27 -23 27 -42
q0 -17 -23 -44q-20 0 -189.5 5t-177.5 5zM445 627h-5q-115 -196 -194 -279l199 6v273z" />
    <glyph glyph-name="Oslash" unicode="&#xd8;" 
d="M567 669zM252 21zM112 563q9 20 61.5 43t63.5 52q78 37 174 37q81 0 156 -26q8 16 22 43q1 12 25 21.5t46 9.5q12 0 17 -3q5 -7 9.5 -30.5t10.5 -29.5q-47 -16 -47 -31q0 -5 5.5 -14.5t4.5 -15.5q102 -146 102 -275q0 -139 -114 -241q-89 -81 -196 -103q-31 -7 -63 -7
q-67 0 -137 28q-29 -9 -59 -18q-47 -14 -74 -14q-23 0 -32 10q-2 5 -2 10q0 15 25 37q29 25 33 34q-92 97 -92 240q0 118 61 243zM491 575q-9 3 -44 19q-23 10 -39 10q-13 0 -27 -5q-11 2 -21 2q-22 0 -63 -11.5t-63 -12.5q-61 -73 -96 -154q-1 -16 1 -42q2 -32 2 -43
q0 -35 -13 -60q23 -21 38 -65q20 -58 27 -71q-4 -8 -4 -11q0 -1 1 -1q5 0 123 183q133 206 178 262zM604 169q68 60 68 160t-74 216q-78 -99 -157 -199q-158 -208 -167 -260q34 -8 70 -8q85 0 177 42q37 0 83 49z" />
    <glyph glyph-name="yen" unicode="&#xa5;" horiz-adv-x="685" 
d="M543 347q-22 1 -65.5 9.5t-59.5 8.5q-9 0 -16 -2q-33 -4 -82 -10q0 8 -2 -42q-2 -33 4.5 -36t66.5 -1q74 3 111 1q35 -21 35 -37q0 -14 -33 -18q-16 -3 -37 -3t-59 3.5t-52 3.5q-38 0 -40 -18q-2 -24 9 -104q-3 -42 3 -90q-15 -4 -29 -8q-30 -7 -49 -7q-28 0 -35 15
q7 22 9 106q3 95 3 99q-43 -1 -101 3q-66 4 -72.5 13t-6.5 22t6 25.5t7 11.5q3 -3 158 -14l5 76l-163 18q-8 50 -5 50h166q7 58 -2 65q-67 101 -144 177q-65 65 -110 88q5 24 29 35q15 8 41 10q20 2 20 3q62 -52 118 -121q40 -50 70 -101q11 -21 21 -41q83 136 145 252
q19 16 102 9q-1 -17 -5 -50q-5 -27 -38 -23q-73 -75 -113.5 -162.5t-33.5 -148.5q70 8 115 8q70 0 92 -21q14 -14 17 -54z" />
    <glyph glyph-name="ordfeminine" unicode="&#xaa;" horiz-adv-x="504" 
d="M445 305q-19 -9 -38 8q-29 57 -85 172q-13 11 -42 4q-17 -4 -54.5 -2.5t-56.5 -5.5q-27 -41 -77 -123q3 -6 3 -11q0 -4 -15 -36q-20 -2 -37 -2t-37 2q-2 24 22 56q35 44 39 52q31 64 44 90q27 49 54 86q17 30 48 88q-2 12 11 21t27 3q18 -8 23 -29q9 -34 9 -35
q13 -14 33 -52q17 -35 37 -52q5 -12 93 -186q12 -19 12 -29q0 -12 -13 -19zM232 613q-7 -10 -19 -44q-10 -28 -26 -44q18 3 55.5 -1.5t56.5 -2.5q-14 25 -27 50q-18 29 -40 42z" />
    <glyph glyph-name="ordmasculine" unicode="&#xba;" horiz-adv-x="473" 
d="M87 375q-21 20 -63 58q-30 33 -30 84q0 53 29 109q76 104 177 101q86 -20 127 -63q18 -37 41 -56q17 -19 17 -44q0 -17 -11 -52t-11 -53q0 -11 3 -20q-116 -107 -188 -107q-29 0 -56 19q-34 23 -35 24zM258 633l-32 18q-19 10 -34 10q-7 0 -14 -1q-84 -14 -119 -101
q0 -8 -2.5 -23t-2.5 -22q0 -21 16 -34q8 -23 43 -64q37 -23 74 -23q57 0 98 49q39 46 39 101q0 70 -66 90z" />
    <glyph glyph-name="ae" unicode="&#xe6;" horiz-adv-x="963" 
d="M869 76q19 -17 19 -34q0 -9 -5 -24q-8 -20 -10 -28q-20 0 -189.5 5t-177.5 5q-11 45 -11 81q0 45 16 119v79l-242 -5q-43 -13 -114 -141q-38 -74 -76 -149q-66 0 -76 58q41 46 188 238q161 211 161 229q0 1 -3 0.5t-3 2.5q0 12 64 91q40 48 80 97q28 -2 60 -2q30 0 85 3
t81 3q68 0 123 -15q40 7 40 -13q0 -14 -22 -36q-18 0 -135 -2.5t-123 -2.5q0 -11 -4.5 -48t-4.5 -56q0 -22 10.5 -44t10.5 -41q0 -18 -6 -52.5t-6 -43.5q127 0 225 12l3 -79q-1 0 -16 3.5t-26 3.5q-9 0 -27.5 -5.5t-36.5 -5.5q-27 0 -74.5 3.5l-47.5 3.5q-8 -24 -8 -48
q0 -23 10 -60.5t10 -56.5q0 -25 -12 -48q-2 0 30.5 -5.5t53.5 -5.5t36.5 10t38.5 10q15 0 58 -4q37 -3 53 -2zM312 337l199 6v273h-5q-46 -82 -93 -165q-48 -78 -101 -114z" />
    <glyph glyph-name="oslash" unicode="&#xf8;" horiz-adv-x="815" 
d="M532 669zM217 21zM77 563q9 20 61.5 43t63.5 52q78 37 174 37q81 0 156 -26q8 16 22 43q1 12 25 21.5t46 9.5q12 0 17 -3q5 -7 9.5 -30.5t10.5 -29.5q-47 -16 -47 -31q0 -5 5.5 -14.5t4.5 -15.5q102 -146 102 -275q0 -139 -114 -241q-89 -81 -196 -103q-28 -6 -59 -6
q-72 0 -141 27q-4 2 -10 2q-12 0 -52.5 -25t-62.5 -25q-24 0 -40 26q-4 21 25 55q26 31 33 31l1 -1q-1 -1 -3 -4q-92 97 -92 240q0 118 61 243zM456 575q-9 3 -44 19q-23 10 -39 10q-13 0 -27 -5q-11 2 -21 2q-22 0 -63 -11.5t-63 -12.5q-61 -73 -96 -154q-1 -16 1 -42
q2 -32 2 -43q0 -35 -13 -60q23 -21 38 -65q20 -58 27 -71q-4 -8 -4 -11q0 -1 1 -1q5 0 123 183q133 206 178 262zM569 169q68 60 68 160t-74 216q-19 -30 -138 -201q-145 -209 -186 -258q54 -17 105 -17q60 0 115 23q4 -1 9 -1q25 0 62 35q19 22 39 43z" />
    <glyph glyph-name="questiondown" unicode="&#xbf;" horiz-adv-x="472" 
d="M240 516q44 29 65 29q23 0 25 -28q38 -54 38 -78q0 -13 -11 -29q-14 -17 -27 -35q-15 -27 -78 -53q-93 -38 -105 -45q-52 -30 -52 -72q0 -46 55 -89q49 -38 84 -38q12 0 15 7q35 -11 114 -31q29 -73 14 -73q-6 0 -18 9q-86 -8 -219 53q-148 68 -148 148q0 76 46 113
q25 20 100 43q70 22 98 49q13 15 53 47q6 4 6 10q0 15 -27.5 41t-27.5 22zM215 614q11 8 11 43q0 20 -3 43q14 19 44 19q16 0 34 -6q15 -4 23 -10q0 -1 -1 -3v0q18 -37 18 -64q0 -26 -18 -34q-110 -1 -110 9q0 2 2 3z" />
    <glyph glyph-name="exclamdown" unicode="&#xa1;" horiz-adv-x="300" 
d="M43 569l61 -24q4 -46 17 -131q3 -35 4 -103q1 -17 9 -115t10 -106l3 -11t5 -12q-3 -12 -10 -12q-10 0 -13 -4q-21 -7 -84 -51q-10 -5 -14 -6q-12 2 -12 29q0 47 1 43q2 32 11 52q-10 30 -10 60q0 19 4 40l6 25q0 33 6.5 138t6.5 150q0 22 -1 38zM23 639l2 10q-1 16 -1 33
q0 19 13 27q20 3 35 3q37 0 42 -14q8 -22 19 -60q-23 -14 -68 -14q-33 0 -38.5 4.5t-3.5 10.5z" />
    <glyph glyph-name="florin" unicode="&#x192;" horiz-adv-x="436" 
d="M18 4q8 70 9 178q1 150 2 178q1 16 2 26q5 53 11 106.5t24 82.5q3 24 26 58q24 38 41 38q2 0 6 -1.5t6 -1.5q11 0 67 26.5t88 24.5q59 -14 59 -56q0 -26 -24 -54q-44 0 -87 -1q-49 -4 -75 -31q-32 -34 -37 -112q-9 -128 -19 -128q-2 0 -3 3q8 0 39 5.5t44 5.5
q14 0 18 -6.5t16 -6.5t39 6.5t31 6.5q13 -1 13 -16q0 -5 -2.5 -20t-2.5 -23t2 -14q-9 -5 -59 -6q-34 -1 -92 1l-64 2q-11 0 15 -3q2 -52 -4 -268q-6 -4 -89 0z" />
    <glyph glyph-name="guillemotleft" unicode="&#xab;" horiz-adv-x="490" 
d="M178 378q51 43 100 110q28 42 56 83v0q51 -9 51 -40q0 -5 -1 -10q-3 -10 -37 -39q-30 -27 -30 -43.5t-30 -38.5q-36 -26 -38 -29q78 -86 133 -140q-3 -1 -3 -4t2.5 -11t2.5 -13q0 -16 -24 -21zM135 436q-14 4 -57 -68q13 -15 45 -70q28 -50 47 -67q2 -5 2 -10
q0 -29 -46 -39q-5 7 -31 58l-18 32v0q0 5 -38.5 37.5t-38.5 61.5t38 60q0 9 101 107q45 12 57 12q21 0 21 -22q0 -7 -1 -17q-21 -21 -41 -43q-33 -34 -40 -32zM178 378q68 -121 182 -196z" />
    <glyph glyph-name="guillemotright" unicode="&#xbb;" horiz-adv-x="490" 
d="M58 146v0q-52 10 -52 41q0 4 2 9q9 28 65 81q63 60 70 69q-78 87 -133 140q-14 -4 -14 12t12 32.5t29 16.5q10 0 21 -7q32 -8 49 -41q22 -42 36 -54q21 -16 85 -94q-60 -55 -112 -123zM251 176v0q-7 -5 -13 -5q-20 0 -37 51q20 19 57 59q42 46 54 65q-36 51 -107 133
q-3 9 -3 15q0 25 38 32l40 -38q32 -32 32 -46t35 -47l46 -44q-5 -10 -25 -37q-17 -23 -17 -31.5t-100 -106.5z" />
    <glyph glyph-name="ellipsis" unicode="&#x2026;" horiz-adv-x="854" 
d="M296 119q-1 -4 -1 -9q0 -9 5.5 -27.5t5.5 -27.5q0 -16 -15 -26q-2 -9 3 -19.5t14 -10.5q29 1 42 -1q3 -3 5 -3q3 0 8 3t7 2q3 0 10.5 -1t10.5 -1q5 1 8 6q8 11 7 32q-1 31 0 35q-3 4 -3 9q0 4 2.5 12.5t2.5 11.5q0 8 -11 11q-25 3 -52 3q-21 7 -34 3h-5q-3 0 -5 -1.5
t-5 -0.5zM131 123q1 -4 1 -9q0 -9 -5.5 -27.5t-5.5 -27.5q0 -16 15 -26q2 -9 -3 -19.5t-14 -10.5q-29 1 -42 -1q-3 -3 -6 -3q-2 0 -7 3t-7 2q-4 0 -12 -1q-6 -1 -9 0q-5 1 -8 5q-8 11 -7 33v34q3 4 3 9t-2.5 13t-2.5 11q0 8 11 11q25 3 52 3q21 7 34 3h5q3 0 5 -1t5 -1z
M677 114q1 -4 1 -9q0 -9 -5.5 -27.5t-5.5 -26.5q0 -17 15 -27q1 -9 -3.5 -19.5t-13.5 -10.5q-29 1 -42 -1q-3 -2 -6 -2q-2 0 -7 3t-7 1q-4 0 -12 -1q-6 -1 -10 0t-7 5q-8 11 -7 33v34q3 4 3 10q0 4 -2.5 12t-2.5 11q0 8 11 11q25 3 52 3q21 7 34 3h5q3 0 5 -1t5 -1z" />
    <glyph glyph-name="OE" unicode="&#x152;" horiz-adv-x="1051" 
d="M586 642q-33 50 -88 105q-102 55 -199 55q-73 0 -131 -33q-10 -33 -57 -59q-50 -26 -59 -49q-55 -140 -55 -274q0 -162 84 -273q120 -100 208 -100q26 0 54 7q97 25 145 57q38 25 59 66q17 40 33 81q-15 -47 -15 -117q0 -52 8 -108q53 3 408 13q5 28 0 81q-15 2 -98 5
q-16 1 -34 3q-10 5 -24 5q-16 0 -56.5 -11t-59.5 -11q-63 0 -66 101q13 20 13 46q0 19 -9.5 57.5t-9.5 58.5q0 22 9 41q32 16 93 16q13 0 40 -1t40 -1q75 0 110 26l-6 34q-6 25 -23 33q-45 -7 -91 -14q-49 -7 -86 -7q-33 0 -69 6q2 20 2 45q0 6 -10 169q12 11 41 11
q5 0 15 -1h15q32 0 42 16l164 9q17 6 17 20q0 18 -31 50l-315 -22zM167 687q4 0 68 27.5t110 27.5q152 0 189 -278q-16 -352 -185 -352q-33 0 -78 14q-28 10 -57 19q-51 12 -75 52q-12 19 -29 81q-15 54 -37 79q13 28 13 68q0 12 -3 48q-1 30 0 47q30 89 84 167z" />
    <glyph glyph-name="oe" unicode="&#x153;" horiz-adv-x="895" 
d="M778 1q-40 -1 -89 -1h-81q-92 0 -162 -5q-15 108 -15 123q0 29 7 51l-28 -68q-18 -35 -49 -58q-40 -28 -114 -48q-19 -5 -36 -5q-41 0 -84 29q-19 12 -76 62q-65 88 -65 218q0 107 43 220q7 19 44.5 39.5t45.5 46.5q44 27 101 27q75 0 154 -44l59 -91q7 45 15 116
q7 6 17 6q3 0 9.5 -1t10.5 -1q8 0 15 4q11 1 252 9q8 -8 8 -17q0 -3 -2 -11t-2 -13t1 -10l-163 -3q-9 -14 -40 -17t-41 -13q6 -105 0 -177q11 -2 23 -2q34 0 88 20q61 23 88 27q13 -7 13 -25v-27q-31 -23 -98 -36q-75 -15 -101 -29q-11 -24 -5 -60q8 -56 8 -59
q0 -24 -11 -42q-3 -13 -3 -22q0 -35 54 -35h14h14q34 0 49 -9q40 1 127 -8q4 -12 4 -30zM375 342q-26 206 -131 206q-51 0 -96 -40q-7 -11 -50 -53q-33 -32 -41 -61q-5 -42 -5 -79q0 -119 50 -182q39 -51 90 -51q20 0 32 9q6 -10 23 -10q23 0 46 16q27 17 41 49
q53 73 53 137q0 30 -12 59z" />
    <glyph glyph-name="endash" unicode="&#x2013;" horiz-adv-x="641" 
d="M8 317q-13 8 -13 20q0 10 19 38q37 2 115 3q17 0 45 -3q24 -3 31 -2l132 11q15 1 29 1q48 0 69 -15q22 0 50.5 2.5l28.5 2.5q22 -19 22 -40q0 -18 -22 -30q-15 2 -89 3q-79 2 -100 -1l-121 -15q-2 -1 -11 -1q-63 0 -185 26z" />
    <glyph glyph-name="emdash" unicode="&#x2014;" horiz-adv-x="1268" 
d="M42 305q-23 25 -23 51q0 16 11 27q-11 0 68 3q50 2 67 -5q14 -6 65 -4q45 2 91 4l429 9q2 0 44 2q35 2 52 2q26 -1 25 -6q-3 -22 67 -22q33 0 74.5 4.5t29.5 4.5q17 -18 17 -36q0 -20 -17 -34q-64 8 -289 2q3 0 -42 2q-48 3 -85 3q-83 0 -109 -12q-20 -9 -182 -5
q-60 -2 -170 5q-103 6 -123 5z" />
    <glyph glyph-name="quotedblleft" unicode="&#x201c;" horiz-adv-x="432" 
d="M175 586l-112 139q-37 -4 -48 -10.5t-12 -28.5q14 -29 27 -38q19 -12 33 -30q22 -15 40 -32q14 -13 22 -17t15 -4q10 0 21 9zM306 582l-89 136q-38 -9 -59 -49q43 -28 77 -67q18 -23 37 -47q24 1 34 27z" />
    <glyph glyph-name="quotedblright" unicode="&#x201d;" horiz-adv-x="397" 
d="M130 589l112 139q36 -5 46 -10q13 -8 14 -29q-14 -30 -28 -38q-19 -12 -32 -30q-23 -15 -41 -33q-13 -12 -21 -16t-15 -4q-10 0 -21 9zM-1 585l89 136q38 -9 59 -49q-43 -29 -77 -67q-19 -24 -37 -47q-24 1 -34 27z" />
    <glyph glyph-name="quoteleft" unicode="&#x2018;" horiz-adv-x="207" 
d="M77 718v0l56 -191q-6 -6 -39 -18q-69 96 -97 173q10 33 80 36z" />
    <glyph glyph-name="quoteright" unicode="&#x2019;" horiz-adv-x="192" 
d="M1 528v0l56 191q58 -16 80 -36q-23 -32 -48 -89q-22 -52 -49 -84q-6 -2 -11 -2q-21 0 -28 20z" />
    <glyph glyph-name="currency" unicode="&#xa4;" horiz-adv-x="582" 
d="M239 556q64 0 115 -35l68 68q53 -8 57 -58q2 -23 -32 -49q-29 -24 -40 -24q-1 0 -1 1q0 2 5 5q11 -17 16 -57.5t19 -56.5q5 -6 5 -17q0 -38 -40 -99l68 -66q-22 -39 -57 -58l-68 68q-27 -19 -78 -19q-36 0 -54.5 9t-45.5 14q-21 3 -40 16q2 -27 -17.5 -52.5t-48.5 -37.5
q0 -1 -2 -1q-12 0 -32 15q-25 20 -30 47l75 72q-9 14 -28.5 24.5t-26.5 21.5q-11 19 -11 63q0 26 17 59q5 9 35 55l-68 67q4 37 11 52q11 20 40 20l73 -82q52 35 116 35zM115 399q-5 -11 -12 -17q-2 -1 -2 -29q0 -29 17 -53q7 -8 36 -38q37 -37 90 -37q34 0 89 37
q14 10 25.5 37t11.5 53q0 56 -37 89q-73 46 -123 46q-43 0 -69 -35q-7 -10 -26 -53z" />
    <glyph glyph-name="guilsinglleft" unicode="&#x2039;" horiz-adv-x="320" 
d="M13 308l-16 30q64 73 170 205q6 1 12 1q24 0 33 -25q3 -13 5 -26q-7 -23 -67.5 -76.5t-67.5 -73.5q26 -33 133 -140q4 -8 4 -17q0 -17 -9.5 -30t-23.5 -13q-9 0 -19 6q-22 35 -42 62q-49 63 -73.5 68.5t-38.5 28.5z" />
    <glyph glyph-name="guilsinglright" unicode="&#x203a;" horiz-adv-x="320" 
d="M177 285q23 6 37 28l16 30q-64 74 -170 205q-6 2 -12 2q-24 0 -33 -26q-3 -13 -5 -26q7 -23 67.5 -76.5t67.5 -73.5q-26 -32 -133 -140q-4 -7 -4 -17q0 -16 9.5 -29.5t23.5 -13.5q9 0 19 6q22 35 43 62q48 63 74 69z" />
    <glyph glyph-name="fi" unicode="&#xf001;" horiz-adv-x="926" 
d="M243 0h-101q8 53 8 291v133q0 238 -4 276q22 0 152 6q136 6 164 9l4 -77l-226 -5v-255q66 0 207 9l3 -77l-210 4v-95q0 -208 3 -219zM776 410v-108q0 -210 4 -302h-97q3 66 3 304v108q0 228 -5 288h100q-5 -45 -5 -290z" />
    <glyph glyph-name="fl" unicode="&#xf002;" horiz-adv-x="1069" 
d="M243 0h-101q8 53 8 291v133q0 238 -4 276q22 0 152 6q136 6 164 9l4 -77l-226 -5v-255q66 0 207 9l3 -77l-210 4v-95q0 -208 3 -219zM682 700h102q-8 -44 -8 -345v-283q142 0 238 4v-86q-6 0 -164 5t-172 5q8 53 8 291v133q0 238 -4 276z" />
    <glyph glyph-name="daggerdbl" unicode="&#x2021;" horiz-adv-x="589" 
d="M413 321q-47 -17 -75 -17q-14 0 -23.5 4t-8.5 4q-3 0 -6 -6l-52 6q0 51 -5 170v0q1 -2 3 -2q-1 0 22 9t48 9q27 0 59 -10q6 5 17 5q8 0 24.5 -4t22.5 -4q16 0 16 19q0 13 -7 36q1 8 1 13q0 16 -12 16q-2 0 -15 -2t-21 -1q-28 0 -40 -3q-9 -2 -113 0q-5 38 -15 120
q33 32 25 99q-8 14 -21 14q-4 0 -13 -1t-14 -1q-15 0 -31 6q-11 -1 -21.5 -8t-10.5 -16q0 -4 3 -8q10 -39 11 -100q1 -95 1 -101q-28 -12 -54 -12q-24 0 -41 11q-22 -3 -43 1q-24 4 -42 4q0 -56 4 -69q2 -26 54 -26q19 0 57.5 4.5t50.5 4.5t17 -3q1 -14 5 -85q4 -48 1 -85
l-96 -11q-11 2 -36 10q-20 7 -32 7q-10 0 -21 -3q-2 -21 -1 -42t-2 -42q57 -4 182 -8q-5 -79 -4 -159q1 -2 1 -34q0 -17 15 -28q8 -2 15 -2q28 0 53 34q-6 11 -6 52q0 53 9 137q86 16 125 16q22 0 31.5 -5.5t11.5 -5.5q6 0 17 3q18 10 18 37q0 47 -38 53z" />
    <glyph glyph-name="periodcentered" unicode="&#xb7;" horiz-adv-x="270" 
d="M176 376q2 1 8 -19q2 -19 3 -37q-1 -40 -15 -38q-3 4 -19 2q-11 6 -30 5q-24 -1 -32 1q-5 7 -4 22q1 20 0 23h-1q0 10 4 28q-6 22 2 31q5 3 10 3q2 0 33 -14z" />
    <glyph glyph-name="periodcentered" unicode="&#x2219;" horiz-adv-x="270" 
d="M176 376q2 1 8 -19q2 -19 3 -37q-1 -40 -15 -38q-3 4 -19 2q-11 6 -30 5q-24 -1 -32 1q-5 7 -4 22q1 20 0 23h-1q0 10 4 28q-6 22 2 31q5 3 10 3q2 0 33 -14z" />
    <glyph glyph-name="quotesinglbase" unicode="&#x201a;" horiz-adv-x="160" 
d="M10 -75v0q9 24 26 75q8 26 30 116q66 1 80 -36q-57 -122 -68.5 -122t-28.5 -51q-9 10 -15 10q-2 0 -4 -1.5t-4 -1.5q-7 0 -16 11z" />
    <glyph glyph-name="quotedblbase" unicode="&#x201e;" horiz-adv-x="305" 
d="M139 -46v0l22 56q25 58 59 106q41 -11 71 -48q-52 -59 -115 -137q-21 -3 -37 23zM152 78q-9 23 -26 30q-12 5 -50 8q-26 -116 -40 -116q-20 0 -18 -45l44 -13zM62 -58q47 65 90 136z" />
    <glyph glyph-name="perthousand" unicode="&#x2030;" horiz-adv-x="1007" 
d="M762 -3q-24 0 -55 19q-28 16 -30 23q-11 30 -23 59q-21 61 -21 100q0 81 36 145q40 73 104 73q31 0 65 -23q60 -39 60 -185q0 -70 -30 -131q-38 -80 -106 -80zM832 210q0 41 -14 81q-18 53 -50 53q-20 0 -31 -27q-10 -23 -19 -46q-12 -19 -12 -78q0 -100 44 -114
q44 -8 66 48q16 39 16 83zM274 580q0 -69 -30 -131q-38 -79 -106 -79q-19 0 -46 18t-34 18q-17 1 -33 57t-16 107q0 79 31 144q36 75 95 75q7 0 14 -1q125 -28 125 -208zM134 446q33 -6 62 42t29 105q0 101 -91 112q-66 -58 -66 -130q0 -46 27 -89q23 -36 39 -40zM472 428
q11 0 29 -11t36 -11q25 -1 42.5 -57.5t17.5 -127.5q0 -70 -30 -132q-39 -79 -107 -79q-136 64 -136 191q0 82 53 157q50 70 95 70zM158 44q8 41 16 81q14 70 51 134t44 113q10 64 16 80q11 28 77 210q37 102 56 137q16 7 25 7q13 0 19 -14l8 -60q1 3 1 -30q0 -23 -16 -34.5
t-53 -112.5q-28 -80 -56 -161q-32 -97 -65 -194q-44 -128 -67 -165q-32 -38 -45 -38q-9 0 -11 19v28zM485 354q-39 24 -68 -28q-27 -47 -27 -116q0 -51 17 -83q20 -35 56 -33q83 6 83 110q0 46 -18 90.5t-43 59.5z" />
    <glyph glyph-name="dotlessi" unicode="&#x131;" horiz-adv-x="304" 
d="M111 596q15 -140 15 -248q0 -85 -9 -165l5 -152q-23 -29 -48 -29q-6 0 -13 1q-14 10 -14 25v29q-1 57 1 157q3 111 3 157q0 182 -31 302q-3 4 -3 7q0 16 30 18q8 -4 21 -4q6 0 16.5 1t16.5 1q24 0 33 -14q6 -58 -23 -86z" />
    <glyph glyph-name="circumflex" unicode="&#x2c6;" horiz-adv-x="487" 
d="M354 723q-4 -47 -51 -57q-56 69 -117 108q-8 0 -56 -41l-58 -48q-15 -5 -27 -5q-33 0 -39 37q25 37 85.5 80.5t101.5 53.5z" />
    <glyph glyph-name="tilde" unicode="&#x2dc;" horiz-adv-x="421" 
d="M101 816q-27 -11 -28.5 -12.5t-12.5 -31.5q-20 -12 -34 -12q-22 0 -20 31q47 78 92 78q32 0 79 -24q9 -5 16.5 -9.5t20.5 -4.5q18 0 40.5 12.5t33.5 28.5q41 -4 46 -47q-10 -15 -23 -25q-19 -14 -37 -27q-27 -6 -48 -6t-35.5 7t-26 13t-63.5 29z" />
    <glyph glyph-name="macron" unicode="&#xaf;" horiz-adv-x="476" 
d="M8 771q-10 11 -10 25q0 19 18 31q11 -3 30 -3q25 0 93.5 7.5t96.5 7.5q36 0 48 -9q13 -18 13 -31q0 -16 -17 -33q-67 0 -66 0q-17 -2 -27 -6q-3 -2 -6 1q-17 17 -63 17q-23 0 -59.5 -4.5t-42.5 -4.5q-7 0 -8 2z" />
    <glyph glyph-name="macron" unicode="&#x2c9;" horiz-adv-x="476" 
d="M8 771q-10 11 -10 25q0 19 18 31q11 -3 30 -3q25 0 93.5 7.5t96.5 7.5q36 0 48 -9q13 -18 13 -31q0 -16 -17 -33q-67 0 -66 0q-17 -2 -27 -6q-3 -2 -6 1q-17 17 -63 17q-23 0 -59.5 -4.5t-42.5 -4.5q-7 0 -8 2z" />
    <glyph glyph-name="breve" unicode="&#x2d8;" horiz-adv-x="502" 
d="M68 925q15 -21 29 -42q32 -40 69 -66q17 0 41 15l38 36q33 31 33 40q0 2 -1 3q20 11 32 11q14 0 22.5 -16.5t15.5 -15.5t7 -1q0 -3 -21 -20.5t-20 -22.5q-16 -17 -60 -47q-52 -37 -53 -38q-12 -9 -25 -8q-14 1 -16 1q-57 48 -134 107q-5 6 -5 14q0 16 15 31.5t33 18.5z
" />
    <glyph glyph-name="dotaccent" unicode="&#x2d9;" horiz-adv-x="266" 
d="M128 947q1 -4 1 -9q0 -9 -5.5 -27.5t-5.5 -27.5q0 -16 15 -26q2 -9 -3 -19.5t-14 -10.5q-29 1 -42 -1q-3 -3 -6 -3q-2 0 -7 3t-7 2q-3 0 -11 -1q-7 -1 -10 0q-5 0 -8 5q-8 11 -7 32q1 31 0 35q3 4 3 9q0 4 -2.5 12.5t-2.5 11.5q0 8 11 11q25 3 52 3q21 7 34 3h5q3 0 5 -1
t5 -1z" />
    <glyph glyph-name="ring" unicode="&#x2da;" horiz-adv-x="405" 
d="M118 746q-76 0 -97 77q-4 13 -4 27q0 39 24 34q13 -3 40 12.5t45 14.5q44 -5 74 -22t30 -39q0 -7 -3 -14q-46 -90 -109 -90zM123 784q14 0 18 11q8 22 16.5 31.5t8.5 19.5q0 26 -41 26q-19 0 -33.5 -12.5t-14.5 -32.5t13 -31.5t33 -11.5z" />
    <glyph glyph-name="cedilla" unicode="&#xb8;" 
d="M186 -46q8 -21 42 -61q28 -34 28 -50q0 -10 -6 -18q-10 -35 -61 -46q-55 -7 -109 -13q-58 21 -58 47q0 11 15 12q135 7 137 46q1 38 -76 51q-4 11 -27 33q-19 19 -16 28q-2 4 -2 8q0 24 37 47l30 14l62 -36q-17 2 -17 -15q0 -12 7.5 -28.5t13.5 -18.5z" />
    <glyph glyph-name="hungarumlaut" unicode="&#x2dd;" horiz-adv-x="453" 
d="M150 728l112 138q36 -4 47.5 -10.5t12.5 -28.5q-14 -29 -28 -37q-19 -12 -32 -30q-22 -15 -41 -33q-13 -13 -21 -17t-15 -4q-10 0 -21 10zM19 723l89 136q38 -9 59 -49q-43 -28 -77 -66q-19 -24 -37 -48q-24 2 -34 27z" />
    <glyph glyph-name="ogonek" unicode="&#x2db;" horiz-adv-x="361" 
d="M81 7q25 0 99 1q-33 -20 -56.5 -49t-23.5 -47q0 -9 6.5 -12t21.5 -35q13 -27 49 -34q12 -10 12 -18q0 -10 -25 -24q-60 10 -103 38q-48 30 -48 67q0 79 68 113z" />
    <glyph glyph-name="caron" unicode="&#x2c7;" horiz-adv-x="403" 
d="M160 764q-66 34 -59.5 39.5t-89.5 58.5q-5 6 -5 12q0 19 45 36q50 -27 74 -47q18 -18 36 -35l100 82q40 -34 37 -66q-28 -14 -56 -29q-48 -25 -82 -51z" />
    <glyph glyph-name="Lslash" unicode="&#x141;" horiz-adv-x="533" 
d="M478 76v-86q-6 0 -164 5t-172 5q8 53 8 291v13q-59 -21 -106 -42l-18 64q26 9 124 44v54q0 238 -4 276h102q-7 -35 -7 -298q104 37 145 56l19 -65q-49 -17 -165 -58v-263q142 0 238 4z" />
    <glyph glyph-name="lslash" unicode="&#x142;" horiz-adv-x="533" 
d="M478 76v-86q-6 0 -164 5t-172 5q8 53 8 291v13q-59 -21 -106 -42l-18 64q26 9 124 44v54q0 238 -4 276h102q-7 -35 -7 -298q104 37 145 56l19 -65q-49 -17 -165 -58v-263q142 0 238 4z" />
    <glyph glyph-name=".null" horiz-adv-x="340" 
 />
    <glyph glyph-name="Eth" unicode="&#xd0;" horiz-adv-x="805" 
d="M36 366q-70 -3 -101 -7q-11 11 -11 22t16 37q2 0 5 10.5t23.5 11.5t67.5 3v65l-8.5 84.5t-8.5 135.5q0 61 12 79q195 0 255 -12q51 -10 131 -47q70 -33 96 -33q7 0 13 1q40 9 87 -78.5t39 -136.5q-31 -196 -126 -302q-151 -168 -496 -201q6 79 6 368zM282 460
q17 -42 17 -62q0 -12 -5.5 -15t-9.5 -4q-65 -12 -104 -12q-29 0 -54 5q-6 -14 -6 -25t6.5 -15.5t6.5 -64.5q0 -64 -7 -168q70 7 187 73q109 62 124 59q24 -4 71 89.5t46 151.5q0 124 -117 189q-112 62 -311 60v-272q44 2 156 11z" />
    <glyph glyph-name="eth" unicode="&#xf0;" horiz-adv-x="583" 
d="M127 716q36 8 45 8q27 0 61 -8q35 -27 61 -50l105 50l21 -50q2 -3 2 -6q0 -15 -40 -25l-46 -10q161 -184 161 -321q0 -25 -4 -50l-18 -120q-14 -62 -50 -75q-13 -5 -83 -44q-49 -27 -90 -27q-125 0 -194 94q-51 70 -51 130q0 20 5 40q13 57 25.5 113t37.5 84
q63 69 158 69q49 0 103 -28q-28 57 -69 104l-134 -62q-28 15 -28 33q0 8 6 17l117 53q-10 9 -56 38q-35 22 -45 43zM401 258q0 94 -44 143q-40 46 -95 46q-16 0 -26 -7q-15 -11 -49 -16q-28 -5 -43 -23q-42 -49 -42 -151q0 -66 6 -93q9 -46 37 -50q15 -2 49 -25t58 -23
q75 0 116 65q33 54 33 134z" />
    <glyph glyph-name="Scaron" unicode="&#x160;" horiz-adv-x="527" 
d="M323 658h-12q-28 -40 -80 -98q-79 -87 -86 -96q114 -78 187 -202q-1 -31 -45 -64q-51 -37 -59 -58q-23 -10 -38 -39q-18 -35 -29 -44q-32 -27 -63 -54q-39 -29 -76 -29q-14 0 -28 4q-7 58 76 115q114 52 170 165l-8 48q-52 38 -104 77q-62 47 -87 89q-4 22 21 46
q32 31 37 40q35 49 104 111q58 53 117 105q24 -9 70 -18q-10 -80 -67 -98zM317 880q-6 59 -37 66q-13 -21 -27 -41q-29 -39 -63 -64q-15 0 -37 17q-16 18 -32 37q-29 32 -29 41q0 3 2 4q-18 12 -30 12t-19.5 -16t-13.5 -15l-4 -6q10 -11 20 -21q13 -14 12 -19q14 -17 52 -50
q46 -38 47 -39q10 -10 22 -10q13 1 14 0q77 78 123 104z" />
    <glyph glyph-name="scaron" unicode="&#x161;" horiz-adv-x="549" 
d="M322 538h-11q-26 -32 -75 -78q-73 -69 -80 -76q107 -62 175 -160q-1 -24 -42 -50q-47 -30 -55 -46q-22 -8 -36 -31q-16 -28 -27 -35q-29 -22 -59 -43q-36 -23 -70 -23q-13 0 -27 3q-6 46 71 91q106 42 159 131l-8 38q-48 31 -96 61q-58 37 -82 71q-4 17 19 36
q31 25 35 32q33 39 97 88q55 41 110 83q23 -7 65 -14q-9 -64 -63 -78zM44 711q13 -14 59 -48q28 -21 55 -41q10 -8 20 -8q12 1 14 0q71 62 115 82q-6 47 -35 52q-13 -16 -25 -32q-28 -31 -59 -51q-6 0 -51 41q-49 45 -52 47zM85 753q-39 -11 -41 -42z" />
    <glyph glyph-name="Yacute" unicode="&#xdd;" horiz-adv-x="672" 
d="M511 710q-39 -31 -64 -93q-33 -81 -45 -99q-62 -129 -125 -258q-70 -148 -117 -260l-96 2q-5 17 -5 32q0 50 72 117q76 69 81 119q3 23 28 75q23 48 23 74q0 36 -33.5 65.5t-72.5 87.5q-49 75 -63 93q-41 50 -94 75q8 33 3 56q10 4 23 4q6 0 35 -3q23 -3 37 0
q51 -41 97 -119q60 -103 79 -126q7 -25 8 -25q5 -14 16 -22q33 55 76 138q36 71 72 141q16 14 57 14q3 0 57 -4l-6 -56q-7 -32 -43 -28zM415 878q-6 59 -36 66q-14 -21 -28 -41q-29 -39 -62 -64q-16 0 -37 16q-17 19 -33 38q-28 32 -28 41q0 3 1 3q-18 13 -29 13
q-12 0 -20 -16t-14 -15q-2 -3 -3 -6q9 -11 19 -21q14 -14 13 -19q13 -17 52 -50q45 -38 46 -39q11 -10 22 -10q13 1 14 0q77 78 123 104z" />
    <glyph glyph-name="yacute" unicode="&#xfd;" horiz-adv-x="587" 
d="M420 563q-32 -24 -53 -74q-27 -64 -36 -78q-70 -137 -198 -411l-79 1q-4 13 -4 26q0 39 60.5 93t64.5 94q2 18 22 58t20 61q0 28 -26.5 50.5t-84.5 108.5q-48 69 -104 95q6 27 2 45q8 3 19 3q5 0 29 -3q18 -2 30 0q42 -32 79 -94q49 -82 65 -100l6 -20q5 -11 14 -17
q5 9 121 221q15 13 93 8l-6 -44q-5 -26 -34 -23zM360 701q-5 47 -34 52q-13 -16 -25 -32q-28 -31 -59 -51q-15 0 -32.5 14t-32.5 29q-26 26 -26 33q0 1 1 2q-17 10 -28 10t-18 -13t-13 -11q-2 -3 -3 -6l18 -16q13 -11 12 -15q12 -14 48 -39q43 -31 44 -32q9 -8 20 -7h14
q71 61 114 82z" />
    <glyph glyph-name="Thorn" unicode="&#xde;" horiz-adv-x="624" 
d="M439 449q0 -13 -6.5 -50.5t-6.5 -53.5q0 -14 3 -22q9 -25 -101 -97q-117 -75 -212 -90l-10 -72q-2 -12 5 -45q8 -39 8 -45q2 -26 -23 -26q-15 0 -81 29q-4 145 -1 374q8 101 6 64q-2 19 -7 40q-2 10 1 33q-15 82 -15 230q0 100 9 143q7 12 21 12q17 0 43 -17
q12 -8 24 -17q-15 -15 -15 -64q0 -37 9 -91q4 -24 9 -48q106 0 218 -55q122 -61 122 -132zM99 550q6 -34 6 -88q0 -38 -3.5 -107.5t-3.5 -93.5q0 -20 1 -32q92 11 213 66q17 8 17 47q0 43 -19 110q-6 65 -54 84q-38 14 -157 14z" />
    <glyph glyph-name="thorn" unicode="&#xfe;" horiz-adv-x="511" 
d="M88 125q138 20 215 93q71 68 71 163q0 50 -62 93q-56 38 -125 49q-88 14 -113 14v81q0 10 3 54l-18 18q-12 11 -25 11q-16 0 -35 -17q6 -207 -2 -681q46 -4 91 0v122zM72 475q41 0 103 -20q56 -18 67 -15q33 8 61 -66q4 -11 4 -23q0 -29 -20.5 -57t-43.5 -36
q-19 -8 -165 -46q1 -12 2 -19v5q0 36 -8 277z" />
    <glyph glyph-name="Zcaron" unicode="&#x17d;" horiz-adv-x="688" 
d="M621 19q-22 1 -60 -4.5t-54 -5.5q-30 0 -54 11q-35 -1 -130 -7q-89 -6 -139 -6q-60 0 -108 7q-10 -10 -33 -11q-30 -1 -36 -3l-35 25q36 55 126 217q78 138 134 217q34 25 74 91q43 71 73 99l19 51q-15 5 -39 5q-10 0 -31 -1t-31 -1q-22 0 -37 3q-14 12 -39 12
q-18 0 -34 -5q-32 -24 -90 -33q-49 -4 -97 -9l-9 9q3 7 3 17q0 11 -6.5 35t-6.5 36q0 8 2 14q9 6 38 9.5t41 8.5q53 -11 150 -13q147 -2 159 -3l24 10q14 1 29 1q54 0 144 -19l-38 -74q-23 -43 -57 -60q-194 -278 -275 -422q-6 -25 -32 -61q-31 -43 -38 -59q226 -13 247 -13
q117 0 209 25l54 -3q-4 -30 -17 -90zM158 995q14 -21 29 -41q32 -40 68 -66q18 -1 42 15q19 17 38 35q33 31 33 40q0 2 -2 3q20 12 33 12q14 0 22 -17t15.5 -15.5t7.5 -1.5t-21 -20.5t-20 -22.5q-16 -17 -60 -47q-52 -36 -54 -37q-11 -9 -24 -8q-15 1 -16 0q-57 48 -135 107
q-4 7 -4 15q0 16 15 31t33 18z" />
    <glyph glyph-name="zcaron" unicode="&#x17e;" horiz-adv-x="761" 
d="M649 19q-22 1 -60 -4.5t-54 -5.5q-30 0 -54 11q-35 -1 -130 -7q-89 -6 -139 -6q-60 0 -108 7q-10 -10 -33 -11q-30 -1 -36 -3l-35 25q36 55 126 217q78 138 134 217q34 25 74 91q43 71 73 99l19 51q-15 5 -39 5q-10 0 -31 -1t-31 -1q-22 0 -37 3q-14 12 -39 12
q-18 0 -34 -5q-32 -24 -90 -33q-49 -4 -97 -9l-9 9q3 7 3 17q0 11 -6.5 35t-6.5 36q0 8 2 14q9 6 38 9.5t41 8.5q53 -11 150 -13q147 -2 159 -3l24 10q14 1 29 1q54 0 144 -19l-38 -74q-23 -43 -57 -60q-194 -278 -275 -422q-6 -25 -32 -61q-31 -43 -38 -59q226 -13 247 -13
q117 0 209 25l54 -3q-4 -30 -17 -90zM184 1000q15 -21 29 -42q32 -40 68 -66q18 0 42 15l38 36q33 31 33 40q0 2 -2 3q21 11 33 11q14 0 22.5 -16.5t15.5 -15.5t7 -1q0 -3 -21 -20.5t-20 -22.5q-16 -17 -60 -47q-52 -36 -53 -37q-12 -10 -25 -9q-14 1 -16 1q-57 48 -134 107
q-5 6 -5 14q0 16 15 31.5t33 18.5z" />
    <glyph glyph-name="onehalf" unicode="&#xbd;" horiz-adv-x="931" 
d="M133 509q-1 -34 7 -78t8 -52q0 -21 -16 -29q-5 2 -8 2t-10 -2t-14 -2q-17 0 -48 11q0 -1 12 58t12 113q-6 1 -6 11q0 4 7 33q9 35 1 122q-10 -11 -25 -36.5t-21 -31.5q-31 28 -31 41q0 4 4 8t3 6q24 31 47 63q45 57 73 57q11 0 20 -9zM553 436q111 -11 177 -61
q62 -47 62 -110q0 -103 -161 -213l1 -3q74 22 111 22q31 0 72 -10q18 -17 18 -36q0 -17 -18 -32q-60 -2 -149 5q-21 6 -41 6q-11 0 -31 -3t-30 -3h-75l4 35q16 10 81 70q52 47 66 45q24 -3 53 29q33 37 33 92q0 17 -4 36q-62 44 -126 44q-40 0 -57 -11q0 -4 -4.5 13.5
t-4.5 33.5q0 36 23 51zM44 18q45 76 81 132q88 135 118 148q26 74 166 272t172 204q10 6 19 6q19 0 19 -18q0 -7 -5 -11q-68 -130 -166 -299q-57 -74 -181 -262q-55 -84 -110 -169q-64 -24 -99 -24q-19 0 -19 9q0 5 5 12z" />
    <glyph glyph-name="onequarter" unicode="&#xbc;" horiz-adv-x="833" 
d="M35 21q45 76 82 132q87 135 117 148q27 73 166.5 271.5t172.5 204.5q10 6 18 6q19 0 19 -18q0 -7 -5 -11q-68 -130 -166 -299q-57 -74 -181 -262q-55 -85 -110 -169q-63 -24 -98 -24q-20 0 -20 9q0 5 5 12zM619 323q-2 -42 3 -101q8 -89 8 -94l6 -3q6 -2 13 -2
q8 0 23.5 2t22.5 2q24 0 26 -18q-4 -18 -38 -15q-44 3 -53 -1q-3 -14 -2.5 -42t-2.5 -42q-5 -5 -18 -14q-36 3 -36 22q0 6 2 13l4 63q10 0 -85 4q-51 2 -85 -5q-43 0 -57 19q0 20 111.5 143.5t146.5 144.5q15 -16 15 -37q0 -6 -2 -19.5t-2 -19.5zM567 302q-33 -32 -68 -80
q-55 -73 -62 -82q12 2 27 2q12 0 38.5 -2.5t39.5 -2.5q16 0 30 3q-2 82 -4 82q1 -1 2 -9q-2 -1 -3 -1l3 25q2 22 2 36q0 20 -5 29zM134 497q-2 -34 6 -76q9 -45 9 -54q0 -20 -16 -29q-5 3 -9 3q-3 0 -9.5 -2.5t-13.5 -2.5q-17 0 -48 11q0 -1 11.5 58.5t11.5 112.5
q-6 1 -6 12q0 3 8 32q9 36 1 122q-10 -10 -25 -36t-21 -32q-32 28 -32 41q0 5 4 9t4 5l46 64q45 56 73 56q12 0 20 -9q-11 -210 -14 -285z" />
    <glyph glyph-name="onesuperior" unicode="&#xb9;" horiz-adv-x="324" 
d="M138 503q-1 -34 7 -78t8 -52q0 -21 -16 -29q-5 2 -8 2t-10 -2t-14 -2q-17 0 -48 11q0 -1 12 58t12 113q-6 1 -6 11q0 4 7 33q9 35 1 122q-10 -11 -25 -36.5t-21 -31.5q-32 28 -32 41q0 4 4.5 8t3.5 6q23 31 47 63q45 57 73 57q11 0 20 -9z" />
    <glyph glyph-name="threequarters" unicode="&#xbe;" horiz-adv-x="834" 
d="M41 737l8 56q14 0 42.5 -12.5t41.5 -12.5q6 0 14 3.5t13 3.5q23 0 59 -34q33 -32 47 -62q2 -4 2 -8q0 -21 -31.5 -50.5t-59.5 -40.5v-2q45 -9 78 -38t33 -65q0 -59 -89 -97q-80 -34 -189 -37q-16 19 -16 36q0 16 14 24q-5 0 -1 7t19 7q17 0 46 -11q18 -7 38 -7
q39 0 69.5 23t30.5 55q0 13 -5 26q-35 34 -66 43q-8 2 -88 9q-25 11 -25 27q0 12 17 22q16 1 39.5 13.5t36.5 12.5q5 0 11 -1q15 -5 32 13q13 14 26 29q7 6 7 12q0 21 -53.5 39.5t-100.5 16.5zM636 94q-3 -14 -2.5 -42.5t-2.5 -41.5q-4 -5 -17 -14q-37 3 -37 22q0 6 3 13
l3 63q10 0 -85 4q-51 1 -85 -6q-43 0 -56 20q0 16 20 35q31 29 33 32q18 24 96 107q61 65 83 110q14 10 26 4q15 -17 15 -37q0 -6 -2 -19.5t-3 -20.5q-2 -42 3 -100q8 -90 8 -94l7 -4q5 -1 13 -1q7 0 23 2t23 2q23 0 26 -18q-5 -18 -38 -16q-45 3 -54 0zM44 5q45 77 82 133
q87 135 117 147q27 74 166.5 272.5t172.5 203.5q10 6 19 6q18 0 18 -17q0 -8 -5 -12q-68 -130 -166 -299q-56 -73 -181 -261l-110 -170q-63 -24 -98 -24q-20 0 -20 10q0 5 5 11zM579 299q-33 -32 -68 -80q-55 -73 -62 -82q12 2 27 2q12 0 38.5 -2.5t39.5 -2.5q16 0 30 3
q-2 82 -4 82q1 -1 2 -9q-2 -1 -3 -1l3 25q2 22 2 36q0 20 -5 29z" />
    <glyph glyph-name="threesuperior" unicode="&#xb3;" horiz-adv-x="403" 
d="M37 715l8 56q13 -1 42 -13t42 -12q6 0 14 3t13 3q22 0 57 -32.5t49 -62.5q2 -4 2 -9q0 -21 -31.5 -50t-59.5 -40v-2q45 -9 78 -38t33 -65q0 -59 -89 -97q-80 -35 -189 -37q-16 18 -16 36q0 15 14 24q-5 0 -1 7q4 6 18 6q18 0 47 -11q17 -7 37 -7q39 0 70 23.5t31 55.5
q0 12 -5 25q-35 35 -66 43q-8 2 -88 10q-26 10 -26 27q0 12 18 22q16 0 41.5 14t34.5 14q5 0 10.5 -3.5t9.5 -3.5q10 0 25 18q22 26 24 28q7 5 7 12q0 20 -54 39t-100 17z" />
    <glyph glyph-name="twosuperior" unicode="&#xb2;" horiz-adv-x="468" 
d="M57 758q110 -11 177 -61q62 -47 62 -110q0 -103 -161 -213l1 -3q73 22 111 22q30 0 72 -10q18 -17 18 -36q0 -17 -18 -32q-60 -2 -149 4q-21 7 -41 7q-12 0 -31.5 -3t-29.5 -3h-75l4 35q16 10 81 70q52 47 66 45q24 -4 52 28q33 38 33 92q0 18 -3 37q-62 44 -127 44
q-39 0 -56 -11q0 -5 -5 13t-5 34q0 36 24 51z" />
    <glyph glyph-name="brokenbar" unicode="&#xa6;" horiz-adv-x="292" 
d="M74 738q-1 -53 3 -92t3 -68q1 -25 -3 -64q-3 -42 -3 -50q0 -18 7 -17q-25 -23 -41 -23q-7 0 -18.5 5t-20.5 4q-4 55 -2 185q2 154 15 172q37 27 50 27q12 0 7 -34q-6 -38 3 -45zM73 327q-3 -16 -1 -64q-5 -2 -5 -41q0 -18 1.5 -71t1.5 -81q0 -109 -22 -106q-11 -8 -19 -8
q-34 0 -34 113q0 46 6.5 132.5t6.5 107.5q0 23 -4 27q3 23 13 23q7 0 27 -16t29 -16z" />
    <glyph glyph-name="minus" unicode="&#xad;" horiz-adv-x="475" 
d="M0 370l155 -3l231 3q11 -22 11 -45q0 -22 -11 -39l-139 9l-247 -9q-5 7 -5 18q0 5 2.5 26t2.5 40z" />
    <glyph glyph-name="minus" unicode="&#x2212;" horiz-adv-x="475" 
d="M0 370l155 -3l231 3q11 -22 11 -45q0 -22 -11 -39l-139 9l-247 -9q-5 7 -5 18q0 5 2.5 26t2.5 40z" />
    <glyph glyph-name="multiply" unicode="&#xd7;" horiz-adv-x="524" 
d="M19 185q-1 -4 -1 -5v-1q-3 0 54 83t88 88q-29 23 -71 63q-29 37 -94 93q-2 8 -2 16q0 42 62 44l153 -153q20 29 65 84q38 29 88 68q47 -33 59 -59q-26 -45 -96 -89q-57 -35 -57 -63l-1 1q157 -134 157 -152q0 -3 -2 -3q2 -11 2 -23q0 -44 -31 -44q-13 0 -31 8
q-56 41 -100 99q-35 48 -53 54l-24 -18q-19 -15 -23 -33q-13 -24 -46 -66q-28 -36 -32 -38q-11 7 -27 7q-4 0 -11 -1h-9q-18 0 -18 23q0 7 1 17z" />
    <glyph glyph-name="Adieresis" unicode="&#xc4;" horiz-adv-x="743" 
d="M631 5q-8 -5 -17 -5q-21 0 -38 20q-41 114 -122 341q-10 12 -31 12q-14 0 -29 -5q-21 -7 -48 -7q-10 0 -29.5 1t-29.5 1q-31 0 -53 -10q-38 -81 -110 -245q4 -10 4 -21q0 -15 -8 -36q-7 -17 -14 -35q-28 -4 -53 -4q-24 0 -53 4q-4 47 32 110q50 88 56 104q44 126 63 177
q38 98 78 171q24 58 69 174q-3 24 15.5 41.5t39.5 6.5q25 -17 33 -58q12 -67 13 -69q18 -28 46 -104q25 -68 54 -102q23 -75 64 -184q34 -92 69 -184q18 -37 18 -57q0 -24 -19 -37zM325 614q-10 -21 -27 -87q-15 -57 -37 -87q11 2 23 2q18 0 56 -6t57 -6q13 0 24 2
q-19 49 -39 98q-25 57 -57 84zM156 958q-2 -4 -2 -9q0 -9 5.5 -27.5t5.5 -27.5q0 -16 -14 -26q-2 -10 2.5 -20t14.5 -10q28 1 42 -1q2 -3 5 -3q2 0 7 3t8 2q3 0 10 -1t11 -1q4 1 8 6q7 11 7 32q-1 30 0 35q-4 4 -4 9q0 4 2.5 12t2.5 12q0 8 -10 11q-26 3 -52 3q-22 6 -34 3
h-5q-4 0 -5.5 -1.5t-4.5 -0.5zM512 957q2 -4 2 -9q0 -9 -5.5 -27.5t-5.5 -26.5q0 -17 14 -27q2 -9 -2.5 -19.5t-14.5 -10.5q-28 1 -42 -1q-2 -2 -5 -2q-2 0 -7 3t-8 1q-3 0 -11 -1q-6 -1 -10 0t-8 5q-7 11 -7 33q1 30 0 34q4 4 4 10q0 4 -2.5 12t-2.5 11q0 8 10 11
q26 3 52 3q22 7 34 3h5q4 0 5.5 -1t4.5 -1z" />
    <glyph glyph-name="Aring" unicode="&#xc5;" horiz-adv-x="737" 
d="M631 5q-8 -5 -17 -5q-21 0 -38 20q-41 114 -122 341q-10 12 -31 12q-14 0 -29 -5q-21 -7 -48 -7q-10 0 -29.5 1t-29.5 1q-31 0 -53 -10q-38 -81 -110 -245q4 -10 4 -21q0 -15 -8 -36q-7 -17 -14 -35q-28 -4 -53 -4q-24 0 -53 4q-4 47 32 110q50 88 56 104q44 126 63 177
q38 98 78 171q24 58 69 174q-3 24 15.5 41.5t39.5 6.5q25 -17 33 -58q12 -67 13 -69q18 -28 46 -104q25 -68 54 -102q23 -75 64 -184q34 -92 69 -184q18 -37 18 -57q0 -24 -19 -37zM325 614q-10 -21 -27 -87q-15 -57 -37 -87q11 2 23 2q18 0 56 -6t57 -6q13 0 24 2
q-19 49 -39 98q-25 57 -57 84zM337 782q-76 0 -97 77q-4 13 -4 27q0 39 24 34q13 -3 40 12.5t45 14.5q44 -5 74 -22t30 -39q0 -7 -3 -14q-46 -90 -109 -90zM342 820q14 0 18 11q8 22 16.5 31.5t8.5 19.5q0 26 -41 26q-19 0 -33.5 -12.5t-14.5 -32.5t13 -31.5t33 -11.5z" />
    <glyph glyph-name="Ccedilla" unicode="&#xc7;" horiz-adv-x="607" 
d="M332 33q8 -21 48 -67q34 -39 34 -58q0 -9 -6 -16q-10 -35 -61 -46q-54 -7 -109 -13q-58 21 -58 47q0 11 15 12q136 7 137 46q1 38 -76 51q-4 11 -27 33q-19 19 -16 28q-1 4 -1 8q0 24 36 47l30 14q-120 75 -170 112q-66 51 -143 133q30 30 61 60q34 35 43 66q38 38 78 58
q6 5 134 133q76 76 149 114q8 4 17 4q15 0 26 -11t13 -23q-19 -46 -86 -99q-84 -66 -106 -93q-9 -19 -48 -53t-47 -56l-52 -38q-29 -22 -41 -45q14 -51 73 -101q30 -25 115 -80q33 -32 84 -61q86 -48 92 -52q0 -9 2.5 -27.5t2.5 -26.5q0 -22 -16 -28q-26 22 -51 45
q-24 19 -68 33q-21 3 -21 -18q0 -25 13 -32z" />
    <glyph glyph-name="Eacute" unicode="&#xc9;" horiz-adv-x="574" 
d="M457 12q-142 -1 -440 -12q-12 76 -12 172q0 54 5.5 164t5.5 164q0 109 -16 193l18 86q9 7 23 7q4 0 13 -1t13 -1q11 0 20 5q66 6 171 8q83 2 165 3q10 -10 10 -21q0 -4 -2.5 -14t-2.5 -16t2 -13l-218 -4q-11 -17 -51 -21q-44 -4 -57 -16q8 -132 0 -222q15 -2 31 -2
q46 0 118 25q81 29 117 33q17 -8 17 -30q-1 -32 0 -34q-41 -29 -131 -46q-99 -19 -134 -36q-10 -21 -10 -46q0 -17 6.5 -52t6.5 -52q0 -29 -14 -52q-4 -16 -4 -28q0 -43 73 -43h18h18q45 0 65 -11q55 1 170 -10q5 -15 6 -38v-39zM272 970l-120 -112l24 -35l105 54
q32 -7 54 28q3 7 3 13q0 40 -66 52z" />
    <glyph glyph-name="Ntilde" unicode="&#xd1;" horiz-adv-x="700" 
d="M519 484q0 -74 -17 -226q-15 -145 -14 -218q-29 15 -50 55l-34 66q-24 36 -92 118q-62 73 -88 120q-27 10 -47 33t-24 48l-46 39l-9 -8l-4 -423q20 -12 20 -36q0 -10 -4 -19q-10 -21 -41 -27l-54 -6l-10 11q-1 21 3 63q3 46 3 66q0 45 -11 77q25 94 15 268q-10 189 4 270
q69 5 87 -26q4 -38 38 -77q13 -15 67 -64q24 -60 92 -143q88 -110 106 -138q17 17 17 50q0 6 -1 19v19q0 26 8 43q0 11 2.5 34.5t2.5 35.5q0 40 -26 60q3 18 24 66q18 42 18 68q0 15 -5 29q-15 8 -15 29v34q32 13 95 6q8 -66 8 -87q0 -47 -17 -80zM191 882
q-27 -11 -28.5 -12.5t-12.5 -31.5q-20 -12 -34 -12q-22 0 -20 31q47 78 92 78q32 0 79 -24q9 -5 16.5 -9.5t20.5 -4.5q18 0 40.5 12.5t33.5 28.5q41 -4 46 -47q-10 -15 -23 -25q-19 -14 -37 -27q-27 -6 -48 -6t-35.5 7t-26 13t-63.5 29z" />
    <glyph glyph-name="Odieresis" unicode="&#xd6;" 
d="M475 10q-34 -7 -70 -7q-131 0 -268 98q-101 111 -101 273q0 134 67 276q10 23 67 49.5t70 58.5q85 42 190 42q107 0 203 -43q83 -38 119 -115q25 -57 31 -156q9 -152 11 -161q-27 -106 -110 -193q-91 -96 -209 -122zM696 497q8 15 8 31q0 25 -26 59l-42 55
q-77 62 -167 62q-38 0 -72 -13q-12 3 -24 3q-23 0 -67.5 -13.5t-68.5 -14.5q-68 -82 -105 -175q-2 -17 0 -47q3 -36 3 -48q0 -41 -14 -69q25 -25 43 -80q20 -65 34 -84q28 -42 89 -54q55 -10 102 -10q83 0 140 32q-4 19 17 19h8q6 -1 9 -1q19 0 28 9q100 93 100 183
q0 39 -19 75q7 20 15 41.5t9 39.5zM194 963q-2 -4 -2 -9q0 -9 5.5 -27.5t5.5 -27.5q0 -16 -14 -26q-2 -10 2.5 -20t14.5 -10q28 1 42 -1q2 -3 5 -3q2 0 7 3t8 2q3 0 10 -1t11 -1q4 1 8 6q7 11 7 32q-1 30 0 35q-4 4 -4 9q0 4 2.5 12t2.5 12q0 8 -10 11q-26 3 -52 3
q-22 6 -34 3h-5q-4 0 -5.5 -1.5t-4.5 -0.5zM550 962q2 -4 2 -9q0 -9 -5.5 -27.5t-5.5 -26.5q0 -17 14 -27q2 -9 -2.5 -19.5t-14.5 -10.5q-28 1 -42 -1q-2 -2 -5 -2q-2 0 -7 3t-8 1q-3 0 -11 -1q-6 -1 -10 0t-8 5q-7 11 -7 33q1 30 0 34q4 4 4 10q0 4 -2.5 12t-2.5 11
q0 8 10 11q26 3 52 3q22 7 34 3h5q4 0 5.5 -1t4.5 -1z" />
    <glyph glyph-name="Udieresis" unicode="&#xdc;" horiz-adv-x="833" 
d="M531 396q3 -50 -14 -124q-21 -88 -23 -120q-17 -17 -37.5 -56.5t-35.5 -54.5q-25 -25 -66 -29q-39 -12 -88 -12q-67 0 -129 21q-72 39 -101 104q-22 51 -22 132q0 26 2.5 78t2.5 78q0 79 -20 130q-1 64 18 220l79 17q4 -11 4 -25q0 -15 -8 -51q-7 -32 -5 -48
q6 -53 17 -254q8 -161 28 -254q31 -52 125 -56q33 3 67 6.5t49 25.5q19 21 69 108q9 59 9 137q0 38 -3 115t-3 115q0 37 2 68q3 7 3 14q0 14 -18.5 34t-18.5 32q0 8 6 16q-4 8 -4 13q0 13 19 18q2 1 36 6q58 2 106 -13q0 -64 -26 -200q-24 -125 -20 -191zM90 960
q-2 -4 -2 -9q0 -9 5.5 -27.5t5.5 -27.5q0 -16 -14 -26q-2 -10 2.5 -20t14.5 -10q28 1 42 -1q2 -3 5 -3q2 0 7 3t8 2q3 0 10 -1t11 -1q4 1 8 6q7 11 7 32q-1 30 0 35q-4 4 -4 9q0 4 2.5 12t2.5 12q0 8 -10 11q-26 3 -52 3q-22 6 -34 3h-5q-4 0 -5.5 -1.5t-4.5 -0.5zM446 959
q2 -4 2 -9q0 -9 -5.5 -27.5t-5.5 -26.5q0 -17 14 -27q2 -9 -2.5 -19.5t-14.5 -10.5q-28 1 -42 -1q-2 -2 -5 -2q-2 0 -7 3t-8 1q-3 0 -11 -1q-6 -1 -10 0t-8 5q-7 11 -7 33q1 30 0 34q4 4 4 10q0 4 -2.5 12t-2.5 11q0 8 10 11q26 3 52 3q22 7 34 3h5q4 0 5.5 -1t4.5 -1z" />
    <glyph glyph-name="aacute" unicode="&#xe1;" horiz-adv-x="718" 
d="M5 5q8 -5 17 -5q21 0 38 20q41 113 122 341q10 12 31 12q15 0 29 -5q21 -7 48 -7q10 0 30 1t29 1q31 0 53 -10q38 -82 110 -245q-4 -10 -4 -21q0 -15 8 -36q7 -17 14 -35q29 -4 53 -4t53 4q4 47 -32 110q-50 88 -56 104q-44 126 -63 177q-38 98 -78 171q-24 58 -69 174
q3 24 -14 40q-20 19 -41 8q-25 -17 -32 -58q-13 -67 -14 -69q-18 -28 -46 -104q-25 -68 -54 -102q-22 -75 -63 -184l-70 -184q-18 -37 -18 -57q0 -24 19 -37zM311 614q11 -21 28 -87q15 -57 36 -87q-10 2 -23 2q-18 0 -55.5 -6t-56.5 -6q-13 0 -25 2q20 49 39 98
q25 57 57 84zM391 970l-24 35l-105 -54q-32 7 -54 -28q-2 -9 -2 -16q0 -25 18 -36q13 -7 47 -13z" />
    <glyph glyph-name="agrave" unicode="&#xe0;" horiz-adv-x="754" 
d="M625 5q-7 -5 -16 -5q-22 0 -39 20q-41 114 -122 341q-10 12 -31 12q-14 0 -29 -5q-20 -7 -48 -7q-10 0 -29.5 1t-28.5 1q-32 0 -54 -10q-38 -81 -110 -245q5 -10 5 -21q0 -15 -8 -36q-7 -17 -15 -35q-28 -4 -52 -4t-54 4q-3 47 33 110q50 88 55 104q44 126 64 177
q38 98 77 171q24 58 69 174q-3 24 14 40q21 19 41 8q25 -17 33 -58q13 -67 13 -69q19 -28 47 -104q24 -68 53 -102q23 -75 64 -184q35 -92 69 -184q19 -37 19 -57q0 -24 -20 -37zM319 614q-10 -21 -27 -87q-15 -57 -37 -87q11 2 24 2q17 0 55 -6t57 -6q13 0 24 2l-38 98
q-25 57 -58 84zM307 969l120 -111l-24 -35l-105 54q-32 -7 -54 28zM307 969q-71 3 -71 -34q0 -13 8 -30z" />
    <glyph glyph-name="acircumflex" unicode="&#xe2;" horiz-adv-x="746" 
d="M625 5q-7 -5 -16 -5q-22 0 -39 20q-41 114 -122 341q-10 12 -31 12q-14 0 -29 -5q-20 -7 -47 -7q-11 0 -30.5 1t-28.5 1q-32 0 -54 -10q-38 -81 -110 -245q5 -10 5 -21q0 -15 -8 -36q-7 -17 -15 -35q-28 -4 -52 -4t-54 4q-3 47 33 110q50 88 55 104q44 126 64 177
q38 98 77 171q24 58 69 174q-3 24 14 40q21 19 41 8q25 -17 33 -58q13 -67 13 -69q19 -28 47 -104q24 -68 53 -102q23 -75 64 -184q35 -92 69 -184q19 -37 19 -57q0 -24 -20 -37zM319 614q-10 -21 -27 -87q-15 -57 -37 -87q11 2 24 2q17 0 55 -6t57 -6q13 0 24 2l-38 98
q-25 57 -58 84zM509 879q-4 -47 -51 -57q-56 69 -117 108q-8 0 -56 -41l-58 -48q-15 -5 -27 -5q-33 0 -39 37q25 37 85.5 80.5t101.5 53.5z" />
    <glyph glyph-name="adieresis" unicode="&#xe4;" horiz-adv-x="737" 
d="M625 5q-7 -5 -16 -5q-22 0 -39 20q-41 114 -122 341q-10 12 -31 12q-14 0 -29 -5q-20 -7 -47 -7q-11 0 -30.5 1t-28.5 1q-32 0 -54 -10q-38 -81 -110 -245q5 -10 5 -21q0 -15 -8 -36q-7 -17 -15 -35q-28 -4 -52 -4t-54 4q-3 47 33 110q50 88 55 104q44 126 64 177
q38 98 77 171q24 58 69 174q-3 24 14 40q21 19 41 8q25 -17 33 -58q13 -67 13 -69q19 -28 47 -104q24 -68 53 -102q23 -75 64 -184q35 -92 69 -184q19 -37 19 -57q0 -24 -20 -37zM319 614q-10 -21 -27 -87q-15 -57 -37 -87q11 2 24 2q17 0 55 -6t57 -6q13 0 24 2l-38 98
q-25 57 -58 84zM158 957q-2 -4 -2 -9q0 -9 5.5 -27.5t5.5 -27.5q0 -16 -14 -26q-2 -10 2.5 -20t14.5 -10q28 1 42 -1q2 -3 5 -3q2 0 7 3t8 2q3 0 10 -1t11 -1q4 1 8 6q7 11 7 32q-1 30 0 35q-4 4 -4 9q0 4 2.5 12t2.5 12q0 8 -10 11q-26 3 -52 3q-22 6 -34 3h-5
q-4 0 -5.5 -1.5t-4.5 -0.5zM514 956q2 -4 2 -9q0 -9 -5.5 -27.5t-5.5 -26.5q0 -17 14 -27q2 -9 -2.5 -19.5t-14.5 -10.5q-28 1 -42 -1q-2 -2 -5 -2q-2 0 -7 3t-8 1q-3 0 -11 -1q-6 -1 -10 0t-8 5q-7 11 -7 33q1 30 0 34q4 4 4 10q0 4 -2.5 12t-2.5 11q0 8 10 11q26 3 52 3
q22 7 34 3h5q4 0 5.5 -1t4.5 -1z" />
    <glyph glyph-name="atilde" unicode="&#xe3;" horiz-adv-x="741" 
d="M625 5q-7 -5 -16 -5q-22 0 -39 20q-41 114 -122 341q-10 12 -31 12q-14 0 -29 -5q-20 -7 -47 -7q-11 0 -30.5 1t-28.5 1q-32 0 -54 -10q-38 -81 -110 -245q5 -10 5 -21q0 -15 -8 -36q-7 -17 -15 -35q-28 -4 -52 -4t-54 4q-3 47 33 110q50 88 55 104q44 126 64 177
q38 98 77 171q24 58 69 174q-3 24 14 40q21 19 41 8q25 -17 33 -58q13 -67 13 -69q19 -28 47 -104q24 -68 53 -102q23 -75 64 -184q35 -92 69 -184q19 -37 19 -57q0 -24 -20 -37zM319 614q-10 -21 -27 -87q-15 -57 -37 -87q11 2 24 2q17 0 55 -6t57 -6q13 0 24 2l-38 98
q-25 57 -58 84zM274 890q-27 -11 -28.5 -12.5t-12.5 -31.5q-20 -12 -34 -12q-22 0 -20 31q47 78 92 78q32 0 79 -24q9 -5 16.5 -9.5t20.5 -4.5q18 0 40.5 12.5t33.5 28.5q41 -4 46 -47q-10 -15 -23 -25q-19 -14 -37 -27q-27 -6 -48 -6t-35.5 7t-26 13t-63.5 29z" />
    <glyph glyph-name="aring" unicode="&#xe5;" horiz-adv-x="752" 
d="M625 5q-7 -5 -16 -5q-22 0 -39 20q-41 114 -122 341q-10 12 -31 12q-14 0 -29 -5q-20 -7 -47 -7q-11 0 -30.5 1t-28.5 1q-32 0 -54 -10q-38 -81 -110 -245q5 -10 5 -21q0 -15 -8 -36q-7 -17 -15 -35q-28 -4 -52 -4t-54 4q-3 47 33 110q50 88 55 104q44 126 64 177
q38 98 77 171q24 58 69 174q-3 24 14 40q21 19 41 8q25 -17 33 -58q13 -67 13 -69q19 -28 47 -104q24 -68 53 -102q23 -75 64 -184q35 -92 69 -184q19 -37 19 -57q0 -24 -20 -37zM319 614q-10 -21 -27 -87q-15 -57 -37 -87q11 2 24 2q17 0 55 -6t57 -6q13 0 24 2l-38 98
q-25 57 -58 84zM326 792q-76 0 -97 77q-4 13 -4 27q0 39 24 34q13 -3 40 12.5t45 14.5q44 -5 74 -22t30 -39q0 -7 -3 -14q-46 -90 -109 -90zM331 830q14 0 18 11q8 22 16.5 31.5t8.5 19.5q0 26 -41 26q-19 0 -33.5 -12.5t-14.5 -32.5t13 -31.5t33 -11.5z" />
    <glyph glyph-name="ccedilla" unicode="&#xe7;" horiz-adv-x="589" 
d="M332 33q8 -21 48 -67q34 -39 34 -58q0 -9 -6 -16q-10 -35 -61 -46q-54 -7 -109 -13q-58 21 -58 47q0 11 15 12q136 7 137 46q1 38 -76 51q-4 11 -27 33q-19 19 -16 28q-1 4 -1 8q0 24 36 47l30 14q-120 75 -170 112q-66 51 -143 133q30 30 61 60q34 35 43 66q38 38 78 58
q6 5 134 133q76 76 149 114q8 4 17 4q15 0 26 -11t13 -23q-19 -46 -86 -99q-84 -66 -106 -93q-9 -19 -48 -53t-47 -56l-52 -38q-29 -22 -41 -45q14 -51 73 -101q30 -25 115 -80q33 -32 84 -61q86 -48 92 -52q0 -9 2.5 -27.5t2.5 -26.5q0 -22 -16 -28q-26 22 -51 45
q-24 19 -68 33q-21 3 -21 -18q0 -25 13 -32z" />
    <glyph glyph-name="eacute" unicode="&#xe9;" horiz-adv-x="574" 
d="M450 12q-142 -1 -440 -12q-12 76 -12 172q0 54 5.5 164t5.5 164q0 109 -16 193l18 86q9 7 23 7q4 0 13 -1t13 -1q11 0 20 5q66 6 171 8q83 2 165 3q10 -10 10 -21q0 -4 -2.5 -14t-2.5 -16t2 -13l-218 -4q-11 -17 -51 -21q-44 -4 -57 -16q8 -132 0 -222q15 -2 31 -2
q46 0 118 25q81 29 117 33q17 -8 17 -30q-1 -32 0 -34q-41 -29 -131 -46q-99 -19 -134 -36q-10 -21 -10 -46q0 -17 6.5 -52t6.5 -52q0 -29 -14 -52q-4 -16 -4 -28q0 -43 73 -43h18h18q45 0 65 -11q55 1 170 -10q5 -15 6 -38v-39zM252 979l-120 -112l24 -35l105 54
q32 -7 54 28q3 7 3 14q0 39 -66 51z" />
    <glyph glyph-name="egrave" unicode="&#xe8;" horiz-adv-x="558" 
d="M450 12q-142 -1 -440 -12q-12 76 -12 172q0 54 5.5 164t5.5 164q0 109 -16 193l18 86q9 7 23 7q4 0 13 -1t13 -1q11 0 20 5q66 6 171 8q83 2 165 3q10 -10 10 -21q0 -4 -2.5 -14t-2.5 -16t2 -13l-218 -4q-11 -17 -51 -21q-44 -4 -57 -16q8 -132 0 -222q15 -2 31 -2
q46 0 118 25q81 29 117 33q17 -8 17 -30q-1 -32 0 -34q-41 -29 -131 -46q-99 -19 -134 -36q-10 -21 -10 -46q0 -17 6.5 -52t6.5 -52q0 -29 -14 -52q-4 -16 -4 -28q0 -43 73 -43h18h18q45 0 65 -11q55 1 170 -10q5 -15 6 -38v-39zM182 974l120 -112l-24 -35l-105 54
q-32 -7 -54 28q-3 6 -3 13q0 39 66 52z" />
    <glyph glyph-name="ecircumflex" unicode="&#xea;" horiz-adv-x="574" 
d="M447 10q-142 -1 -440 -12q-12 76 -12 172q0 54 5.5 164t5.5 164q0 109 -16 193l18 86q9 7 23 7q4 0 13 -1t13 -1q11 0 20 5q66 6 171 8q83 2 165 3q10 -10 10 -21q0 -4 -2.5 -14t-2.5 -16t2 -13l-218 -4q-11 -17 -51 -21q-44 -4 -57 -16q8 -132 0 -222q15 -2 31 -2
q46 0 118 25q81 29 117 33q17 -8 17 -30q-1 -32 0 -34q-41 -29 -131 -46q-99 -19 -134 -36q-10 -21 -10 -46q0 -17 6.5 -52t6.5 -52q0 -29 -14 -52q-4 -16 -4 -28q0 -43 73 -43h18h18q45 0 65 -11q55 1 170 -10q5 -15 6 -38v-39zM396 881q-4 -47 -51 -57q-56 69 -117 108
q-8 0 -56 -41l-58 -48q-15 -5 -27 -5q-33 0 -39 37q25 37 85.5 80.5t101.5 53.5z" />
    <glyph glyph-name="edieresis" unicode="&#xeb;" horiz-adv-x="574" 
d="M450 12q-142 -1 -440 -12q-12 76 -12 172q0 54 5.5 164t5.5 164q0 109 -16 193l18 86q9 7 23 7q4 0 13 -1t13 -1q11 0 20 5q66 6 171 8q83 2 165 3q10 -10 10 -21q0 -4 -2.5 -14t-2.5 -16t2 -13l-218 -4q-11 -17 -51 -21q-44 -4 -57 -16q8 -132 0 -222q15 -2 31 -2
q46 0 118 25q81 29 117 33q17 -8 17 -30q-1 -32 0 -34q-41 -29 -131 -46q-99 -19 -134 -36q-10 -21 -10 -46q0 -17 6.5 -52t6.5 -52q0 -29 -14 -52q-4 -16 -4 -28q0 -43 73 -43h18h18q45 0 65 -11q55 1 170 -10q5 -15 6 -38v-39zM34 953q-2 -4 -2 -9q0 -9 5.5 -27.5
t5.5 -27.5q0 -16 -14 -26q-2 -10 2.5 -20t14.5 -10q28 1 42 -1q2 -3 5 -3q2 0 7 3t8 2q3 0 10 -1t11 -1q4 1 8 6q7 11 7 32q-1 30 0 35q-4 4 -4 9q0 4 2.5 12t2.5 12q0 8 -10 11q-26 3 -52 3q-22 6 -34 3h-5q-4 0 -5.5 -1.5t-4.5 -0.5zM390 952q2 -4 2 -9q0 -9 -5.5 -27.5
t-5.5 -26.5q0 -17 14 -27q2 -9 -2.5 -19.5t-14.5 -10.5q-28 1 -42 -1q-2 -2 -5 -2q-2 0 -7 3t-8 1q-3 0 -11 -1q-6 -1 -10 0t-8 5q-7 11 -7 33q1 30 0 34q4 4 4 10q0 4 -2.5 12t-2.5 11q0 8 10 11q26 3 52 3q22 7 34 3h5q4 0 5.5 -1t4.5 -1z" />
    <glyph glyph-name="iacute" unicode="&#xed;" horiz-adv-x="262" 
d="M98 869l-120 -112l24 -35l105 54q32 -7 54 28q3 7 3 13q0 40 -66 52zM103 590q15 -140 15 -247q0 -86 -9 -166l5 -151q-23 -30 -48 -30q-7 0 -13 2q-14 9 -14 24q0 28 -1 30q-1 56 2 156q3 112 3 157q0 183 -32 303q-2 3 -2 6q0 16 29 18q9 -3 22 -3h16q11 1 16 1
q25 0 33 -14q7 -58 -22 -86z" />
    <glyph glyph-name="igrave" unicode="&#xec;" horiz-adv-x="390" 
d="M111 596q15 -140 15 -248q0 -85 -9 -165l5 -152q-23 -29 -48 -29q-6 0 -13 1q-14 10 -14 25v29q-1 57 1 157q3 111 3 157q0 182 -31 302q-3 4 -3 7q0 16 30 18q8 -4 21 -4q6 0 16.5 1t16.5 1q24 0 33 -14q6 -58 -23 -86zM45 866l120 -112l-24 -35l-105 54q-32 -7 -54 28
q-3 6 -3 13q0 39 66 52z" />
    <glyph glyph-name="icircumflex" unicode="&#xee;" horiz-adv-x="440" 
d="M208 594q15 -140 15 -248q0 -85 -9 -165l5 -152q-23 -29 -48 -29q-6 0 -13 1q-14 10 -14 25v29q-1 57 1 157q3 111 3 157q0 182 -31 302q-3 4 -3 7q0 16 30 18q8 -4 21 -4q6 0 16.5 1t16.5 1q24 0 33 -14q6 -58 -23 -86zM351 763q-4 -47 -51 -57q-56 69 -117 108
q-8 0 -56 -41l-58 -48q-15 -5 -27 -5q-33 0 -39 37q25 37 85.5 80.5t101.5 53.5z" />
    <glyph glyph-name="idieresis" unicode="&#xef;" horiz-adv-x="461" 
d="M225 593q15 -140 15 -248q0 -85 -9 -165l5 -152q-23 -29 -48 -29q-6 0 -13 1q-14 10 -14 25v29q-1 57 1 157q3 111 3 157q0 182 -31 302q-3 4 -3 7q0 16 30 18q8 -4 21 -4q6 0 16.5 1t16.5 1q24 0 33 -14q6 -58 -23 -86zM12 847q-2 -4 -2 -9q0 -9 5.5 -27.5t5.5 -27.5
q0 -16 -14 -26q-2 -10 2.5 -20t14.5 -10q28 1 42 -1q2 -3 5 -3q2 0 7 3t8 2q3 0 10 -1t11 -1q4 1 8 6q7 11 7 32q-1 30 0 35q-4 4 -4 9q0 4 2.5 12t2.5 12q0 8 -10 11q-26 3 -52 3q-22 6 -34 3h-5q-4 0 -5.5 -1.5t-4.5 -0.5zM368 846q2 -4 2 -9q0 -9 -5.5 -27.5t-5.5 -26.5
q0 -17 14 -27q2 -9 -2.5 -19.5t-14.5 -10.5q-28 1 -42 -1q-2 -2 -5 -2q-2 0 -7 3t-8 1q-3 0 -11 -1q-6 -1 -10 0t-8 5q-7 11 -7 33q1 30 0 34q4 4 4 10q0 4 -2.5 12t-2.5 11q0 8 10 11q26 3 52 3q22 7 34 3h5q4 0 5.5 -1t4.5 -1z" />
    <glyph glyph-name="ntilde" unicode="&#xf1;" horiz-adv-x="915" 
d="M514 484q0 -74 -17 -226q-15 -145 -14 -218q-29 15 -50 55l-34 66q-24 36 -92 118q-62 73 -88 120q-27 10 -47 33t-24 48l-46 39l-9 -8l-4 -423q20 -12 20 -36q0 -10 -4 -19q-10 -21 -41 -27l-54 -6l-10 11q-1 21 3 63q3 46 3 66q0 45 -11 77q25 94 15 268q-10 189 4 270
q69 5 87 -26q4 -38 38 -77q13 -15 67 -64q24 -60 92 -143q88 -110 106 -138q17 17 17 50q0 6 -1 19v19q0 26 8 43q0 11 2.5 34.5t2.5 35.5q0 40 -26 60q3 18 24 66q18 42 18 68q0 15 -5 29q-15 8 -15 29v34q32 13 95 6q8 -66 8 -87q0 -47 -17 -80zM197 889
q-27 -11 -28.5 -12.5t-12.5 -31.5q-20 -12 -34 -12q-22 0 -20 31q47 78 92 78q32 0 79 -24q9 -5 16.5 -9.5t20.5 -4.5q18 0 40.5 12.5t33.5 28.5q41 -4 46 -47q-10 -15 -23 -25q-19 -14 -37 -27q-27 -6 -48 -6t-35.5 7t-26 13t-63.5 29z" />
    <glyph glyph-name="oacute" unicode="&#xf3;" 
d="M425 14q-34 -8 -70 -8q-131 0 -268 99q-101 110 -101 272q0 135 67 277q10 23 67 49t70 59q85 42 190 42q107 0 203 -43q83 -38 119 -116q25 -56 31 -156q9 -152 11 -160q-27 -107 -110 -194q-91 -95 -209 -121zM646 501q8 15 8 30q0 25 -26 59q-42 55 -42 56
q-77 62 -167 62q-38 0 -72 -13q-12 2 -24 2q-23 0 -67.5 -13.5t-68.5 -13.5q-68 -83 -105 -175q-2 -18 0 -48q3 -36 3 -48q0 -41 -14 -68q25 -26 43 -81q20 -64 34 -84q28 -42 89 -53q55 -11 102 -11q83 0 140 33q-4 18 17 18h8.5h8.5q19 0 28 9q100 92 100 182q0 39 -19 76
q7 19 15 40.5t9 40.5zM397 971l-120 -112l24 -35l105 54q32 -7 54 28q3 7 3 14q0 39 -66 51z" />
    <glyph glyph-name="ograve" unicode="&#xf2;" 
d="M425 14q-34 -8 -70 -8q-131 0 -268 99q-101 110 -101 272q0 135 67 277q10 23 67 49t70 59q85 42 190 42q107 0 203 -43q83 -38 119 -116q25 -56 31 -156q9 -152 11 -160q-27 -107 -110 -194q-91 -95 -209 -121zM646 501q8 15 8 30q0 25 -26 59q-42 55 -42 56
q-77 62 -167 62q-38 0 -72 -13q-12 2 -24 2q-23 0 -67.5 -13.5t-68.5 -13.5q-68 -83 -105 -175q-2 -18 0 -48q3 -36 3 -48q0 -41 -14 -68q25 -26 43 -81q20 -64 34 -84q28 -42 89 -53q55 -11 102 -11q83 0 140 33q-4 18 17 18h8.5h8.5q19 0 28 9q100 92 100 182q0 39 -19 76
q7 19 15 40.5t9 40.5zM324 984l120 -112l-24 -35l-105 54q-32 -7 -54 28q-3 6 -3 13q0 39 66 52z" />
    <glyph glyph-name="ocircumflex" unicode="&#xf4;" 
d="M425 14q-34 -8 -70 -8q-131 0 -268 99q-101 110 -101 272q0 135 67 277q10 23 67 49t70 59q85 42 190 42q107 0 203 -43q83 -38 119 -116q25 -56 31 -156q9 -152 11 -160q-27 -107 -110 -194q-91 -95 -209 -121zM646 501q8 15 8 30q0 25 -26 59q-42 55 -42 56
q-77 62 -167 62q-38 0 -72 -13q-12 2 -24 2q-23 0 -67.5 -13.5t-68.5 -13.5q-68 -83 -105 -175q-2 -18 0 -48q3 -36 3 -48q0 -41 -14 -68q25 -26 43 -81q20 -64 34 -84q28 -42 89 -53q55 -11 102 -11q83 0 140 33q-4 18 17 18h8.5h8.5q19 0 28 9q100 92 100 182q0 39 -19 76
q7 19 15 40.5t9 40.5zM526 881q-4 -47 -51 -57q-56 69 -117 108q-8 0 -56 -41l-58 -48q-15 -5 -27 -5q-33 0 -39 37q25 37 85.5 80.5t101.5 53.5z" />
    <glyph glyph-name="odieresis" unicode="&#xf6;" 
d="M425 14q-34 -8 -70 -8q-131 0 -268 99q-101 110 -101 272q0 135 67 277q10 23 67 49t70 59q85 42 190 42q107 0 203 -43q83 -38 119 -116q25 -56 31 -156q9 -152 11 -160q-27 -107 -110 -194q-91 -95 -209 -121zM646 501q8 15 8 30q0 25 -26 59q-42 55 -42 56
q-77 62 -167 62q-38 0 -72 -13q-12 2 -24 2q-23 0 -67.5 -13.5t-68.5 -13.5q-68 -83 -105 -175q-2 -18 0 -48q3 -36 3 -48q0 -41 -14 -68q25 -26 43 -81q20 -64 34 -84q28 -42 89 -53q55 -11 102 -11q83 0 140 33q-4 18 17 18h8.5h8.5q19 0 28 9q100 92 100 182q0 39 -19 76
q7 19 15 40.5t9 40.5zM174 949q-2 -4 -2 -9q0 -9 5.5 -27.5t5.5 -27.5q0 -16 -14 -26q-2 -10 2.5 -20t14.5 -10q28 1 42 -1q2 -3 5 -3q2 0 7 3t8 2q3 0 10 -1t11 -1q4 1 8 6q7 11 7 32q-1 30 0 35q-4 4 -4 9q0 4 2.5 12t2.5 12q0 8 -10 11q-26 3 -52 3q-22 6 -34 3h-5
q-4 0 -5.5 -1.5t-4.5 -0.5zM530 948q2 -4 2 -9q0 -9 -5.5 -27.5t-5.5 -26.5q0 -17 14 -27q2 -9 -2.5 -19.5t-14.5 -10.5q-28 1 -42 -1q-2 -2 -5 -2q-2 0 -7 3t-8 1q-3 0 -11 -1q-6 -1 -10 0t-8 5q-7 11 -7 33q1 30 0 34q4 4 4 10q0 4 -2.5 12t-2.5 11q0 8 10 11q26 3 52 3
q22 7 34 3h5q4 0 5.5 -1t4.5 -1z" />
    <glyph glyph-name="otilde" unicode="&#xf5;" 
d="M425 13q-34 -8 -70 -8q-131 0 -268 99q-101 110 -101 272q0 135 67 277q10 23 67 49t70 59q85 42 190 42q107 0 203 -43q83 -38 119 -116q25 -56 31 -156q9 -152 11 -160q-27 -107 -110 -194q-91 -95 -209 -121zM646 500q8 15 8 30q0 25 -26 59q-42 55 -42 56
q-77 62 -167 62q-38 0 -72 -13q-12 2 -24 2q-23 0 -67.5 -13.5t-68.5 -13.5q-68 -83 -105 -175q-2 -18 0 -48q3 -36 3 -48q0 -41 -14 -68q25 -26 43 -81q20 -64 34 -84q28 -42 89 -53q55 -11 102 -11q83 0 140 33q-4 18 17 18h8.5h8.5q19 0 28 9q100 92 100 182q0 39 -19 76
q7 19 15 40.5t9 40.5zM295 880q-27 -11 -28.5 -12.5t-12.5 -31.5q-20 -12 -34 -12q-22 0 -20 31q47 78 92 78q32 0 79 -24q9 -5 16.5 -9.5t20.5 -4.5q18 0 40.5 12.5t33.5 28.5q41 -4 46 -47q-10 -15 -23 -25q-19 -14 -37 -27q-27 -6 -48 -6t-35.5 7t-26 13t-63.5 29z" />
    <glyph glyph-name="uacute" unicode="&#xfa;" horiz-adv-x="833" 
d="M526 396q3 -50 -14 -124q-21 -88 -23 -120q-17 -17 -37.5 -56.5t-35.5 -54.5q-25 -25 -66 -29q-39 -12 -88 -12q-67 0 -129 21q-72 39 -101 104q-22 51 -22 132q0 26 2.5 78t2.5 78q0 79 -20 130q-1 64 18 220l79 17q4 -11 4 -25q0 -15 -8 -51q-7 -32 -5 -48
q6 -53 17 -254q8 -161 28 -254q31 -52 125 -56q33 3 67 6.5t49 25.5q19 19 69 108q9 59 9 137q0 38 -3 115t-3 115q0 37 2 68q3 7 3 14q0 14 -18.5 34t-18.5 32q0 8 6 16q-4 8 -4 13q0 13 19 18q2 1 36 6q58 2 106 -13q0 -64 -26 -200q-24 -125 -20 -191zM291 972l-120 -112
l24 -35l105 54q32 -7 54 28q3 7 3 13q0 40 -66 52z" />
    <glyph glyph-name="ugrave" unicode="&#xf9;" horiz-adv-x="833" 
d="M526 396q3 -50 -14 -124q-21 -88 -23 -120q-17 -17 -37.5 -56.5t-35.5 -54.5q-25 -25 -66 -29q-39 -12 -88 -12q-67 0 -129 21q-72 39 -101 104q-22 51 -22 132q0 26 2.5 78t2.5 78q0 79 -20 130q-1 64 18 220l79 17q4 -11 4 -25q0 -15 -8 -51q-7 -32 -5 -48
q6 -53 17 -254q8 -161 28 -254q31 -52 125 -56q33 3 67 6.5t49 25.5q19 19 69 108q9 59 9 137q0 38 -3 115t-3 115q0 37 2 68q3 7 3 14q0 14 -18.5 34t-18.5 32q0 8 6 16q-4 8 -4 13q0 13 19 18q2 1 36 6q58 2 106 -13q0 -64 -26 -200q-24 -125 -20 -191zM232 973l120 -112
l-24 -35l-105 54q-32 -7 -54 28q-3 6 -3 13q0 39 66 52z" />
    <glyph glyph-name="ucircumflex" unicode="&#xfb;" horiz-adv-x="833" 
d="M526 396q3 -50 -14 -124q-21 -88 -23 -120q-17 -17 -37.5 -56.5t-35.5 -54.5q-25 -25 -66 -29q-39 -12 -88 -12q-67 0 -129 21q-72 39 -101 104q-22 51 -22 132q0 26 2.5 78t2.5 78q0 79 -20 130q-1 64 18 220l79 17q4 -11 4 -25q0 -15 -8 -51q-7 -32 -5 -48
q6 -53 17 -254q8 -161 28 -254q31 -52 125 -56q33 3 67 6.5t49 25.5q19 19 69 108q9 59 9 137q0 38 -3 115t-3 115q0 37 2 68q3 7 3 14q0 14 -18.5 34t-18.5 32q0 8 6 16q-4 8 -4 13q0 13 19 18q2 1 36 6q58 2 106 -13q0 -64 -26 -200q-24 -125 -20 -191zM435 873
q-4 -47 -51 -57q-56 69 -117 108q-8 0 -56 -41l-58 -48q-15 -5 -27 -5q-33 0 -39 37q25 37 85.5 80.5t101.5 53.5z" />
    <glyph glyph-name="udieresis" unicode="&#xfc;" horiz-adv-x="833" 
d="M526 396q3 -50 -14 -124q-21 -88 -23 -120q-17 -17 -37.5 -56.5t-35.5 -54.5q-25 -25 -66 -29q-39 -12 -88 -12q-67 0 -129 21q-72 39 -101 104q-22 51 -22 132q0 26 2.5 78t2.5 78q0 79 -20 130q-1 64 18 220l79 17q4 -11 4 -25q0 -15 -8 -51q-7 -32 -5 -48
q6 -53 17 -254q8 -161 28 -254q31 -52 125 -56q33 3 67 6.5t49 25.5q19 19 69 108q9 59 9 137q0 38 -3 115t-3 115q0 37 2 68q3 7 3 14q0 14 -18.5 34t-18.5 32q0 8 6 16q-4 8 -4 13q0 13 19 18q2 1 36 6q58 2 106 -13q0 -64 -26 -200q-24 -125 -20 -191zM61 952
q-1 -4 -1 -9q0 -9 6 -27t6 -26q0 -16 -16 -26q-3 -9 3 -19t16 -10q32 1 46 -1q3 -2 7 -2q2 0 7.5 2.5t8.5 1.5q3 0 12 -1q8 -1 11 0q6 1 9 5q8 11 8 32q-1 29 0 33q-4 4 -4 9q0 4 3 12t3 11q0 8 -12 11q-29 3 -58 3q-24 6 -38 3h-6q-3 0 -5 -1t-6 -1zM459 952q1 -5 1 -10
q0 -8 -6 -26t-6 -26q0 -16 17 -26q2 -10 -3.5 -19.5t-15.5 -9.5q-32 0 -47 -1q-3 -3 -6 -3t-8.5 3t-7.5 2q-4 0 -12 -1t-12 -1q-5 1 -9 6q-8 10 -8 31q1 29 0 34q4 4 4 9q0 4 -3 12t-3 11q0 8 12 11q29 3 58 3q24 6 38 3h6q4 0 6 -2q2 -1 5 0z" />
    <glyph glyph-name="degree" unicode="&#xb0;" horiz-adv-x="400" 
d="M74 478q-16 15 -47 41q-22 22 -22 57q0 36 21 75q57 71 130 69q63 -14 94 -43q13 -25 30 -39q12 -13 12 -30q0 -12 -8 -36t-8 -36q0 -7 2 -14q-85 -73 -138 -73q-21 0 -41 13q-24 16 -25 16zM197 664q-12 6 -23 13q-14 7 -25 7q-5 0 -11 -2q-61 -9 -87 -69q0 -5 -2 -15.5
t-2 -15.5q0 -14 12 -23q6 -16 32 -44q36 -29 68 -29q37 0 61 35q23 31 23 71q0 59 -46 72z" />
    <glyph glyph-name="registered" unicode="&#xae;" horiz-adv-x="819" 
d="M320 485q0 -30 -2 -107q-2 -71 -1 -111q0 -61 5 -108q-46 -8 -70 -8q-28 0 -28 10q0 9 15.5 20.5t24.5 12.5l-7 -11q1 9 1 72v150q0 3 -12 31t-12 47q0 29 22 50v0q105 0 124 -2q77 -9 111 -49q8 -8 17 -24q-9 -11 -39 -59q-25 -42 -38 -51q29 -40 116 -134
q-12 -23 -19 -30q-11 -9 -33 -11q-90 46 -133 176q72 37 72 84q0 27 -40 42q-29 11 -60 10h-14zM459 689q14 -6 85 -18q51 -9 77 -39q-3 -15 39 -43q46 -32 52 -43q-7 -25 -7 -55q0 -29 9 -86.5t9 -87.5q0 -68 -37 -110q-22 -26 -33 -62q-13 -43 -23 -59q-27 -42 -115 -73
q-78 -28 -138 -28q-170 0 -276 116q-104 112 -104 284q0 118 99 214t219 96zM342 632q-104 0 -143 -55q-24 -32 -47 -65q-26 -38 -36 -70q-33 -28 -33 -74q0 -16 5 -48.5t5 -48.5q34 -93 98 -152q74 -69 165 -69q23 0 59 16q4 2 59 13q46 9 48 16l-10 9q135 140 135 294
q0 70 -32 132l-22 1q-44 67 -108 87q-43 14 -143 14z" />
    <glyph glyph-name="copyright" unicode="&#xa9;" horiz-adv-x="788" 
d="M258 339q-11 13 -11 29q0 39 62.5 77t136.5 43q11 19 11 30q0 13 -18 34q-42 -7 -105 -42q-57 -32 -68 -31q-19 2 -49 -54.5t-30 -93.5q0 -19 28 -68q33 -59 63 -60q22 0 58.5 -11.5t63.5 -11.5q43 0 68 5q27 20 27 31q0 7 -14.5 15.5t-17.5 15.5q-12 8 -28 8
q-13 0 -40 -6.5t-42 -6.5q-61 0 -95 97zM716 371q4 -31 4 -54q0 -65 -36 -110q-23 -21 -35 -58q-11 -31 -22 -63q-38 -43 -116 -68q-1 -1 -138 -36q-101 -3 -191 54q-78 48 -134 131q-36 75 -36 157q0 142 108 333q105 45 225 54l132 4q37 -13 75 -25q34 -13 62 -45
q84 -136 102 -274zM339 632q-44 -5 -87 -11q-30 -6 -56 -44q-23 -32 -46 -65q-26 -38 -37 -70q-35 -30 -32 -82q0 -13 4.5 -43t4.5 -46q32 -87 70 -128q52 -57 144 -73q39 -11 70 -11q28 0 58 18q26 17 53 33l90 65q38 67 52 101q22 52 22 99q0 55 -29 119q-14 17 -30 37
q-38 57 -80 76q-53 25 -171 25z" />
    <glyph glyph-name="trademark" unicode="&#x2122;" horiz-adv-x="982" 
d="M414 739q-21 -5 -66 -1t-67 -4l-50 -3q-14 -17 -14 -41q0 -13 6 -41t6 -43q0 -20 -8 -36q-3 -12 -3 -25q0 -16 7 -47.5t7 -48.5q0 -21 -8 -39q-2 -28 -5 -56q-3 -35 -18 -54q-6 2 -17 0q-14 -3 -17 -3q-10 0 -16 5q-5 28 -1.5 93t-1.5 94q0 19 6 62q5 38 5 59
q0 43 -18 78q4 13 11 38q-28 10 -120 5v3q-19 9 -30 -3v3q-12 -1 -33 2q-3 7 -3 16q0 17 13 44q30 -4 134 -6q81 -3 121 -13q25 -1 69 4q50 6 69 6q23 0 42 -5q6 -5 6 -13q0 -5 -3 -15t-3 -15zM880 304q-15 0 -24.5 12t-17.5 23q-13 72 -27 143q-16 85 -37 140
q-23 -50 -46 -101q-24 -59 -31 -106q-12 -12 -21.5 -40.5t-19.5 -40.5q-17 -2 -20 13q-2 11 -3 22q-37 72 -83 215l-31 45q-9 -26 -16 -70q-10 -65 -11 -70q-11 -31 -20 -94t-18 -92q-11 -6 -41 0q-7 2 -15 2q0 19 10 45q12 32 14 44q14 71 28 143q17 85 23 146q4 8 4 21
q0 9 -3 28t-3 27q0 35 42 33q0 -2 9 -18q5 -10 5 -18q23 -21 32 -71q10 -54 22 -70.5t27 -62.5q13 -40 32 -58l9 -21q12 26 40 77q7 53 37 124q24 60 49 120q10 0 22.5 -5.5t21.5 -5.5q4 -8 4 -17q0 -10 -14 -38q28 -131 93 -389q6 -34 -22 -35z" />
    <glyph glyph-name="plusminus" unicode="&#xb1;" horiz-adv-x="581" 
d="M8 273q-11 17 -10 33q0 19 13.5 31.5t29.5 12.5q7 0 19.5 -4t18.5 -4q14 0 41.5 10.5t41.5 10.5q0 17 4 49t4 47t6.5 30.5t6.5 22.5l64 13q0 -122 4 -162q15 0 52 2t53 2q55 0 94 -31q-6 -8 -11 -33.5t-5 -38.5q-10 0 -92 -5.5t-93 -5.5q0 -48 -1 -96q-1 -54 -7 -87
l178 3q-2 -1 -2 -8q0 -11 4 -37t4 -28q-13 -2 -108 -2q-64 1 -175 3q-103 3 -108 3q-9 0 -18 22t-9 33q0 24 29 24l144 -13q-1 71 -2 182z" />
    <glyph glyph-name="mu" unicode="&#xb5;" horiz-adv-x="576" 
d="M7 463q2 27 5 55q29 30 46 30q10 0 22 -14t19 -16v-219q0 -120 12.5 -155.5t41.5 -55.5q2 1 6 1t25 -3.5t36 -3.5q117 0 117 199q0 45 -6 100q-6 28 -6 54q0 51 19 83q13 32 40 32q25 0 47 -32q-9 -20 -9 -57q0 -27 11 -127.5t11 -172.5q0 -84 -13 -161q-13 -26 -31 -26
q-20 0 -48 26v61q-25 -39 -50 -54q-44 -12 -85 -12q-99 0 -118 57q-9 -30 -11 -113q-1 -50 -21 -94l-53 26q-15 32 -15 247q0 263 8 345z" />
    <glyph glyph-name="mu" unicode="&#x3bc;" horiz-adv-x="576" 
d="M7 463q2 27 5 55q29 30 46 30q10 0 22 -14t19 -16v-219q0 -120 12.5 -155.5t41.5 -55.5q2 1 6 1t25 -3.5t36 -3.5q117 0 117 199q0 45 -6 100q-6 28 -6 54q0 51 19 83q13 32 40 32q25 0 47 -32q-9 -20 -9 -57q0 -27 11 -127.5t11 -172.5q0 -84 -13 -161q-13 -26 -31 -26
q-20 0 -48 26v61q-25 -39 -50 -54q-44 -12 -85 -12q-99 0 -118 57q-9 -30 -11 -113q-1 -50 -21 -94l-53 26q-15 32 -15 247q0 263 8 345z" />
    <glyph glyph-name="logicalnot" unicode="&#xac;" horiz-adv-x="634" 
d="M497 207q-18 -36 -59 -30q-21 3 -24 30l7 131q1 15 -7 83q-1 5 -37 5q-30 0 -133 -5.5t-149 -5.5q-54 0 -71 6q-29 22 -29 47q0 15 10 25.5t19 9.5q138 -10 241 -6q70 2 231 -9q6 -64 6 -72q0 -54 -5 -209z" />
    <glyph glyph-name="nonbreakingspace" unicode="&#xa0;" horiz-adv-x="300" 
 />
    <glyph glyph-name="Agrave" unicode="&#xc0;" horiz-adv-x="800" 
d="M631 5q-8 -5 -17 -5q-21 0 -38 20q-41 114 -122 341q-10 12 -31 12q-14 0 -29 -5q-21 -7 -48 -7q-10 0 -29.5 1t-29.5 1q-31 0 -53 -10q-38 -81 -110 -245q4 -10 4 -21q0 -15 -8 -36q-7 -17 -14 -35q-28 -4 -53 -4q-24 0 -53 4q-4 47 32 110q50 88 56 104q44 126 63 177
q38 98 78 171q24 58 69 174q-3 24 15.5 41.5t39.5 6.5q25 -17 33 -58q12 -67 13 -69q18 -28 46 -104q25 -68 54 -102q23 -75 64 -184q34 -92 69 -184q18 -37 18 -57q0 -24 -19 -37zM325 614q-10 -21 -27 -87q-15 -57 -37 -87q11 2 23 2q18 0 56 -6t57 -6q13 0 24 2
q-19 49 -39 98q-25 57 -57 84zM307 969l120 -111l-24 -35l-105 54q-32 -7 -54 28zM244 905q-2 6 -2 13q0 25 18.5 39.5t46.5 11.5z" />
    <glyph glyph-name="Atilde" unicode="&#xc3;" horiz-adv-x="800" 
d="M631 5q-8 -5 -17 -5q-21 0 -38 20q-41 114 -122 341q-10 12 -31 12q-14 0 -29 -5q-21 -7 -48 -7q-10 0 -29.5 1t-29.5 1q-31 0 -53 -10q-38 -81 -110 -245q4 -10 4 -21q0 -15 -8 -36q-7 -17 -14 -35q-28 -4 -53 -4q-24 0 -53 4q-4 47 32 110q50 88 56 104q44 126 63 177
q38 98 78 171q24 58 69 174q-3 24 15.5 41.5t39.5 6.5q25 -17 33 -58q12 -67 13 -69q18 -28 46 -104q25 -68 54 -102q23 -75 64 -184q34 -92 69 -184q18 -37 18 -57q0 -24 -19 -37zM325 614q-10 -21 -27 -87q-15 -57 -37 -87q11 2 23 2q18 0 56 -6t57 -6q13 0 24 2
q-19 49 -39 98q-25 57 -57 84zM274 882q-27 -11 -28.5 -12.5t-12.5 -31.5q-20 -12 -34 -12q-22 0 -20 31q47 78 92 78q32 0 79 -24q9 -5 16.5 -9.5t20.5 -4.5q18 0 40.5 12.5t33.5 28.5q41 -4 46 -47q-10 -15 -23 -25q-19 -14 -37 -27q-27 -6 -48 -6t-35.5 7t-26 13
t-63.5 29z" />
    <glyph glyph-name="Otilde" unicode="&#xd5;" 
d="M443 6q-34 -7 -70 -7q-131 0 -268 98q-101 111 -101 273q0 134 67 276q10 23 67 49.5t70 58.5q85 42 190 42q107 0 203 -43q83 -38 119 -115q25 -57 31 -156q9 -152 11 -161q-27 -106 -110 -193q-91 -96 -209 -122zM664 493q8 15 8 31q0 25 -26 59l-42 55q-77 62 -167 62
q-38 0 -72 -13q-12 3 -24 3q-23 0 -67.5 -13.5t-68.5 -14.5q-68 -82 -105 -175q-2 -17 0 -47q3 -36 3 -48q0 -41 -14 -69q25 -25 43 -80q20 -65 34 -84q28 -42 89 -54q55 -10 102 -10q83 0 140 32q-4 19 17 19h8q6 -1 9 -1q19 0 28 9q100 93 100 183q0 39 -19 75
q7 20 15 41.5t9 39.5zM269 887q-27 -11 -28.5 -12.5t-12.5 -31.5q-20 -12 -34 -12q-22 0 -20 31q47 78 92 78q32 0 79 -24q9 -5 16.5 -9.5t20.5 -4.5q18 0 40.5 12.5t33.5 28.5q41 -4 46 -47q-10 -15 -23 -25q-19 -14 -37 -27q-27 -6 -48 -6t-35.5 7t-26 13t-63.5 29z" />
    <glyph glyph-name="divide" unicode="&#xf7;" horiz-adv-x="593" 
d="M417 401q5 -5 29 0q18 4 18 -19q6 -39 -24 -39q-6 0 -19.5 2t-20.5 2q-12 0 -18 -6q-32 -10 -76 -10q-18 0 -54 2t-54 2q-77 0 -124 -35q-5 2 -12 2q-6 0 -18 -3t-17 -3q-17 0 -22 23q-6 15 -4 38q3 28 1 38q36 -1 110 3q19 -10 64 -3q81 12 151 12q35 0 64.5 -3t25.5 -3
zM267 577q2 -4 2 -9q0 -9 -5.5 -27.5t-5.5 -27.5q0 -16 14 -26q2 -10 -2.5 -20t-14.5 -10q-28 1 -42 -1q-2 -3 -5 -3q-2 0 -7 3t-8 2q-3 0 -10 -1t-11 -1q-4 1 -8 6q-7 11 -7 32q1 30 0 35q4 4 4 9q0 4 -2.5 12t-2.5 12q0 8 10 11q26 3 52 3q22 6 34 3h5q4 0 5.5 -1.5
t4.5 -0.5zM276 257q1 -4 1 -9q0 -9 -5 -27.5t-5 -27.5q0 -16 14 -26q2 -9 -2.5 -19.5t-14.5 -10.5q-29 1 -42 -1q-2 -3 -5 -3t-7.5 3t-7.5 2q-3 0 -11 -1q-7 -1 -10 0q-5 1 -8 5q-7 11 -7 32q1 31 0 35q3 4 3 9t-2.5 13t-2.5 11q0 8 11 11q26 3 52 3q22 7 34 3h5q4 0 5.5 -1
t4.5 -1z" />
    <glyph glyph-name="ydieresis" unicode="&#xff;" horiz-adv-x="684" 
d="M511 710q-39 -31 -64 -93q-33 -81 -45 -99q-62 -129 -125 -258q-70 -148 -117 -260l-96 2q-5 17 -5 32q0 50 72 117q76 69 81 119q3 23 28 75q23 48 23 74q0 36 -33.5 65.5t-72.5 87.5q-49 75 -63 93q-41 50 -94 75q8 33 3 56q10 4 23 4q6 0 35 -3q23 -3 37 0
q51 -41 97 -119q60 -103 79 -126q7 -25 8 -25q5 -14 16 -22q33 55 76 138q36 71 72 141q16 14 57 14q3 0 57 -4l-6 -56q-7 -32 -43 -28zM109 959q-2 -4 -2 -9q0 -9 5.5 -27.5t5.5 -27.5q0 -16 -14 -26q-2 -10 2.5 -20t14.5 -10q28 1 42 -1q2 -3 5 -3q2 0 7 3t8 2q3 0 10 -1
t11 -1q4 1 8 6q7 11 7 32q-1 30 0 35q-4 4 -4 9q0 4 2.5 12t2.5 12q0 8 -10 11q-26 3 -52 3q-22 6 -34 3h-5q-4 0 -5.5 -1.5t-4.5 -0.5zM465 958q2 -4 2 -9q0 -9 -5.5 -27.5t-5.5 -26.5q0 -17 14 -27q2 -9 -2.5 -19.5t-14.5 -10.5q-28 1 -42 -1q-2 -2 -5 -2q-2 0 -7 3t-8 1
q-3 0 -11 -1q-6 -1 -10 0t-8 5q-7 11 -7 33q1 30 0 34q4 4 4 10q0 4 -2.5 12t-2.5 11q0 8 10 11q26 3 52 3q22 7 34 3h5q4 0 5.5 -1t4.5 -1z" />
    <glyph glyph-name="Ydieresis" unicode="&#x178;" horiz-adv-x="691" 
d="M512 710q-39 -31 -64 -93q-33 -81 -45 -99q-62 -129 -125 -258q-70 -148 -117 -260l-96 2q-5 17 -5 32q0 50 74 118t79 118q3 23 28 75q23 48 23 75q0 35 -33.5 64.5t-71.5 88.5q-50 75 -64 93q-41 49 -94 74q8 33 3 56q10 5 23 5q6 0 35 -4q23 -2 37 0q51 -41 97 -119
q60 -102 79 -126l8 -25q5 -14 16 -22q33 55 76 139l72 140q16 14 57 14q3 0 57 -4l-6 -56q-7 -32 -43 -28zM421 958q1 -4 1 -9q0 -9 -5.5 -27t-5.5 -27q0 -16 15 -26q2 -9 -3 -19.5t-14 -10.5q-29 1 -42 -1q-3 -2 -5 -2q-3 0 -8 3t-7 1q-3 0 -10.5 -1t-10.5 -1q-5 1 -8 6
q-7 11 -7 33q1 30 0 34q3 4 3 9q0 4 -2.5 12t-2.5 11q0 8 11 11q26 3 52 3q21 7 34 3h5q4 0 5.5 -1t4.5 -1zM251 956q1 -4 1 -9q0 -9 -5.5 -27.5t-5.5 -26.5q0 -17 15 -27q2 -9 -2.5 -19.5t-14.5 -10.5q-29 1 -42 -1q-3 -2 -5 -2q-3 0 -7.5 3t-7.5 1q-3 0 -11 -1
q-7 -1 -10 0q-5 1 -8 5q-7 11 -7 33q1 30 0 34q3 4 3 10q0 4 -2.5 12t-2.5 11q0 8 11 11q26 3 52 3q21 7 34 3h5q4 0 5.5 -1t4.5 -1z" />
    <glyph glyph-name="Acircumflex" unicode="&#xc2;" horiz-adv-x="800" 
d="M631 5q-8 -5 -17 -5q-21 0 -38 20q-41 114 -122 341q-10 12 -31 12q-14 0 -29 -5q-21 -7 -48 -7q-10 0 -29.5 1t-29.5 1q-31 0 -53 -10q-38 -81 -110 -245q4 -10 4 -21q0 -15 -8 -36q-7 -17 -14 -35q-28 -4 -53 -4q-24 0 -53 4q-4 47 32 110q50 88 56 104q44 126 63 177
q38 98 78 171q24 58 69 174q-3 24 15.5 41.5t39.5 6.5q25 -17 33 -58q12 -67 13 -69q18 -28 46 -104q25 -68 54 -102q23 -75 64 -184q34 -92 69 -184q18 -37 18 -57q0 -24 -19 -37zM325 614q-10 -21 -27 -87q-15 -57 -37 -87q11 2 23 2q18 0 56 -6t57 -6q13 0 24 2
q-19 49 -39 98q-25 57 -57 84zM522 876q-4 -47 -51 -57q-56 69 -117 108q-8 0 -56 -41l-58 -48q-15 -5 -27 -5q-33 0 -39 37q25 37 85.5 80.5t101.5 53.5z" />
    <glyph glyph-name="Ecircumflex" unicode="&#xca;" horiz-adv-x="574" 
d="M457 12q-142 -1 -440 -12q-12 76 -12 172q0 54 5.5 164t5.5 164q0 109 -16 193l18 86q9 7 23 7q4 0 13 -1t13 -1q11 0 20 5q66 6 171 8q83 2 165 3q10 -10 10 -21q0 -4 -2.5 -14t-2.5 -16t2 -13l-218 -4q-11 -17 -51 -21q-44 -4 -57 -16q8 -132 0 -222q15 -2 31 -2
q46 0 118 25q81 29 117 33q17 -8 17 -30q-1 -32 0 -34q-41 -29 -131 -46q-99 -19 -134 -36q-10 -21 -10 -46q0 -17 6.5 -52t6.5 -52q0 -29 -14 -52q-4 -16 -4 -28q0 -43 73 -43h18h18q45 0 65 -11q55 1 170 -10q5 -15 6 -38v-39zM389 882q-4 -47 -51 -57q-56 69 -117 108
q-8 0 -56 -41l-58 -48q-15 -5 -27 -5q-33 0 -39 37q25 37 85.5 80.5t101.5 53.5z" />
    <glyph glyph-name="Aacute" unicode="&#xc1;" horiz-adv-x="742" 
d="M30 11q8 -5 17 -5q21 0 38 20q41 114 122 341q10 13 31 13q15 0 29 -6q21 -7 48 -7q10 0 30 1.5t29 1.5q32 0 53 -11q38 -81 110 -245q-4 -10 -4 -21q0 -14 7.5 -33.5t14.5 -37.5q29 -3 53 -3t53 3q4 47 -32 110q-50 88 -56 104q-44 127 -63 177q-38 98 -78 171
q-24 58 -69 174q3 24 -14 40q-20 20 -41 8q-25 -17 -32 -58q-13 -66 -14 -69q-18 -27 -46 -104q-25 -68 -54 -102q-22 -75 -63 -184l-70 -184q-18 -36 -18 -57q0 -24 19 -37zM336 620q11 -20 28 -87q15 -56 36 -87q-10 2 -23 2q-18 0 -55.5 -5.5t-56.5 -5.5q-13 0 -25 1
q20 49 39 99q25 56 57 83zM363 966l-120 -112l24 -35l105 54q32 -7 54 28q3 7 3 14q0 39 -66 51z" />
    <glyph glyph-name="Edieresis" unicode="&#xcb;" horiz-adv-x="574" 
d="M457 12q-142 -1 -440 -12q-12 76 -12 172q0 54 5.5 164t5.5 164q0 109 -16 193l18 86q9 7 23 7q4 0 13 -1t13 -1q11 0 20 5q66 6 171 8q83 2 165 3q10 -10 10 -21q0 -4 -2.5 -14t-2.5 -16t2 -13l-218 -4q-11 -17 -51 -21q-44 -4 -57 -16q8 -132 0 -222q15 -2 31 -2
q46 0 118 25q81 29 117 33q17 -8 17 -30q-1 -32 0 -34q-41 -29 -131 -46q-99 -19 -134 -36q-10 -21 -10 -46q0 -17 6.5 -52t6.5 -52q0 -29 -14 -52q-4 -16 -4 -28q0 -43 73 -43h18h18q45 0 65 -11q55 1 170 -10q5 -15 6 -38v-39zM349 928q1 1 8 -19q-1 -22 -1 -43
q-1 -34 -11 -32q-4 4 -19 2q-11 6 -31 5q-24 -1 -31 1q-6 7 -5 22q1 20 1 23h-1q-1 11 4 28q-7 22 2 31q4 3 10 3q2 0 33 -14zM103 928q-2 2 -8 -19v-43q2 -33 12 -32q3 5 19 2q11 6 32.5 5t29.5 1q5 8 5 22q-1 21 -1 23h1q1 11 -4 28q7 22 -2 31q-4 3 -10 3q-2 0 -33 -14z
" />
    <glyph glyph-name="Egrave" unicode="&#xc8;" horiz-adv-x="574" 
d="M457 12q-142 -1 -440 -12q-12 76 -12 172q0 54 5.5 164t5.5 164q0 109 -16 193l18 86q9 7 23 7q4 0 13 -1t13 -1q11 0 20 5q66 6 171 8q83 2 165 3q10 -10 10 -21q0 -4 -2.5 -14t-2.5 -16t2 -13l-218 -4q-11 -17 -51 -21q-44 -4 -57 -16q8 -132 0 -222q15 -2 31 -2
q46 0 118 25q81 29 117 33q17 -8 17 -30q-1 -32 0 -34q-41 -29 -131 -46q-99 -19 -134 -36q-10 -21 -10 -46q0 -17 6.5 -52t6.5 -52q0 -29 -14 -52q-4 -16 -4 -28q0 -43 73 -43h18h18q45 0 65 -11q55 1 170 -10q5 -15 6 -38v-39zM191 967l120 -112l-24 -35l-105 54
q-32 -7 -54 28q-3 6 -3 13q0 39 66 52z" />
    <glyph glyph-name="Iacute" unicode="&#xcd;" horiz-adv-x="324" 
d="M65 676q-17 -161 -17 -284q0 -98 10 -191l-5 -174q25 -34 53 -34q7 0 15 2q15 11 15 29q0 31 1 33q0 65 -2 180q-4 128 -4 180q0 210 36 348q2 4 2 8q0 18 -32 20q-10 -3 -25 -3h-18q-12 1 -18 1q-27 0 -36 -16q-8 -66 25 -99zM128 966l-120 -111l24 -35l105 54
q32 -7 54 28q3 6 3 13q0 39 -66 51z" />
    <glyph glyph-name="Icircumflex" unicode="&#xce;" horiz-adv-x="465" 
d="M215 679q17 -161 17 -285q0 -97 -10 -190l5 -174q-26 -34 -53 -34q-7 0 -15 2q-15 11 -15 28q-1 32 -1 34q-1 65 2 180q3 128 3 180q0 210 -35 348q-3 4 -3 8q0 18 33 20q9 -4 24 -4q6 0 18 1t18 1q27 0 37 -16q7 -67 -25 -99zM352 883q-4 -47 -51 -57q-56 69 -117 108
q-8 0 -56 -41l-58 -48q-15 -5 -27 -5q-33 0 -39 37q25 37 85.5 80.5t101.5 53.5z" />
    <glyph glyph-name="Idieresis" unicode="&#xcf;" horiz-adv-x="530" 
d="M237 684q17 -161 17 -285q0 -97 -10 -190l5 -174q-26 -34 -53 -34q-7 0 -15 2q-15 11 -15 28q-1 32 -1 34q-1 65 2 180q3 128 3 180q0 210 -35 348q-3 4 -3 8q0 18 33 20q9 -4 24 -4q6 0 18 1t18 1q27 0 37 -16q7 -67 -25 -99zM16 964q-2 -4 -2 -9q0 -9 5.5 -27.5
t5.5 -27.5q0 -16 -14 -26q-2 -10 2.5 -20t14.5 -10q28 1 42 -1q2 -3 5 -3q2 0 7 3t8 2q3 0 10 -1t11 -1q4 1 8 6q7 11 7 32q-1 30 0 35q-4 4 -4 9q0 4 2.5 12t2.5 12q0 8 -10 11q-26 3 -52 3q-22 6 -34 3h-5q-4 0 -5.5 -1.5t-4.5 -0.5zM372 963q2 -4 2 -9q0 -9 -5.5 -27.5
t-5.5 -26.5q0 -17 14 -27q2 -9 -2.5 -19.5t-14.5 -10.5q-28 1 -42 -1q-2 -2 -5 -2q-2 0 -7 3t-8 1q-3 0 -11 -1q-6 -1 -10 0t-8 5q-7 11 -7 33q1 30 0 34q4 4 4 10q0 4 -2.5 12t-2.5 11q0 8 10 11q26 3 52 3q22 7 34 3h5q4 0 5.5 -1t4.5 -1z" />
    <glyph glyph-name="Igrave" unicode="&#xcc;" horiz-adv-x="431" 
d="M146 683q17 -161 17 -285q0 -97 -10 -190l5 -174q-26 -34 -53 -34q-7 0 -15 2q-15 11 -15 28q-1 32 -1 34q-1 65 2 180q3 128 3 180q0 210 -35 348q-3 4 -3 8q0 18 33 20q9 -4 24 -4q6 0 18 1t18 1q27 0 37 -16q7 -67 -25 -99zM68 972l120 -112l-24 -35l-105 54
q-32 -7 -54 28q-3 6 -3 13q0 39 66 52z" />
    <glyph glyph-name="Oacute" unicode="&#xd3;" 
d="M281 6q34 -7 70 -7q131 0 268 98q101 111 101 273q0 134 -67 276q-10 23 -67 49.5t-70 58.5q-85 42 -190 42q-107 0 -203 -43q-83 -38 -119 -115q-25 -57 -31 -156q-9 -152 -11 -161q27 -106 110 -193q91 -96 209 -122zM60 493q-8 15 -8 31q0 25 26 59l42 55
q77 62 167 62q38 0 72 -13q12 3 24 3q23 0 67.5 -13.5t68.5 -14.5q68 -82 105 -175q2 -17 0 -47q-3 -36 -3 -48q0 -41 14 -69q-25 -25 -43 -80q-20 -65 -34 -84q-28 -42 -89 -54q-55 -10 -102 -10q-83 0 -140 32q4 19 -17 19h-8q-6 -1 -9 -1q-19 0 -28 9q-100 93 -100 183
q0 39 19 75q-7 20 -15 41.5t-9 39.5zM373 974l-120 -112l24 -35l105 54q32 -7 54 28q3 6 3 13q0 39 -66 52z" />
    <glyph glyph-name="Ocircumflex" unicode="&#xd4;" 
d="M443 6q-34 -7 -70 -7q-131 0 -268 98q-101 111 -101 273q0 134 67 276q10 23 67 49.5t70 58.5q85 42 190 42q107 0 203 -43q83 -38 119 -115q25 -57 31 -156q9 -152 11 -161q-27 -106 -110 -193q-91 -96 -209 -122zM664 493q8 15 8 31q0 25 -26 59l-42 55q-77 62 -167 62
q-38 0 -72 -13q-12 3 -24 3q-23 0 -67.5 -13.5t-68.5 -14.5q-68 -82 -105 -175q-2 -17 0 -47q3 -36 3 -48q0 -41 -14 -69q25 -25 43 -80q20 -65 34 -84q28 -42 89 -54q55 -10 102 -10q83 0 140 32q-4 19 17 19h8q6 -1 9 -1q19 0 28 9q100 93 100 183q0 39 -19 75
q7 20 15 41.5t9 39.5zM557 882q-4 -47 -51 -57q-56 69 -117 108q-8 0 -56 -41l-58 -48q-15 -5 -27 -5q-33 0 -39 37q25 37 85.5 80.5t101.5 53.5z" />
    <glyph glyph-name="Ograve" unicode="&#xd2;" 
d="M443 6q-34 -7 -70 -7q-131 0 -268 98q-101 111 -101 273q0 134 67 276q10 23 67 49.5t70 58.5q85 42 190 42q107 0 203 -43q83 -38 119 -115q25 -57 31 -156q9 -152 11 -161q-27 -106 -110 -193q-91 -96 -209 -122zM664 493q8 15 8 31q0 25 -26 59l-42 55q-77 62 -167 62
q-38 0 -72 -13q-12 3 -24 3q-23 0 -67.5 -13.5t-68.5 -14.5q-68 -82 -105 -175q-2 -17 0 -47q3 -36 3 -48q0 -41 -14 -69q25 -25 43 -80q20 -65 34 -84q28 -42 89 -54q55 -10 102 -10q83 0 140 32q-4 19 17 19h8q6 -1 9 -1q19 0 28 9q100 93 100 183q0 39 -19 75
q7 20 15 41.5t9 39.5zM352 972l120 -112l-24 -35l-105 54q-32 -7 -54 28q-3 6 -3 13q0 39 66 52z" />
    <glyph glyph-name="Uacute" unicode="&#xda;" horiz-adv-x="833" 
d="M1 396q-3 -50 14 -124q21 -88 23 -120q17 -17 37.5 -56.5t35.5 -54.5q25 -25 66 -29q39 -12 88 -12q67 0 129 21q72 39 101 104q22 51 22 132q0 26 -2.5 78t-2.5 78q0 79 20 130q1 64 -18 220l-79 17q-4 -11 -4 -25q0 -15 8 -51q7 -32 5 -48q-6 -53 -17 -254
q-8 -161 -28 -254q-31 -52 -125 -56q-33 3 -67 6.5t-49 25.5q-19 21 -69 108q-9 59 -9 137q0 38 3 115t3 115q0 37 -2 68q-3 7 -3 14q0 14 18.5 34t18.5 32q0 8 -6 16q4 8 4 13q0 13 -19 18q-2 1 -36 6q-58 2 -106 -13q0 -64 26 -200q24 -125 20 -191zM294 975l-120 -111
l24 -35l105 54q32 -7 54 28q3 6 3 13q0 39 -66 51z" />
    <glyph glyph-name="Ucircumflex" unicode="&#xdb;" horiz-adv-x="817" 
d="M531 396q3 -50 -14 -124q-21 -88 -23 -120q-17 -17 -37.5 -56.5t-35.5 -54.5q-25 -25 -66 -29q-39 -12 -88 -12q-67 0 -129 21q-72 39 -101 104q-22 51 -22 132q0 26 2.5 78t2.5 78q0 79 -20 130q-1 64 18 220l79 17q4 -11 4 -25q0 -15 -8 -51q-7 -32 -5 -48
q6 -53 17 -254q8 -161 28 -254q31 -52 125 -56q33 3 67 6.5t49 25.5q19 21 69 108q9 59 9 137q0 38 -3 115t-3 115q0 37 2 68q3 7 3 14q0 14 -18.5 34t-18.5 32q0 8 6 16q-4 8 -4 13q0 13 19 18q2 1 36 6q58 2 106 -13q0 -64 -26 -200q-24 -125 -20 -191zM437 884
q-4 -47 -51 -57q-56 69 -117 108q-8 0 -56 -41l-58 -48q-15 -5 -27 -5q-33 0 -39 37q25 37 85.5 80.5t101.5 53.5z" />
    <glyph glyph-name="Ugrave" unicode="&#xd9;" horiz-adv-x="833" 
d="M531 396q3 -50 -14 -124q-21 -88 -23 -120q-17 -17 -37.5 -56.5t-35.5 -54.5q-25 -25 -66 -29q-39 -12 -88 -12q-67 0 -129 21q-72 39 -101 104q-22 51 -22 132q0 26 2.5 78t2.5 78q0 79 -20 130q-1 64 18 220l79 17q4 -11 4 -25q0 -15 -8 -51q-7 -32 -5 -48
q6 -53 17 -254q8 -161 28 -254q31 -52 125 -56q33 3 67 6.5t49 25.5q19 21 69 108q9 59 9 137q0 38 -3 115t-3 115q0 37 2 68q3 7 3 14q0 14 -18.5 34t-18.5 32q0 8 6 16q-4 8 -4 13q0 13 19 18q2 1 36 6q58 2 106 -13q0 -64 -26 -200q-24 -125 -20 -191zM243 969l120 -112
l-24 -35l-105 54q-32 -7 -54 28q-3 6 -3 13q0 39 66 52z" />
    <glyph glyph-name="glyph232" horiz-adv-x="300" 
 />
    </font>
</defs>
</svg>
